<svg xmlns="http://www.w3.org/2000/svg" id="SD17-2" data-name="SD17" viewBox="0 0 54.5 72.5"><defs><clipPath id="clippath"><circle cx="43.54" cy="63.59" r="1.36" class="cls-5"/></clipPath><clipPath id="clippath-1"><path d="M50.83 33.56 3.6 41.16V4.32h47.23z" style="stroke-width:0;fill:none"/></clipPath><style>.cls-5{stroke-width:0;fill:#fff}</style></defs><path d="M0 0h54.5v72.5H0z" style="stroke-width:0;fill:#be3f46"/><path d="m48.05 68.05-1.32-.57-.02 1.44-1.12-.91-.41 1.39-.83-1.18-.77 1.22-.48-1.36-1.07.97-.1-1.44-1.29.65.29-1.41-1.41.27.66-1.28-1.44-.12.98-1.05-1.35-.5 1.23-.75-1.16-.85 1.38-.39-.89-1.13h1.44l-.56-1.33 1.39.38-.18-1.43 1.24.75.21-1.43.99 1.06.59-1.32.67 1.28.92-1.11.3 1.41 1.19-.81-.1 1.44 1.36-.47-.48 1.36 1.44-.08-.83 1.18 1.41.31-1.12.92 1.28.68-1.33.57 1.04 1-1.42.2.73 1.24-1.43-.19z" style="stroke-width:0;fill:#e4b523"/><path d="M43.54 66.31v-.98a1.8 1.8 0 0 0 1.26-.51c.16-.16.3-.36.39-.57s.14-.44.14-.67-.05-.46-.14-.67-.22-.41-.39-.57a1.77 1.77 0 0 0-1.26-.51v-.98c.72 0 1.42.29 1.93.8a2.724 2.724 0 0 1 0 3.86c-.51.51-1.2.8-1.93.8" class="cls-5"/><circle cx="43.54" cy="63.59" r="1.36" style="fill:#fff"/><path d="M43.54 64.95c.75 0 1.36-.61 1.36-1.36s-.61-1.36-1.36-1.36-1.36.61-1.36 1.36.61 1.36 1.36 1.36" class="cls-5" style="clip-path:url(#clippath)"/><path d="M46.35 62.17h-.1v-.06h.26v.06h-.1v.26h-.07v-.26m.56-.05v.32h-.06v-.2l-.09.19h-.04l-.09-.19v.2h-.06v-.32h.06l.11.23.1-.23z" class="cls-5"/><path d="m10.27 60.34-7.05 1.78v7.04h7.05z" style="fill:none;stroke-miterlimit:10;stroke:#fff;stroke-width:.25px"/><path d="M3.22 68.26h7.04v.9H3.22zm1.45-2.08v-.31h.63v-1.25h-.32v-.31h.32V64h.63v1.88h.63v.31h-1.9Zm2.85 0v-.31H7.2v-.31h-.32v-.94h.32v-.31h.32V64h.95v.31h.32v.31h.32v.94h-.32v.31h-.32v.31zm.31-.31h.63v-1.25h-.32v-.31h-.63v1.25h.32z" class="cls-5"/><path d="M50.83 33.56 3.6 41.16V4.32h47.23z" style="fill:#fff;stroke:#000;stroke-miterlimit:10"/><g style="clip-path:url(#clippath-1)"><path d="m24.17 5.87-5.04 4.36-4.81-2.88.56 5.55-5.54 1.79 5.79 2.6-2.6 7.7 5.36-4.44 1 5.96 1.98-3.12.83.83c-.27.83-.44 1.71-.44 2.64 0 4.77 3.86 8.67 8.64 8.67s8.67-3.9 8.67-8.67c0-4.78-3.9-8.64-8.67-8.64-.98 0-1.93.16-2.82.47l-.41-.41 4.14-1.65-5.51-1.66 4.61-4.05-6.78.47zM9.04 9.11l1.34 1.95 2.24.19-1.41-2.06-2.17-.07Zm25.42 1.13-4.62 2.83 4.15-.5 1.89-1.01zm-15.77 3.82 1.16.11c-.15 1.54.32 2.01 1.15 2.73.64.56 1.5 1.18 2.24 2.26l1.34-1.34 1.94 1.94.27.27.36-.14q1.17-.465 2.52-.51c-.43.18-.82.44-1.15.78-.82.82-1.18 1.97-1.11 3.19l2.38.29-.11-3.01 2.37 2.5 2.83-1.42-.75 2.99 2.85 1.12-3.34 1.24.46 2.5c1.03-.04 1.99-.4 2.7-1.12.22-.22.4-.46.56-.72a7.51 7.51 0 0 1-7.45 6.63c-4.14 0-7.47-3.36-7.47-7.51 0-.92.18-1.78.48-2.6l.13-.35-.26-.27-2.01-2.01 1.63-1.63c-.63-1.02-1.42-1.57-2.16-2.22-.91-.79-1.73-1.86-1.55-3.72Zm-5.42 4.61-3.12 1.16-.76 2.01 2.35-.5 1.52-2.67Zm3.96 6.73-1.6 4.18.96 2.04 1.08-2.25-.44-3.96Z" style="stroke-width:0"/></g><path d="m7.82 49.54-2.35.37-.46 1.82-1.82.29 2.67-8.95 1.58-.25 2.68 8.11-1.84.29-.46-1.67Zm-1.97-1.12 1.59-.25-.8-2.92-.8 3.17Zm10.85-1.38c-.04.98-.32 1.76-.82 2.34s-1.21.94-2.13 1.09q-1.44.225-2.22-.6c-.51-.55-.77-1.42-.77-2.59v-1.44c0-1.17.27-2.12.8-2.84s1.27-1.15 2.21-1.3c.93-.15 1.64 0 2.12.44s.76 1.15.82 2.11l-1.73.27c-.02-.6-.11-1-.28-1.2s-.48-.27-.93-.19c-.46.07-.79.29-.98.64s-.29.9-.3 1.64v1.61c0 .85.09 1.41.28 1.7s.51.39.98.32c.45-.07.77-.23.94-.48s.27-.66.29-1.24l1.72-.27Zm6.42-5.27-2.11.33v7.1l-1.73.27v-7.1l-2.07.33v-1.44l5.91-.94v1.44Zm2.78 6.65-1.72.27v-8.53l1.72-.27zm7.46-4.67c0 1.14-.27 2.08-.81 2.79s-1.29 1.15-2.25 1.31c-.96.15-1.71-.04-2.26-.58s-.82-1.37-.83-2.5v-1.46c0-1.17.27-2.13.81-2.87s1.3-1.19 2.26-1.34c.95-.15 1.7.05 2.24.61.55.56.82 1.42.83 2.59v1.46Zm-1.73-1.16c0-.77-.11-1.32-.33-1.67-.22-.34-.56-.47-1.02-.4s-.79.31-1.01.7c-.22.4-.33.96-.34 1.7v1.52c0 .75.11 1.28.33 1.6s.57.44 1.03.37c.45-.07.78-.3 1-.68s.33-.93.33-1.66v-1.48Zm8.93 3.51-1.72.27-2.52-5.2v5.6l-1.72.27v-8.53l1.72-.27 2.53 5.2v-5.6l1.72-.27v8.53Z" style="stroke-width:0;fill:#efe791"/></svg>