<svg xmlns="http://www.w3.org/2000/svg" id="SD16-2" data-name="SD16" viewBox="0 0 54.5 72.5"><defs><clipPath id="clippath"><circle cx="43.54" cy="63.59" r="1.36" class="cls-6"/></clipPath><clipPath id="clippath-1"><path d="M50.83 33.7 3.6 41.3V4.46h47.23z" style="stroke-width:0;fill:none"/></clipPath><style>.cls-6{stroke-width:0;fill:#fff}</style></defs><path d="M-.04 0h54.5v72.5H-.04z" style="stroke-width:0;fill:#cc6242"/><path d="m10.27 60.34-7.05 1.78v7.04h7.05z" style="fill:none;stroke-miterlimit:10;stroke:#fff;stroke-width:.25px"/><path d="M3.22 68.26h7.04v.9H3.22zm1.13-2.08v-.62h.32v-.31h.32v-.31h.63v-.31h.32v-.31h-.95v.31h-.63v-.31h.32v-.31h1.58v.31h.32v.62h-.32v.31h-.32v.31h-.63v.31h1.27v.31H4.37Zm3.17 0v-.31H7.2v-.31h-.32v-.94h.32v-.31h.32V64h.95v.31h.32v.31h.32v.94h-.32v.31h-.32v.31zm.31-.31h.63v-1.25h-.32v-.31h-.63v1.25h.32z" class="cls-6"/><path d="m48.05 68.05-1.32-.57-.02 1.44-1.12-.91-.41 1.39-.83-1.18-.77 1.22-.48-1.36-1.07.97-.1-1.44-1.29.65.29-1.41-1.41.27.66-1.28-1.44-.12.98-1.05-1.35-.5 1.23-.75-1.16-.85 1.38-.39-.89-1.13h1.44l-.56-1.33 1.39.38-.18-1.43 1.24.75.21-1.43.99 1.06.59-1.32.67 1.28.92-1.11.3 1.41 1.19-.81-.1 1.44 1.36-.47-.48 1.36 1.44-.08-.83 1.18 1.41.31-1.12.92 1.28.68-1.33.57 1.04 1-1.42.2.73 1.24-1.43-.19z" style="stroke-width:0;fill:#e4b523"/><path d="M43.54 66.31v-.98a1.8 1.8 0 0 0 1.26-.51c.16-.16.3-.36.39-.57s.14-.44.14-.67-.05-.46-.14-.67-.22-.41-.39-.57a1.77 1.77 0 0 0-1.26-.51v-.98c.72 0 1.42.29 1.93.8a2.724 2.724 0 0 1 0 3.86c-.51.51-1.2.8-1.93.8" class="cls-6"/><circle cx="43.54" cy="63.59" r="1.36" style="fill:#fff"/><path d="M43.54 64.95c.75 0 1.36-.61 1.36-1.36s-.61-1.36-1.36-1.36-1.36.61-1.36 1.36.61 1.36 1.36 1.36" class="cls-6" style="clip-path:url(#clippath)"/><path d="M46.35 62.17h-.1v-.06h.26v.06h-.1v.26h-.07v-.26m.56-.05v.32h-.06v-.2l-.09.19h-.04l-.09-.19v.2h-.06v-.32h.06l.11.23.1-.23z" class="cls-6"/><path d="M50.83 33.7 3.6 41.3V4.46h47.23z" style="fill:#fff;stroke:#000;stroke-miterlimit:10"/><g style="clip-path:url(#clippath-1)"><path d="M28.51 6.51c-.46 0-.9.04-1.22.1-.31.06-.5.2-.49.16-.39.66-.8 1.81-.89 2.79-.05.5-.01.96.09 1.26.11.3.23.44.47.53.02 0 .03.01.04.02 0 0 0-.02.03-.04.08-.07.23-.29.38-.59.3-.59.54-1.43 1.17-2.04.67-.65 1.56-.88 2.2-1.17.32-.15.56-.3.66-.41.03-.04.04-.05.06-.08-.45-.26-1.4-.5-2.3-.53zm-2.01 4.86s0 .01 0 0m5.24-3.21c-.28.25-.59.41-.91.55-.75.35-1.55.64-1.83.92-.09.09-.19.24-.3.44.25.23.54.45.87.63.73.41 1.51.57 2.11.51.61-.05.99-.27 1.17-.6s.17-.77-.12-1.31c-.2-.39-.54-.8-.99-1.15m-3.64 3.14s0 .02-.01.04c-.17.35-.36.69-.68.98-.25.21-.62.36-1 .35-.54.74-1.16 1.51-1.93 2.33 1.59.7 2.75 1.34 4.19 2.31.51-2.01 1.18-3.51 1.88-4.85-.53-.1-1.07-.3-1.59-.59-.3-.17-.59-.35-.84-.56m-7.41 1.21c-1.75.08-2.59.83-3.07 1.7s-.48 1.96-.35 2.32c.04.13.02.09.07.1s.22.01.45-.09c.46-.22 1.11-.82 1.51-1.7l.3-.65.62.35c.54.3 1.3.04 1.65-.4.04-.41-.08-.83-.3-1.14-.23-.31-.53-.49-.8-.49h-.06Zm1.62 2.99c-.6.43-1.38.6-2.13.41-.2.35-.43.66-.68.93 4.74 1.69 5.83 2.24 9.39 5.02.08 2.2.29 5.35.07 7.02-.17 1.33 1.28.87 1.3.01.03-1.33-.22-2.75.05-3.96.06 1.14 1.07.98 1.09.02l.05-3.16.49-.46c-4.62-3.48-5.76-4.29-9.64-5.84m-.59 3.54-3.82 6.92.67 1.34-1.63.39-2.14 3.87.72.59 1.57-.27 6.63-11.98c-.59-.3-1.22-.56-2-.87m3.15 1.51L18.76 31.6l2.74-.46 2.72-4.93-.07-1.74 1.29-.46 1.24-2.24c-.67-.5-1.24-.9-1.8-1.24m-13.99 9.49-7.3 4.07v1.13l7.14-.98 1.67 3.51-1.17.56-1.26-2.65-6.38.87v4.36h26.82l-.43-.78-5.36-2.12-4.01 1.57-.48-1.22 4.49-1.76 4.37 1.73-.06-.1-5.94-6-6.19 1.05 1.77 1.51-.85.99-2.89-2.48z" style="stroke-width:0"/></g><path d="m6.83 48.33-1.86.29-.36 1.44-1.44.23 2.11-7.09 1.25-.2 2.12 6.42-1.46.23-.36-1.33Zm-1.56-.89 1.26-.2-.63-2.31zm4.01 1.88v-6.75l1.79-.28q1.185-.18 1.89.45.705.645.72 1.95v1.1c0 .89-.23 1.62-.7 2.2s-1.11.93-1.94 1.07l-1.75.28Zm1.36-5.83v4.49l.41-.06q.675-.105.96-.51c.19-.27.28-.7.29-1.29v-1.17c0-.63-.09-1.06-.27-1.28s-.48-.3-.9-.25l-.5.08Zm6.21 2.78 1.14-5.08 1.52-.24-1.95 7.06-1.42.22-1.93-6.45 1.51-.24 1.13 4.72Zm6.78-2.14-2.12.34v1.79l2.51-.4v1.13l-3.88.61v-6.75l3.87-.61v1.14l-2.5.4v1.6l2.12-.34v1.1Zm5.89 1.99-1.36.22-1.99-4.11v4.43l-1.36.22v-6.75l1.36-.22 2 4.12V39.6l1.36-.22v6.75Zm5.47-6.49-1.67.26v5.62l-1.37.22v-5.62l-1.64.26v-1.14l4.68-.74zm5.18-1.95v4.68c0 .7-.2 1.27-.58 1.7s-.93.71-1.64.82c-.72.11-1.28.01-1.66-.3-.38-.32-.57-.83-.57-1.55v-4.64l1.37-.22v4.65c0 .38.06.65.19.79.12.14.35.19.67.14.33-.05.55-.17.67-.35s.18-.46.19-.83V37.9zm3.08 3.8-.68.11v2.47l-1.36.22v-6.75l2.18-.34c.68-.11 1.21-.01 1.58.28.37.3.56.77.56 1.42 0 .9-.33 1.58-.98 2.04l1.18 2.58v.06l-1.47.23-1.02-2.31Zm-.68-1.03.77-.12c.27-.04.48-.17.61-.37.14-.2.2-.46.2-.76 0-.68-.26-.97-.79-.89l-.8.13v2.01Zm7.38-.49-2.12.34v1.79l2.51-.4v1.13l-3.88.61v-6.75l3.87-.61v1.14l-2.5.4v1.6l2.12-.34v1.1Z" style="stroke-width:0;fill:#fcf8c9"/></svg>