<svg xmlns="http://www.w3.org/2000/svg" id="SD27" viewBox="0 0 54.5 72.5"><defs><clipPath id="clippath"><circle cx="43.54" cy="63.59" r="1.36" class="cls-4"/></clipPath><style>.cls-4{fill:#fff;stroke-width:0}</style></defs><path d="M-.04 0h54.5v72.5H-.04z" style="stroke-width:0;fill:#878686"/><path d="m10.27 60.34-7.05 1.78v7.04h7.05z" style="stroke-miterlimit:10;fill:none;stroke:#fff;stroke-width:.25px"/><path d="M3.22 68.26h7.04v.9H3.22zm1.13-2.08v-.62h.32v-.31h.32v-.31h.63v-.31h.32v-.31h-.95v.31h-.63v-.31h.32v-.31h1.58v.31h.32v.62h-.32v.31h-.32v.31h-.63v.31h1.27v.31H4.37Zm3.17 0v-.94h.32v-.31h.32v-.31h.32v-.31h-.95v.31H6.9V64h2.21v.62h-.32v.31h-.32v.31h-.32v.94z" class="cls-4"/><path d="m48.05 68.05-1.32-.57-.02 1.44-1.12-.91-.41 1.39-.83-1.18-.77 1.22-.48-1.36-1.07.97-.1-1.44-1.29.65.29-1.41-1.41.27.66-1.28-1.44-.12.98-1.05-1.35-.5 1.23-.75-1.16-.85 1.38-.39-.89-1.13h1.44l-.56-1.33 1.39.38-.18-1.43 1.24.75.21-1.43.99 1.06.59-1.32.67 1.28.92-1.11.3 1.41 1.19-.81-.1 1.44 1.36-.47-.48 1.36 1.44-.08-.83 1.18 1.41.31-1.12.92 1.28.68-1.33.57 1.04 1-1.42.2.73 1.24-1.43-.19z" style="stroke-width:0;fill:#e4b523"/><path d="M43.54 66.31v-.98a1.8 1.8 0 0 0 1.26-.51c.16-.16.3-.36.39-.57s.14-.44.14-.67-.05-.46-.14-.67-.22-.41-.39-.57a1.77 1.77 0 0 0-1.26-.51v-.98c.72 0 1.42.29 1.93.8a2.724 2.724 0 0 1 0 3.86c-.51.51-1.2.8-1.93.8" class="cls-4"/><circle cx="43.54" cy="63.59" r="1.36" style="fill:#fff"/><path d="M43.54 64.95c.75 0 1.36-.61 1.36-1.36s-.61-1.36-1.36-1.36-1.36.61-1.36 1.36.61 1.36 1.36 1.36" class="cls-4" style="clip-path:url(#clippath)"/><path d="M46.35 62.17h-.1v-.06h.26v.06h-.1v.26h-.07v-.26m.56-.05v.32h-.06v-.2l-.09.19h-.04l-.09-.19v.2h-.06v-.32h.06l.11.23.1-.23z" class="cls-4"/><path d="M50.83 34.13 3.6 41.73V4.89h47.23z" style="fill:#fff;stroke:#000;stroke-miterlimit:10"/><path d="M28.16 8.53c-7.34 3.45-13.44 13.49-14.99 20.98 4.48 0 7.76 1.43 10.13 3.94l.65-.71c-1.75-1.8-4.06-3.28-7.1-4.74 1.63-4.06 4.13-10.22 7.3-10.57 1.24-.14 2.57.61 4.01 2.71 4.52-7.52 8.81 2.41 11.3 7.86-2.98 1.62-5.28 3.09-7.06 4.92l.58.65c2.33-2.48 5.6-4.05 10.17-4.05-1.84-7.4-7.5-17.34-14.99-20.98m-4.98 15.19c-.96 0-1.65.4-1.65 1.04 0 .79 1.05 1.63 2.35 1.88s2.35-.18 2.35-.97-1.05-1.63-2.35-1.88a3.5 3.5 0 0 0-.7-.07m9.77 0c-.22 0-.46.02-.7.07-1.3.25-2.35 1.09-2.35 1.88s1.05 1.22 2.35.97 2.35-1.09 2.35-1.88c0-.64-.69-1.05-1.65-1.04M7.03 49.03l-1.96.31-.38 1.52-1.52.24 2.22-7.46 1.31-.21 2.24 6.75-1.53.24-.38-1.4Zm-1.65-.94 1.33-.21-.66-2.43-.66 2.64Zm7.23-.36c0-.29-.07-.5-.22-.62s-.42-.24-.81-.33c-.71-.16-1.23-.39-1.54-.71s-.47-.72-.47-1.21c0-.6.21-1.11.64-1.54.42-.43.96-.7 1.62-.8q.66-.105 1.17.09c.51.195.61.35.79.65s.28.67.28 1.1l-1.43.23c0-.33-.07-.57-.21-.73-.14-.15-.35-.21-.61-.16-.25.04-.45.14-.59.31q-.21.255-.21.63c0 .2.08.36.23.49.16.13.43.25.83.36.69.14 1.2.37 1.51.68s.47.75.47 1.32c0 .62-.2 1.13-.59 1.54s-.93.67-1.61.78c-.46.07-.88.04-1.25-.08-.38-.13-.67-.35-.89-.67-.21-.32-.32-.72-.32-1.19l1.44-.23c0 .41.08.7.24.86q.24.24.78.15c.5-.08.75-.38.75-.92m5.4-.85c0-.29-.07-.5-.22-.62s-.42-.24-.81-.33c-.71-.16-1.22-.39-1.54-.71s-.47-.72-.47-1.21c0-.6.21-1.11.64-1.54s.96-.7 1.62-.8q.66-.105 1.17.09c.51.195.61.35.79.65s.28.67.28 1.1l-1.43.23c0-.33-.07-.57-.21-.73s-.35-.21-.61-.16c-.25.04-.45.14-.59.31q-.21.255-.21.63c0 .2.08.36.23.49.16.13.43.25.83.36.69.14 1.2.37 1.51.68s.47.75.47 1.32c0 .62-.2 1.13-.59 1.54s-.93.67-1.61.78c-.46.07-.88.04-1.25-.08-.38-.13-.67-.35-.89-.67-.21-.32-.32-.72-.32-1.2l1.44-.23c0 .41.08.7.24.86q.24.24.78.15c.5-.08.75-.38.75-.92Zm5.79-.51-1.96.31-.38 1.51-1.52.24 2.22-7.46 1.31-.21 2.24 6.76-1.53.24zm-1.64-.94 1.33-.21-.66-2.43-.66 2.64Zm7.22-.35c0-.29-.07-.5-.22-.62s-.42-.24-.81-.33c-.71-.16-1.23-.39-1.54-.71-.31-.31-.47-.72-.47-1.21 0-.6.21-1.11.64-1.54.42-.43.96-.7 1.62-.8q.66-.105 1.17.09c.34.13.6.35.79.65.18.31.28.67.28 1.1l-1.43.23c0-.33-.07-.57-.21-.73-.14-.15-.35-.21-.61-.16-.25.04-.45.14-.59.31q-.21.255-.21.63c0 .2.08.36.23.49.16.13.43.25.83.36.69.14 1.2.37 1.51.68s.47.75.47 1.32c0 .62-.2 1.13-.59 1.54s-.93.67-1.61.78c-.46.07-.88.04-1.25-.08-.38-.13-.67-.35-.89-.67-.21-.32-.32-.72-.32-1.19l1.44-.23c0 .41.08.7.24.86q.24.24.78.15c.5-.08.75-.38.75-.92m5.4-.86c0-.29-.07-.5-.22-.62s-.42-.24-.81-.33c-.71-.16-1.23-.39-1.54-.71s-.47-.72-.47-1.21c0-.6.21-1.11.64-1.54.42-.43.96-.7 1.62-.8q.66-.105 1.17.09c.34.13.61.35.79.66s.28.67.28 1.1l-1.43.23c0-.33-.07-.57-.21-.73-.14-.15-.35-.21-.61-.16-.25.04-.45.14-.59.31q-.21.255-.21.63c0 .2.08.36.23.49.16.13.43.25.83.36.69.14 1.2.37 1.51.68s.47.75.47 1.32c0 .62-.2 1.13-.59 1.54s-.93.67-1.61.78c-.46.07-.88.04-1.25-.08-.38-.13-.67-.35-.89-.67-.21-.32-.32-.72-.32-1.19l1.44-.23c0 .41.08.7.24.86q.24.24.78.15c.5-.08.75-.38.75-.92Zm3.9 1.25-1.44.23v-7.11l1.44-.23zm6.18-.98-1.44.23-2.1-4.33v4.66l-1.43.23v-7.11l1.43-.23 2.1 4.33V37.6l1.43-.23v7.11Zm4.15-2.52c0-.29-.07-.5-.22-.62s-.42-.24-.81-.33c-.71-.16-1.23-.39-1.54-.71-.31-.31-.47-.72-.47-1.21 0-.6.21-1.11.64-1.54.42-.43.96-.7 1.62-.8q.66-.105 1.17.09c.51.195.6.35.79.65.18.31.28.67.28 1.1l-1.43.23c0-.33-.07-.57-.21-.73-.14-.15-.35-.21-.61-.16-.25.04-.45.14-.59.31q-.21.255-.21.63c0 .2.08.36.23.49.16.13.43.25.83.36.69.14 1.2.37 1.51.68s.47.75.47 1.32c0 .62-.2 1.13-.59 1.54s-.93.67-1.61.78c-.46.07-.88.04-1.25-.08s-.67-.35-.89-.67c-.21-.32-.32-.72-.32-1.2l1.44-.23c0 .41.08.7.24.86q.24.24.78.15c.5-.08.75-.38.75-.92Z" style="stroke-width:0"/></svg>