<svg xmlns="http://www.w3.org/2000/svg" id="SD23" viewBox="0 0 54.5 72.5"><defs><clipPath id="clippath"><circle cx="43.54" cy="63.59" r="1.36" class="cls-4"/></clipPath><style>.cls-4{fill:#fff}.cls-4,.cls-6{stroke-width:0}</style></defs><path d="M-.04 0h54.5v72.5H-.04z" style="stroke-width:0;fill:#e2e29a"/><path d="m10.27 60.34-7.05 1.78v7.04h7.05z" style="stroke:#000;stroke-miterlimit:10;fill:none;stroke-width:.25px"/><path d="M3.22 68.26h7.04v.9H3.22zm1.13-2.08v-.62h.32v-.31h.32v-.31h.63v-.31h.32v-.31h-.95v.31h-.63v-.31h.32v-.31h1.58v.31h.32v.62h-.32v.31h-.32v.31h-.63v.31h1.27v.31H4.37Zm2.85 0v-.31h-.32v-.31h.63v.31h.95v-.62h-.95v-.31h.32v-.31h.32v-.31H7.2v-.31h1.9v.31h-.32v.31h-.32v.31h.32v.31h.32v.62h-.32v.31z" class="cls-6"/><path d="m48.05 68.05-1.32-.57-.02 1.44-1.12-.91-.41 1.39-.83-1.18-.77 1.22-.48-1.36-1.07.97-.1-1.44-1.29.65.29-1.41-1.41.27.66-1.28-1.44-.12.98-1.05-1.35-.5 1.23-.75-1.16-.85 1.38-.39-.89-1.13h1.44l-.56-1.33 1.39.38-.18-1.43 1.24.75.21-1.43.99 1.06.59-1.32.67 1.28.92-1.11.3 1.41 1.19-.81-.1 1.44 1.36-.47-.48 1.36 1.44-.08-.83 1.18 1.41.31-1.12.92 1.28.68-1.33.57 1.04 1-1.42.2.73 1.24-1.43-.19z" style="stroke-width:0;fill:#e4b523"/><path d="M43.54 66.31v-.98a1.8 1.8 0 0 0 1.26-.51c.16-.16.3-.36.39-.57s.14-.44.14-.67-.05-.46-.14-.67-.22-.41-.39-.57a1.77 1.77 0 0 0-1.26-.51v-.98c.72 0 1.42.29 1.93.8a2.724 2.724 0 0 1 0 3.86c-.51.51-1.2.8-1.93.8" class="cls-4"/><circle cx="43.54" cy="63.59" r="1.36" style="fill:#fff"/><path d="M43.54 64.95c.75 0 1.36-.61 1.36-1.36s-.61-1.36-1.36-1.36-1.36.61-1.36 1.36.61 1.36 1.36 1.36" class="cls-4" style="clip-path:url(#clippath)"/><path d="M46.35 62.17h-.1v-.06h.26v.06h-.1v.26h-.07v-.26m.56-.05v.32h-.06v-.2l-.09.19h-.04l-.09-.19v.2h-.06v-.32h.06l.11.23.1-.23z" class="cls-4"/><path d="M50.83 34.13 3.6 41.73V4.89h47.23z" style="fill:#fff;stroke:#000;stroke-miterlimit:10"/><path d="M23.23 8.51c-3.02.4-2.69 3.68-2.68 4.74l5.87.85c.06-2.23.35-3.74.85-4.77.14-.28.29-.53.47-.74l-4.5-.08Zm6.69.15c-.07 0-.15 0-.22.01-.56.06-.99.26-1.42 1.14-.42.88-.74 2.46-.76 5.04v.37l-.34.14c-3.13 1.32-5.13 2.49-6.26 3.46s-1.34 1.64-1.22 2.13c.11.49.67 1.02 1.58 1.47.91.44 2.12.78 3.31.98l.71.12-5.19 12.04 7.51-2.01 3.2-7.03 3.19 5.4 7.09-1.93-5.43-8.89.67-.23c.94-.32 2.01-.79 2.85-1.34.85-.55 1.45-1.18 1.59-1.66.07-.24.06-.44-.06-.7-.13-.26-.4-.57-.89-.91-.99-.67-2.85-1.4-5.84-2.05l-.42-.09-.02-.43c-.05-.82-.41-2.24-1.08-3.33-.59-.96-1.32-1.63-2.31-1.7h-.22Zm-10.67 5.46c-4.96 2.79-5.36 3.42-5.42 4.47-.14 2.52 2.66 2.92 5.61 3.75-.38-.36-.72-.63-.83-1.13-.24-1.02.3-2.13 1.58-3.24 1.07-.92 2.7-1.9 5.06-2.98l-5.99-.88Zm-2.2 8.9c-1.4 3.02-2.39 6.44-3.7 9.62l5.48 2.71 1.11-2.24 3.57-8.28zm13.89 5.93-.98 2.17 2.72.77z" class="cls-6"/><path d="M3.51 49.39v-5.54l1.71-.27q.87-.135 1.32.18c.3.21.45.56.45 1.06 0 .28-.06.53-.19.76s-.29.4-.51.53c.25.03.44.14.57.34.13.19.2.45.2.76 0 .54-.15.97-.44 1.29-.3.32-.72.53-1.29.61l-1.84.29Zm1.12-3.4.58-.09c.44-.07.66-.33.66-.79 0-.25-.05-.42-.15-.52-.1-.09-.27-.12-.5-.09l-.59.09v1.39Zm0 .81v1.48l.72-.11c.2-.03.35-.12.46-.26.1-.14.16-.33.16-.55 0-.5-.18-.72-.54-.68l-.79.12Zm7.16-1c0 .74-.18 1.35-.53 1.82s-.84.75-1.46.85-1.11-.03-1.47-.38-.54-.89-.54-1.63v-.95c0-.76.18-1.38.53-1.87s.84-.78 1.47-.88c.62-.1 1.1.04 1.46.4s.54.92.54 1.68v.95Zm-1.12-.75q0-.75-.21-1.08c-.14-.22-.36-.31-.66-.26s-.52.2-.66.46-.22.63-.22 1.11v.99c0 .48.07.83.22 1.04s.37.29.67.24c.29-.05.51-.19.65-.44s.21-.61.22-1.08v-.96Zm4.49 1.36-1.53.24-.3 1.18-1.18.19 1.73-5.82 1.02-.16 1.74 5.27-1.2.19-.3-1.09Zm-1.28-.73 1.04-.16-.52-1.89-.52 2.06Zm4.97-.75-.56.09v2.03l-1.12.18v-5.54l1.79-.28c.56-.09.99-.01 1.3.23s.46.63.46 1.17c0 .74-.27 1.29-.8 1.67l.97 2.12v.05l-1.2.19-.83-1.89Zm-.56-.84.64-.1c.22-.04.39-.14.5-.3s.17-.37.17-.62c0-.56-.22-.8-.65-.73l-.65.1v1.65Zm3.2 2.45V41l1.47-.23c.65-.1 1.16.02 1.55.37.38.35.58.88.59 1.6v.9c0 .73-.19 1.33-.58 1.81-.38.48-.91.77-1.59.88l-1.44.23Zm1.12-4.79v3.68l.33-.05c.37-.06.64-.2.79-.42s.23-.57.24-1.06v-.96c0-.52-.07-.87-.22-1.05-.14-.18-.39-.25-.74-.21l-.41.06Zm8.85 2.58c-.22.27-.48.49-.79.65s-.66.28-1.03.34c-.64.1-1.13-.02-1.49-.36-.35-.34-.53-.88-.54-1.64v-1c0-.76.17-1.38.5-1.84s.82-.75 1.46-.85c.6-.09 1.06-.02 1.36.23.31.25.48.69.53 1.31l-1.09.17c-.03-.35-.1-.58-.22-.69s-.3-.15-.55-.11c-.3.05-.52.19-.66.44s-.21.61-.21 1.09v1c0 .51.08.86.23 1.07s.4.28.74.23c.22-.04.4-.11.54-.22l.1-.08v-1.02l-.79.12v-.84l1.91-.3v2.29Zm3.44-1.05-1.53.24-.3 1.18-1.18.19 1.73-5.82 1.02-.16 1.75 5.27-1.2.19-.3-1.09Zm-1.28-.73 1.04-.16-.52-1.89-.52 2.06Zm4.76-4.23 1.05 3.84 1.04-4.17 1.46-.23v5.54l-1.12.18v-1.5l.1-2.33-1.11 3.99-.76.12-1.11-3.64.1 2.3v1.5l-1.12.18v-5.54l1.46-.23Zm7.31 1.99-1.74.28v1.47l2.06-.33v.93l-3.18.5v-5.54l3.18-.5v.93l-2.06.33v1.31l1.74-.28zm3.31.42c0-.23-.06-.39-.17-.48-.12-.1-.33-.18-.63-.26-.56-.12-.96-.31-1.2-.55s-.37-.56-.37-.95c0-.47.17-.87.5-1.21.33-.33.75-.54 1.26-.62.34-.05.64-.03.91.07s.47.27.62.51c.14.24.21.52.21.86l-1.12.18c0-.26-.05-.45-.17-.57s-.27-.16-.48-.13a.68.68 0 0 0-.46.25c-.11.13-.16.3-.16.49 0 .15.06.28.18.38s.34.2.65.28c.54.11.93.29 1.18.53.24.25.37.59.37 1.03 0 .48-.15.88-.46 1.2s-.72.52-1.25.61c-.36.06-.68.04-.98-.07-.29-.1-.53-.28-.69-.52-.17-.25-.25-.56-.25-.93l1.12-.18c0 .32.06.54.19.67s.33.17.61.12c.39-.06.59-.3.59-.71" style="stroke-width:0;fill:#c25132"/></svg>