<svg xmlns="http://www.w3.org/2000/svg" id="SD32" viewBox="0 0 54.5 72.5"><defs><clipPath id="clippath"><circle cx="43.58" cy="63.59" r="1.36" class="cls-4"/></clipPath><style>.cls-4{fill:#fff}.cls-4,.cls-6{stroke-width:0}</style></defs><path d="M0 0h54.5v72.5H0z" style="stroke-width:0;fill:#a9a3ba"/><path d="m10.3 60.34-7.04 1.78v7.04h7.04z" style="stroke:#000;stroke-miterlimit:10;fill:none;stroke-width:.25px"/><path d="M3.26 68.26h7.04v.9H3.26zm1.45-2.08v-.31h-.32v-.31h.63v.31h.95v-.62h-.95v-.31h.32v-.31h.32v-.31h-.95v-.31h1.9v.31h-.32v.31h-.32v.31h.32v.31h.32v.62h-.32v.31zm2.21 0v-.62h.32v-.31h.32v-.31h.63v-.31h.32v-.31h-.95v.31h-.63v-.31h.32v-.31h1.58v.31h.32v.62h-.32v.31h-.32v.31h-.63v.31h1.27v.31H6.94Z" class="cls-6"/><path d="m48.09 68.05-1.33-.57-.02 1.44-1.12-.91-.4 1.39-.84-1.18-.76 1.22-.49-1.36-1.06.97-.1-1.44-1.29.65.29-1.41-1.42.27.66-1.28-1.43-.12.98-1.05-1.35-.5 1.23-.75-1.17-.85 1.39-.39-.9-1.13h1.44l-.55-1.33 1.39.38-.18-1.43 1.23.75.22-1.43.98 1.06.6-1.32.66 1.28.93-1.11.29 1.41 1.19-.81-.09 1.44 1.36-.47-.48 1.36 1.44-.08-.83 1.18 1.41.31-1.12.92 1.27.68-1.32.57 1.04 1-1.43.2.73 1.24-1.42-.19z" style="stroke-width:0;fill:#e4b523"/><path d="M43.58 66.31v-.98a1.8 1.8 0 0 0 1.26-.51c.16-.16.3-.36.39-.57s.14-.44.14-.67-.05-.46-.14-.67-.22-.41-.39-.57a1.77 1.77 0 0 0-1.26-.51v-.98c.72 0 1.42.29 1.93.8a2.724 2.724 0 0 1 0 3.86c-.51.51-1.2.8-1.93.8" class="cls-4"/><circle cx="43.58" cy="63.59" r="1.36" style="fill:#fff"/><path d="M43.58 64.95c.75 0 1.36-.61 1.36-1.36s-.61-1.36-1.36-1.36-1.36.61-1.36 1.36.61 1.36 1.36 1.36" class="cls-4" style="clip-path:url(#clippath)"/><path d="M46.39 62.17h-.1v-.06h.26v.06h-.1v.26h-.07v-.26m.56-.05v.32h-.06v-.2l-.09.19h-.04l-.09-.19v.2h-.06v-.32h.06l.11.23.1-.23z" class="cls-4"/><path d="m50.87 34.13-47.24 7.6V4.89h47.24z" style="fill:#fff;stroke:#000;stroke-miterlimit:10"/><path d="M7.95 47.46c-.03.73-.24 1.32-.62 1.75-.38.44-.91.71-1.6.82-.72.11-1.28-.04-1.66-.45s-.58-1.06-.58-1.95v-1.08q0-1.32.6-2.13c.4-.54.95-.86 1.66-.98q1.05-.165 1.59.33c.36.33.57.86.62 1.58l-1.3.21q-.015-.675-.21-.9c-.13-.15-.36-.2-.7-.15-.35.05-.59.21-.73.48-.14.26-.22.67-.23 1.23v1.21c0 .64.07 1.06.21 1.28.14.21.39.29.73.24s.57-.17.7-.36.2-.5.22-.93l1.29-.21Zm3.85.21-1.76.28-.34 1.36-1.37.22 2-6.71 1.18-.19 2.01 6.08-1.38.22zm-1.48-.84 1.2-.19-.6-2.19zm5.74-.86-.64.1v2.34l-1.29.2v-6.4l2.06-.33c.65-.1 1.15-.01 1.5.26.35.28.53.73.53 1.35 0 .85-.31 1.49-.93 1.93l1.12 2.44v.06l-1.39.22-.96-2.19Zm-.64-.97.73-.12c.26-.04.45-.16.58-.35s.19-.43.19-.72q0-.96-.75-.84l-.76.12V45Zm3.68 2.83v-6.4l1.69-.27c.75-.12 1.34.02 1.79.43.44.4.67 1.02.68 1.84v1.04c0 .84-.22 1.54-.67 2.08-.44.55-1.06.89-1.83 1.01l-1.66.26Zm1.3-5.53v4.25l.39-.06c.43-.07.73-.23.91-.48s.27-.66.28-1.22v-1.11c0-.6-.08-1-.25-1.21s-.45-.29-.85-.24l-.47.07ZM7.96 56.86c-.25.31-.55.56-.92.75-.36.19-.76.32-1.19.39-.73.12-1.31-.02-1.71-.41q-.615-.585-.63-1.89v-1.15c0-.88.19-1.59.58-2.13s.95-.86 1.69-.98c.69-.11 1.22-.02 1.57.26.35.29.56.79.61 1.52l-1.26.2c-.04-.4-.12-.67-.25-.79q-.21-.195-.63-.12c-.35.06-.6.22-.76.5s-.24.7-.25 1.26v1.16c0 .58.09.99.26 1.23s.46.32.86.26c.26-.04.46-.12.62-.25l.11-.1V55.4l-.9.14v-.98l2.2-.35v2.64Zm3.97-1.21-1.76.28-.34 1.36-1.37.22 2-6.72 1.18-.19 2.01 6.08-1.38.22zm-1.48-.84 1.2-.19-.6-2.19zm5.49-4.88 1.21 4.44 1.2-4.82 1.69-.27v6.4l-1.3.21v-1.73l.12-2.69-1.28 4.6-.88.14-1.28-4.2.12 2.65v1.73l-1.29.2v-6.4l1.69-.27Zm8.44 2.29-2.01.32v1.7l2.38-.38v1.07l-3.67.58v-6.4l3.67-.58v1.08l-2.37.38v1.51l2.01-.32v1.04Zm3.82.49c0-.26-.07-.45-.2-.56s-.38-.21-.73-.3q-.96-.21-1.38-.63c-.42-.42-.42-.65-.42-1.09 0-.54.19-1 .57-1.39s.87-.63 1.46-.72c.39-.06.74-.03 1.05.08.31.12.54.31.71.59s.25.6.25.99l-1.29.2c0-.3-.06-.52-.19-.65-.13-.14-.31-.19-.55-.15-.23.04-.4.13-.53.28s-.19.34-.19.57c0 .18.07.32.21.44s.39.23.75.32c.62.13 1.08.33 1.36.62s.42.68.42 1.18c0 .56-.18 1.02-.53 1.39s-.84.6-1.45.7c-.41.07-.79.04-1.13-.08s-.61-.32-.8-.6-.29-.64-.29-1.08l1.3-.21c0 .37.07.63.22.77.14.14.38.19.7.14.45-.07.68-.35.68-.82Z" style="stroke-width:0;fill:#28305b"/><path d="m35 34.97-6.98-3.24a.93.93 0 0 1-.45-1.23l4.94-10.62a.93.93 0 0 1 1.23-.45l6.98 3.24c.46.21.66.76.45 1.23l-4.94 10.62c-.22.46-.77.66-1.23.45m-16.84-1.16-4.63-10.76c-.2-.47.01-1.01.48-1.21l2.29-.99 2.87 10.77a1.93 1.93 0 0 0 2.36 1.37l2.28-.61-4.44 1.91a.917.917 0 0 1-1.21-.48m1.98-2.45-3.01-11.32c-.13-.49.16-1 .65-1.13l1.99-.53-.24 1.78c-.14 1.06.6 2.03 1.66 2.17l4.67.63-1.9 6.41c-.2.66-.02 1.34.4 1.82l-3.09.82c-.49.13-1-.16-1.13-.66Zm6.35-.28-.94-.28a.92.92 0 0 1-.62-1.15l3.33-11.23c.15-.49.66-.77 1.15-.62l2.87.85c-.3.19-.54.47-.68.79l-4.94 10.62c-.15.31-.21.66-.17 1.01Zm-.33-9.1-4.83-.65a.917.917 0 0 1-.79-1.04L22.1 8.68c.07-.51.53-.86 1.04-.79l7.63 1.03c.5.07.86.53.79 1.04l-.96 7.14-.9-.27c-1.02-.3-2.1.28-2.4 1.3zm-.31-1.84c.27-.18.44-.44.49-.77s-.02-.62-.23-.87c-.21-.26-.49-.42-.86-.48s-.7 0-.98.17c-.28.18-.45.43-.5.75s.02.61.23.88c.21.26.5.43.87.49s.7 0 .97-.17m1.53-4.75c.27-.16.52-.32.74-.48s.4-.33.56-.51q.24-.27.39-.6c.1-.22.18-.47.23-.75.07-.45.06-.84-.04-1.18s-.27-.64-.52-.89c-.24-.25-.54-.45-.9-.61s-.75-.27-1.18-.34c-.45-.07-.9-.09-1.34-.06-.44.04-.86.13-1.25.29l-.35 2.1c.4-.25.81-.42 1.22-.5.41-.09.8-.1 1.17-.04 1.26.24 1.14 1.46.51 1.99-.33.26-.66.52-.93.66-.61.35-1.62 1.35-1.32 2.64l1.83.3c-.42-1.04.68-1.72 1.17-2.02Z" class="cls-6"/></svg>