<svg xmlns="http://www.w3.org/2000/svg" id="SD14-2" data-name="SD14" viewBox="0 0 54.5 72.5"><defs><clipPath id="clippath"><circle cx="43.54" cy="63.59" r="1.36" class="cls-4"/></clipPath><style>.cls-4{fill:#fff;stroke-width:0}</style></defs><path d="M-.04 0h54.5v72.5H-.04z" style="stroke-width:0;fill:#91d1bb"/><path d="m10.27 60.34-7.05 1.78v7.04h7.05z" style="stroke-miterlimit:10;fill:none;stroke:#fff;stroke-width:.25px"/><path d="M3.22 68.26h7.04v.9H3.22zm1.45-2.08v-.31h.63v-1.25h-.32v-.31h.32V64h.63v1.88h.63v.31h-1.9Zm2.53 0v-.31h.95v-.31h.32v-.31H7.2v-.31h-.32v-.62h.32v-.31h1.58v.31h.32v1.25h-.32v.31h-.32v.31H7.19Zm.32-1.25h.95v-.62h-.95z" class="cls-4"/><path d="m48.05 68.05-1.32-.57-.02 1.44-1.12-.91-.41 1.39-.83-1.18-.77 1.22-.48-1.36-1.07.97-.1-1.44-1.29.65.29-1.41-1.41.27.66-1.28-1.44-.12.98-1.05-1.35-.5 1.23-.75-1.16-.85 1.38-.39-.89-1.13h1.44l-.56-1.33 1.39.38-.18-1.43 1.24.75.21-1.43.99 1.06.59-1.32.67 1.28.92-1.11.3 1.41 1.19-.81-.1 1.44 1.36-.47-.48 1.36 1.44-.08-.83 1.18 1.41.31-1.12.92 1.28.68-1.33.57 1.04 1-1.42.2.73 1.24-1.43-.19z" style="stroke-width:0;fill:#e4b523"/><path d="M43.54 66.31v-.98a1.8 1.8 0 0 0 1.26-.51c.16-.16.3-.36.39-.57s.14-.44.14-.67-.05-.46-.14-.67-.22-.41-.39-.57a1.77 1.77 0 0 0-1.26-.51v-.98c.72 0 1.42.29 1.93.8a2.724 2.724 0 0 1 0 3.86c-.51.51-1.2.8-1.93.8" class="cls-4"/><circle cx="43.54" cy="63.59" r="1.36" style="fill:#fff"/><path d="M43.54 64.95c.75 0 1.36-.61 1.36-1.36s-.61-1.36-1.36-1.36-1.36.61-1.36 1.36.61 1.36 1.36 1.36" class="cls-4" style="clip-path:url(#clippath)"/><path d="M46.35 62.17h-.1v-.06h.26v.06h-.1v.26h-.07v-.26m.56-.05v.32h-.06v-.2l-.09.19h-.04l-.09-.19v.2h-.06v-.32h.06l.11.23.1-.23z" class="cls-4"/><path d="M50.83 33.56 3.6 41.16V4.32h47.23z" style="fill:#fff;stroke:#000;stroke-miterlimit:10"/><path d="M36.61 10.74a14.3 14.3 0 0 0-4.05-2.85c.34 1.06.54 2.22.6 3.44.62.25 1.21.63 1.72 1.14s.89 1.1 1.14 1.72c1.23.06 2.38.26 3.44.6-.69-1.46-1.64-2.84-2.85-4.05M31.13 7.3c-4.48-1.55-9.56-.83-13.47 2.16 4.14-.47 8.07.49 11.35 2.45.83-.73 1.91-1.01 2.99-.88-.1-1.38-.39-2.64-.87-3.73m8.92 8.93c-1.09-.48-2.35-.77-3.73-.87.13 1.09-.15 2.17-.88 2.99a18.05 18.05 0 0 1 2.45 11.35c2.99-3.91 3.71-8.99 2.16-13.47m-5.96-2.97c-1.38-1.38-3.37-1.49-4.46-.4s-.98 3.09.4 4.46c1.38 1.38 3.37 1.49 4.46.4s.98-3.09-.4-4.46m-5.8-.49c-3.49-2.03-7.76-2.86-12.21-1.91-3.6 3.68-4.84 8.79-3.72 13.45 4.27-4.09 9.94-7.29 15.39-8.94.02 0 .05-.01.07-.02-.13-.91.02-1.82.47-2.59Zm6.3 6.29c-.77.46-1.68.61-2.59.47 0 .02-.01.05-.02.07-1.64 5.45-4.85 11.12-8.94 15.39 4.67 1.11 9.78-.13 13.45-3.72.95-4.45.12-8.72-1.91-12.21m-6.47-2.62s-.03 0-.04.01c-5.45 1.64-11.2 4.95-15.36 9.09.69 2.05 1.85 3.98 3.48 5.62 1.64 1.64 3.57 2.8 5.62 3.48 4.14-4.16 7.45-9.91 9.09-15.36 0-.01 0-.03.01-.04a5 5 0 0 1-1.68-1.12c-.5-.5-.87-1.08-1.12-1.68" style="stroke-width:0"/><path d="M6.3 45.61c-.02.49-.16.88-.41 1.17s-.61.47-1.07.54q-.72.12-1.11-.3c-.26-.28-.39-.71-.39-1.3V45c0-.59.13-1.06.4-1.42s.63-.58 1.11-.65c.47-.07.82 0 1.06.22s.38.57.41 1.05l-.86.14c0-.3-.05-.5-.14-.6-.08-.1-.24-.13-.47-.1-.23.04-.39.14-.49.32s-.15.45-.15.82v.81c0 .42.05.71.14.85.1.14.26.2.49.16s.38-.12.47-.24.13-.33.15-.62l.86-.14Zm3.52.86-.86.14v-1.83l-1.27.2v1.83l-.86.14v-4.27l.86-.14v1.73l1.27-.2v-1.73l.86-.14zm1.59-.25-.86.14v-4.27l.86-.14zm1.59-.97 1.51-.24v.71l-2.37.38v-4.27l.86-.14v3.55Zm2.87-.45 1.51-.24v.71l-2.37.38v-4.27l.86-.14v3.55Zm3.26-.95c0-.2.05-.39.14-.57q.135-.27.51-.63c-.11-.15-.19-.3-.26-.44-.06-.14-.09-.29-.09-.46 0-.33.09-.62.28-.86s.43-.38.74-.43q.42-.06.69.18t.27.66c0 .37-.16.71-.47 1l-.23.23.55.68c.07-.21.1-.43.1-.67l.7-.11c0 .55-.11 1.01-.32 1.38l.55.68-.94.15-.16-.2q-.375.345-.87.42c-.36.06-.65 0-.86-.19s-.33-.46-.33-.82m1.23.33c.15-.03.3-.1.44-.22l-.67-.85-.02.02q-.15.255-.15.54c0 .17.04.29.12.39s.17.14.29.12Zm-.2-2.56c0 .14.07.3.2.48l.14-.13c.08-.08.14-.15.18-.22s.05-.17.05-.28c0-.1-.03-.18-.08-.24s-.12-.08-.2-.07c-.09.01-.15.06-.21.15-.05.08-.08.19-.08.32Zm-11.7 12.7c-.04.82-.26 1.47-.68 1.95s-1.01.79-1.78.91c-.8.13-1.42-.04-1.85-.5s-.64-1.18-.64-2.16v-1.2c0-.98.22-1.76.66-2.36s1.06-.96 1.85-1.09c.77-.12 1.36 0 1.77.37.4.37.63.96.69 1.76l-1.44.23c-.01-.5-.09-.83-.23-1s-.4-.22-.78-.16-.66.24-.82.53-.24.75-.25 1.37v1.34c0 .71.08 1.18.24 1.42q.24.36.81.27c.38-.06.64-.19.78-.4s.22-.55.24-1.04l1.44-.23Zm4.27.24-1.96.31-.38 1.52-1.52.24 2.22-7.46 1.31-.21 2.24 6.75-1.53.24zm-1.64-.94 1.33-.21-.66-2.43-.66 2.64Zm7.22-.36c0-.29-.07-.5-.22-.62s-.42-.24-.81-.33c-.71-.16-1.23-.39-1.54-.71-.31-.31-.47-.72-.47-1.21 0-.6.21-1.11.64-1.54.42-.43.96-.7 1.62-.8q.66-.105 1.17.09c.34.13.6.35.79.65.18.31.28.67.28 1.1l-1.43.23c0-.33-.07-.57-.21-.73-.14-.15-.35-.21-.61-.16-.25.04-.45.15-.59.31q-.21.255-.21.63c0 .2.08.36.23.49s.43.25.83.36c.69.14 1.2.37 1.51.68s.47.75.47 1.32c0 .62-.2 1.13-.59 1.54s-.93.67-1.61.78c-.46.07-.88.04-1.25-.08-.38-.13-.67-.35-.89-.67-.21-.32-.32-.72-.32-1.19l1.44-.23c0 .41.08.7.24.86s.42.21.78.15c.5-.08.75-.38.75-.91Zm7.02-6.35v4.92c0 .74-.21 1.34-.61 1.79-.4.46-.98.74-1.72.86-.76.12-1.34.01-1.75-.32-.4-.33-.6-.88-.6-1.63v-4.89l1.45-.23v4.89c0 .4.06.68.2.83.13.15.37.2.71.15s.58-.18.7-.37c.13-.19.19-.48.2-.87v-4.92l1.44-.23Zm4.38 4.96-1.96.31-.38 1.51-1.52.24 2.22-7.46 1.31-.21 2.24 6.76-1.53.24zm-1.65-.94 1.33-.21-.66-2.43-.66 2.64Zm5.66.56 2.52-.4v1.19l-3.96.63V45.8l1.44-.23z" style="stroke-width:0;fill:#231f20"/></svg>