<svg xmlns="http://www.w3.org/2000/svg" id="SD9" viewBox="0 0 54.5 72.5"><defs><clipPath id="clippath"><circle cx="43.54" cy="63.59" r="1.36" class="cls-5"/></clipPath><clipPath id="clippath-1"><path d="M50.83 34.13 3.6 41.73V4.89h47.23z" style="stroke-width:0;fill:none"/></clipPath><style>.cls-5{stroke-width:0;fill:#fff}</style></defs><path d="M0 0h54.5v72.5H0z" style="stroke-width:0;fill:#a0509f"/><path d="m10.27 60.34-7.05 1.78v7.04h7.05z" style="fill:none;stroke-miterlimit:10;stroke:#fff;stroke-width:.25px"/><path d="M3.22 68.26h7.04v.9H3.22zm2.15-1.59v-.5h1.52v-.5h.51v-.5H5.38v-.5h-.51v-1h.51v-.5h2.53v.5h.51v2h-.51v.5H7.4v.5H5.38Zm.5-2h1.52v-1H5.87z" class="cls-5"/><path d="m48.05 68.05-1.32-.57-.02 1.44-1.12-.91-.41 1.39-.83-1.18-.77 1.22-.48-1.36-1.07.97-.1-1.44-1.29.65.29-1.41-1.41.27.66-1.28-1.44-.12.98-1.05-1.35-.5 1.23-.75-1.16-.85 1.38-.39-.89-1.13h1.44l-.56-1.33 1.39.38-.18-1.43 1.24.75.21-1.43.99 1.06.59-1.32.67 1.28.92-1.11.3 1.41 1.19-.81-.1 1.44 1.36-.47-.48 1.36 1.44-.08-.83 1.18 1.41.31-1.12.92 1.28.68-1.33.57 1.04 1-1.42.2.73 1.24-1.43-.19z" style="stroke-width:0;fill:#e4b523"/><path d="M43.54 66.31v-.98a1.8 1.8 0 0 0 1.26-.51c.16-.16.3-.36.39-.57s.14-.44.14-.67-.05-.46-.14-.67-.22-.41-.39-.57a1.77 1.77 0 0 0-1.26-.51v-.98c.72 0 1.42.29 1.93.8a2.724 2.724 0 0 1 0 3.86c-.51.51-1.2.8-1.93.8" class="cls-5"/><circle cx="43.54" cy="63.59" r="1.36" style="fill:#fff"/><path d="M43.54 64.95c.75 0 1.36-.61 1.36-1.36s-.61-1.36-1.36-1.36-1.36.61-1.36 1.36.61 1.36 1.36 1.36" class="cls-5" style="clip-path:url(#clippath)"/><path d="M46.35 62.17h-.1v-.06h.26v.06h-.1v.26h-.07v-.26m.56-.05v.32h-.06v-.2l-.09.19h-.04l-.09-.19v.2h-.06v-.32h.06l.11.23.1-.23z" class="cls-5"/><path d="M50.83 34.13 3.6 41.73V4.89h47.23z" style="fill:#fff;stroke:#000;stroke-miterlimit:10"/><g style="clip-path:url(#clippath-1)"><path d="M24.14 6.95c-.95-.02-1.73 2.09-.77 2.49l.56.23 1.11-.97-.11-1.47-.54-.23a.7.7 0 0 0-.2-.05h-.04Zm8.4.5h-.14c-.46.02-.96.13-1.46.36-1.33.6-2.73 2.04-3.73 4.73l-6.43 17.4v.03c.06.03.23.12.5.25.61.3 1.5.98 1.63 2.42v.03l-.06 6.48h6.04c0-1.1.09-5.16.51-6.22.73-1.84 2.46-3.43 6.06-4.81v-.02c.02-.12.02-.38 0-.69-.06-.63-.25-1.56-.54-2.64-.58-2.17-1.55-5.01-2.65-7.81l-.15-.39.33-.26c2.26-1.76 3.19-3.53 3.36-4.97s-.41-2.59-1.33-3.27c-.54-.39-1.21-.62-1.93-.63Zm-6.38 1.1.04.63-.48.41 1.36.56c.08-.14.16-.27.24-.4l.25-.62zm4.31 1.16c.55 0 1 .45 1 1s-.45 1-1 1-1-.45-1-1 .45-1 1-1m-8.54 3.1c-.95-.02-1.74 2.09-.77 2.49l.55.23 1.11-.97-.11-1.47-.55-.22a.5.5 0 0 0-.19-.04h-.04Zm2.01 1.6.04.62-.48.41 1.24.51.39-1.05-1.2-.49Zm4.47 1.23c.55 0 1 .45 1 1s-.45 1-1 1-1-.45-1-1 .45-1 1-1m-8.73 3.17c-.96-.02-1.74 2.09-.77 2.49l.56.23 1.11-.97-.11-1.48-.54-.23c-.07-.02-.13-.04-.19-.04h-.04Zm2.01 1.59.04.62-.48.41 1.27.52.39-1.05-1.23-.51Zm4.2 1.21c.55 0 1 .45 1 1s-.45 1-1 1-1-.45-1-1 .45-1 1-1m-8.76 3.4c-.95-.02-1.74 2.09-.77 2.49l.55.23 1.11-.97-.11-1.48-.54-.23c-.07-.02-.13-.04-.19-.04h-.04Zm2.02 1.59.04.62-.48.41 1.43.58.43-1.04-1.42-.58Zm4.33 1.16c.55 0 1 .45 1 1s-.45 1-1 1-1-.45-1-1 .45-1 1-1" style="stroke-width:0"/></g><path d="M7.92 47.46c-.03.73-.24 1.32-.62 1.75-.38.44-.91.71-1.6.82-.72.11-1.28-.04-1.66-.45-.38-.42-.58-1.06-.58-1.95v-1.08q0-1.32.6-2.13c.4-.54.95-.86 1.66-.98q1.05-.165 1.59.33c.36.33.57.86.62 1.58l-1.3.21q-.015-.675-.21-.9c-.13-.15-.36-.2-.7-.15-.35.05-.59.21-.73.48s-.22.67-.23 1.23v1.21c0 .64.07 1.06.21 1.28.14.21.39.29.73.24s.58-.17.7-.36c.13-.19.2-.5.22-.93l1.29-.2Zm2.08.73 2.27-.36v1.07l-3.56.56v-6.4l1.29-.2zm7.24-2.7c0 .86-.2 1.56-.61 2.1s-.97.87-1.69.98-1.28-.03-1.69-.44-.62-1.03-.62-1.88v-1.09c0-.88.2-1.6.61-2.16s.97-.89 1.7-1.01c.71-.11 1.27.04 1.68.46s.62 1.07.62 1.94v1.09Zm-1.3-.87c0-.58-.08-.99-.25-1.25s-.42-.36-.76-.3c-.34.05-.6.23-.76.53s-.25.72-.26 1.28v1.14c0 .56.08.96.25 1.2s.42.33.77.28q.51-.075.75-.51c.16-.28.25-.7.25-1.25v-1.11Zm6.7 2.64-1.29.21-1.89-3.9v4.2l-1.29.21v-6.4l1.29-.21 1.89 3.9v-4.2l1.29-.2v6.4Zm4.34-3.46-2.01.32v1.7l2.38-.38v1.07l-3.67.58v-6.4l3.67-.58v1.08l-2.37.38v1.51l2.01-.32v1.04Zm7.68 1.56-1.29.2v-2.74l-1.91.3v2.74l-1.29.2v-6.4l1.29-.2v2.59l1.91-.3v-2.59l1.29-.2zM39 41.9l-2.01.32v1.7l2.38-.38v1.07l-3.67.58v-6.4l3.67-.58v1.08l-2.37.38v1.51l2.01-.32v1.04Zm3.05-.05-.64.1v2.34l-1.29.2v-6.4l2.06-.33q.975-.15 1.5.27c.35.28.53.73.53 1.35 0 .85-.31 1.49-.93 1.93l1.12 2.44v.06l-1.39.22-.96-2.19Zm-.64-.98.73-.12c.26-.04.45-.16.58-.35s.19-.43.19-.72q0-.96-.75-.84l-.76.12v1.91Zm8.19-.5c0 .86-.2 1.56-.61 2.1s-.97.87-1.69.98-1.28-.03-1.69-.44-.62-1.03-.62-1.88v-1.09c0-.88.2-1.6.61-2.16s.97-.89 1.7-1.01c.71-.11 1.27.04 1.68.46s.62 1.07.62 1.94v1.09Zm-1.3-.87c0-.58-.08-.99-.25-1.25s-.42-.36-.76-.3c-.34.05-.6.23-.76.53s-.25.72-.26 1.28v1.14c0 .56.08.96.25 1.2s.42.33.77.28q.51-.075.75-.51c.16-.28.25-.7.25-1.25v-1.11Z" class="cls-5"/></svg>