<svg xmlns="http://www.w3.org/2000/svg" id="SD26" viewBox="0 0 54.5 72.5"><defs><clipPath id="clippath"><circle cx="43.54" cy="63.59" r="1.36" class="cls-4"/></clipPath><style>.cls-4{fill:#fff;stroke-width:0}</style></defs><path d="M-.04 0h54.5v72.5H-.04z" style="stroke-width:0;fill:#351111"/><path d="m10.27 60.34-7.05 1.78v7.04h7.05z" style="stroke-miterlimit:10;fill:none;stroke:#fff;stroke-width:.25px"/><path d="M3.22 68.26h7.04v.9H3.22zm1.13-2.08v-.62h.32v-.31h.32v-.31h.63v-.31h.32v-.31h-.95v.31h-.63v-.31h.32v-.31h1.58v.31h.32v.62h-.32v.31h-.32v.31h-.63v.31h1.27v.31H4.37Zm2.85 0v-.31h-.32v-1.25h.32v-.31h.32V64h1.27v.31h-.95v.31h-.32v.31h1.27v.31h.32v.62h-.32v.31H7.21Zm.32-.31h.95v-.62h-.95z" class="cls-4"/><path d="m48.05 68.05-1.32-.57-.02 1.44-1.12-.91-.41 1.39-.83-1.18-.77 1.22-.48-1.36-1.07.97-.1-1.44-1.29.65.29-1.41-1.41.27.66-1.28-1.44-.12.98-1.05-1.35-.5 1.23-.75-1.16-.85 1.38-.39-.89-1.13h1.44l-.56-1.33 1.39.38-.18-1.43 1.24.75.21-1.43.99 1.06.59-1.32.67 1.28.92-1.11.3 1.41 1.19-.81-.1 1.44 1.36-.47-.48 1.36 1.44-.08-.83 1.18 1.41.31-1.12.92 1.28.68-1.33.57 1.04 1-1.42.2.73 1.24-1.43-.19z" style="stroke-width:0;fill:#e4b523"/><path d="M43.54 66.31v-.98a1.8 1.8 0 0 0 1.26-.51c.16-.16.3-.36.39-.57s.14-.44.14-.67-.05-.46-.14-.67-.22-.41-.39-.57a1.77 1.77 0 0 0-1.26-.51v-.98c.72 0 1.42.29 1.93.8a2.724 2.724 0 0 1 0 3.86c-.51.51-1.2.8-1.93.8" class="cls-4"/><circle cx="43.54" cy="63.59" r="1.36" style="fill:#fff"/><path d="M43.54 64.95c.75 0 1.36-.61 1.36-1.36s-.61-1.36-1.36-1.36-1.36.61-1.36 1.36.61 1.36 1.36 1.36" class="cls-4" style="clip-path:url(#clippath)"/><path d="M46.35 62.17h-.1v-.06h.26v.06h-.1v.26h-.07v-.26m.56-.05v.32h-.06v-.2l-.09.19h-.04l-.09-.19v.2h-.06v-.32h.06l.11.23.1-.23z" class="cls-4"/><path d="M50.83 34.13 3.6 41.73V4.89h47.23z" style="fill:#fff;stroke:#000;stroke-miterlimit:10"/><path d="M23.51 6.37c-.47 1-1.08 2.46-1.61 3.93-.25.7-.48 1.4-.66 2.05 5.05 1.62 6.95 1.62 12 0-.18-.64-.41-1.35-.66-2.05-.52-1.47-1.14-2.92-1.61-3.93-1.66.83-2.66 1.3-3.74 1.3s-2.08-.48-3.74-1.3m-10.22 6.52h-.31c-.11 0-.17 0-.23.02l-.03.03c-.32.43-.43.79-.43 1.11s.12.64.38.99c.53.69 1.67 1.43 3.18 2.03 3.02 1.21 7.48 1.96 11.42 1.96s8.39-.75 11.42-1.96c1.51-.6 2.65-1.34 3.18-2.03.26-.35.38-.68.38-.99s-.11-.69-.43-1.11l-.02-.03a3.7 3.7 0 0 0-.71-.01c-.74.04-1.86.2-3.24.39-.92.12-1.97.27-3.09.4.05.33.08.64.08.92v.3l-.25.17c-1.69 1.12-4.49 1.59-7.31 1.59s-5.62-.47-7.31-1.59l-.25-.17v-.3c0-.28.03-.59.08-.92-1.12-.13-2.17-.27-3.09-.4-1.38-.19-2.5-.34-3.24-.39-.06 0-.11-.01-.17 0m7.7.53c-.07.32-.12.61-.14.86 1.38.78 3.9 1.26 6.42 1.26s5.04-.48 6.42-1.26c-.02-.24-.08-.53-.14-.86-5.08 1.62-7.47 1.62-12.55 0m-1.18 7.36c.01.88.12 1.71.31 2.51.91-.02 1.87-.24 2.81-.6.51-.2 1.01-.44 1.49-.7-.38.06-.77.1-1.17.1-.92 0-2.26-.63-3.44-1.31m14.88 0c-1.18.68-2.52 1.31-3.44 1.31-.39 0-.79-.04-1.17-.1.48.26.98.5 1.49.7.94.36 1.89.58 2.81.6.19-.8.29-1.64.31-2.51m-7.01.96c.11 1.51 1.31 2.59 2.81 3.66-2.26-.34-3.71-1.3-4.28-3.2-.86.61-1.84 1.14-2.89 1.55-1.2.46-2.48.73-3.72.66.52.67.98 1.28 1.4 1.86 1.57 1.2 2.86 2.3 6.42 2.84-1.5.23-3.2.39-4.53-.06 1 1.61 1.76 4.1 2.71 5.99h3.31c.49-.99.94-2.87 1.39-3.71-1.04.85-2.16 1.04-2.99.95 2.13-.91 3.34-2.34 4.62-3.73.77-1.21 1.71-2.52 2.97-4.14-1.24.07-2.52-.2-3.73-.66-1.31-.51-2.52-1.23-3.49-2.01m13.69 1.12c-.34 0-.73.04-1.16.11-.98.16-2.16.48-3.46.89l-.06.08c-.76.96-1.42 1.8-1.99 2.57.96.59 1.56 1.27 2.19 1.93-.91-.36-1.71-.73-2.84-1.04-.32.45-.61.88-.88 1.28.6.23 1.24.42 1.92.58 1.68.41 3.5.63 5.09 1.04-1.12-1.7-2.71-3.45-4.64-4.81 1.26-.26 2.54-.54 3.67-.93 1.24-.43 2.24-.99 2.83-1.66-.11-.01-.21-.03-.34-.04z" style="stroke-width:0"/><path d="M8.99 48.32c-.04.9-.29 1.61-.75 2.14s-1.11.86-1.96 1c-.88.14-1.56-.04-2.03-.55s-.71-1.3-.71-2.38v-1.32c0-1.07.24-1.94.73-2.6s1.16-1.06 2.03-1.19c.85-.13 1.5 0 1.94.41s.69 1.05.75 1.93l-1.58.25c-.01-.55-.1-.92-.25-1.1-.16-.18-.44-.24-.86-.18-.42.07-.72.26-.9.59-.18.32-.27.82-.28 1.5v1.48c0 .78.09 1.3.26 1.56s.47.36.89.29.7-.21.86-.44q.24-.345.27-1.14l1.58-.25Zm6.48-1.63c0 1.05-.25 1.9-.74 2.56-.5.66-1.18 1.06-2.07 1.2q-1.32.21-2.07-.54c-.5-.5-.75-1.26-.76-2.29v-1.34c0-1.07.25-1.95.75-2.63q.75-1.02 2.07-1.23c.87-.14 1.56.05 2.06.56s.76 1.3.76 2.37zm-1.58-1.06c0-.71-.1-1.21-.3-1.53-.2-.31-.51-.43-.93-.37-.42.07-.73.28-.93.64s-.3.88-.31 1.56v1.39c0 .68.1 1.17.31 1.46s.52.4.95.34c.41-.07.72-.27.92-.62s.3-.86.31-1.52v-1.36Zm7.8.37.74-5.03 1.56-.25-1.39 8.04-1.58.25-.91-4.46-.9 4.75-1.59.25-1.4-7.6 1.57-.25.74 4.79.92-5.05 1.33-.21.92 4.77Zm3.15 2.41v-7.82l2.42-.38c.82-.13 1.44-.05 1.86.25s.64.8.64 1.5c0 .4-.09.75-.26 1.07-.18.31-.42.56-.72.74q.525.06.81.48c.285.42.28.63.28 1.08 0 .76-.21 1.36-.62 1.82s-1.02.74-1.81.87l-2.59.41Zm1.58-4.8.82-.13q.93-.15.93-1.11c0-.35-.07-.6-.21-.73s-.38-.17-.7-.12l-.84.13zm0 1.15v2.09l1.01-.16c.28-.04.5-.17.65-.37s.22-.46.22-.78c0-.7-.25-1.02-.76-.96l-1.11.18Zm10.1-1.41c0 1.05-.25 1.9-.74 2.56-.5.66-1.18 1.06-2.07 1.2q-1.32.21-2.07-.54c-.5-.5-.76-1.26-.76-2.29v-1.34c0-1.07.25-1.95.75-2.63q.75-1.02 2.07-1.23c.87-.14 1.56.05 2.06.56s.76 1.3.76 2.37zm-1.58-1.06c0-.71-.1-1.21-.3-1.53-.2-.31-.51-.43-.93-.37-.42.07-.73.28-.93.64s-.3.88-.31 1.56v1.39c0 .68.1 1.17.31 1.46.2.29.52.4.95.34.41-.07.72-.27.92-.62s.3-.86.31-1.52v-1.36Zm4.84-.55 1.18-3.7 1.72-.27-2.09 5.32v2.84l-1.6.25v-2.84l-2.1-4.65 1.72-.27 1.18 3.33Zm6.83 1.17c0-.32-.08-.55-.24-.68s-.46-.26-.89-.37c-.78-.17-1.35-.43-1.69-.78s-.52-.79-.52-1.33c0-.66.23-1.22.7-1.7.47-.47 1.06-.77 1.78-.88.48-.08.91-.04 1.28.1s.67.38.87.72.3.74.3 1.21l-1.57.25c0-.37-.08-.63-.23-.8-.16-.17-.38-.23-.67-.18a.95.95 0 0 0-.64.35c-.15.19-.23.42-.23.69 0 .21.09.39.26.54s.48.28.91.4c.76.15 1.32.41 1.66.75s.52.83.52 1.45c0 .68-.22 1.25-.65 1.7s-1.02.74-1.77.85q-.75.12-1.38-.09a1.8 1.8 0 0 1-.97-.74c-.24-.35-.35-.79-.35-1.31l1.58-.25c0 .45.09.76.26.94.18.18.46.23.86.17.55-.09.83-.42.83-1.01Z" style="stroke-width:0;fill:#af8f5a"/></svg>