<svg xmlns="http://www.w3.org/2000/svg" id="SD22" viewBox="0 0 54.5 72.5"><defs><clipPath id="clippath"><circle cx="43.54" cy="63.59" r="1.36" class="cls-4"/></clipPath><style>.cls-4{fill:#fff;stroke-width:0}</style></defs><path d="M-.04 0h54.5v72.5H-.04z" style="stroke-width:0;fill:#5da0d7"/><path d="m10.27 60.34-7.05 1.78v7.04h7.05z" style="stroke-miterlimit:10;fill:none;stroke:#fff;stroke-width:.25px"/><path d="M3.22 68.26h7.04v.9H3.22zm1.13-2.08v-.62h.32v-.31h.32v-.31h.63v-.31h.32v-.31h-.95v.31h-.63v-.31h.32v-.31h1.58v.31h.32v.62h-.32v.31h-.32v.31h-.63v.31h1.27v.31H4.37Zm2.54 0v-.62h.32v-.31h.32v-.31h.63v-.31h.32v-.31h-.95v.31H6.9v-.31h.32v-.31H8.8v.31h.32v.62H8.8v.31h-.32v.31h-.63v.31h1.27v.31H6.91Z" class="cls-4"/><path d="m48.05 68.05-1.32-.57-.02 1.44-1.12-.91-.41 1.39-.83-1.18-.77 1.22-.48-1.36-1.07.97-.1-1.44-1.29.65.29-1.41-1.41.27.66-1.28-1.44-.12.98-1.05-1.35-.5 1.23-.75-1.16-.85 1.38-.39-.89-1.13h1.44l-.56-1.33 1.39.38-.18-1.43 1.24.75.21-1.43.99 1.06.59-1.32.67 1.28.92-1.11.3 1.41 1.19-.81-.1 1.44 1.36-.47-.48 1.36 1.44-.08-.83 1.18 1.41.31-1.12.92 1.28.68-1.33.57 1.04 1-1.42.2.73 1.24-1.43-.19z" style="stroke-width:0;fill:#e4b523"/><path d="M43.54 66.31v-.98a1.8 1.8 0 0 0 1.26-.51c.16-.16.3-.36.39-.57s.14-.44.14-.67-.05-.46-.14-.67-.22-.41-.39-.57a1.77 1.77 0 0 0-1.26-.51v-.98c.72 0 1.42.29 1.93.8a2.724 2.724 0 0 1 0 3.86c-.51.51-1.2.8-1.93.8" class="cls-4"/><circle cx="43.54" cy="63.59" r="1.36" style="fill:#fff"/><path d="M43.54 64.95c.75 0 1.36-.61 1.36-1.36s-.61-1.36-1.36-1.36-1.36.61-1.36 1.36.61 1.36 1.36 1.36" class="cls-4" style="clip-path:url(#clippath)"/><path d="M46.35 62.17h-.1v-.06h.26v.06h-.1v.26h-.07v-.26m.56-.05v.32h-.06v-.2l-.09.19h-.04l-.09-.19v.2h-.06v-.32h.06l.11.23.1-.23z" class="cls-4"/><path d="M50.83 34.13 3.6 41.73V4.89h47.23z" style="fill:#fff;stroke:#000;stroke-miterlimit:10"/><path d="M27.21 9.07c-6.94 0-12.56 5.62-12.56 12.56s5.62 12.56 12.56 12.56 12.56-5.62 12.56-12.56S34.15 9.07 27.21 9.07m0 1.64c6.03 0 10.93 4.9 10.93 10.93s-4.9 10.93-10.93 10.93-10.93-4.9-10.93-10.93 4.9-10.93 10.93-10.93m-9.54 8.09c-.26 1.04-.41 2.01-.41 2.94 7.87 1.65 6.61 3.39 8.05 9.67.62.11 1.25.18 1.9.18s1.28-.07 1.9-.18c1.44-6.28.18-8.02 8.05-9.67-.03-1.03-.16-2.09-.41-2.94-4.61-1.15-7.09-1.73-9.54-1.73s-4.93.58-9.54 1.73m9.54-1.13c2.19 0 3.97 1.78 3.97 3.97s-1.78 3.97-3.97 3.97-3.97-1.78-3.97-3.97 1.78-3.97 3.97-3.97m0 .98c-1.66 0-2.99 1.33-2.99 2.99s1.33 2.99 2.99 2.99 2.99-1.33 2.99-2.99-1.33-2.99-2.99-2.99" style="stroke-width:0"/><path d="M3.75 52.5v-8.53l2.26-.36c1-.16 1.79.03 2.38.57s.89 1.36.91 2.46v1.38c0 1.12-.3 2.05-.89 2.78S7 51.98 5.96 52.15zm1.72-7.37v5.67l.52-.08c.57-.09.98-.31 1.21-.65s.36-.88.37-1.62v-1.48c0-.8-.11-1.33-.33-1.61s-.6-.38-1.14-.32l-.63.1Zm7.64 2.77-.85.13v3.12l-1.72.27v-8.53l2.75-.44c.86-.14 1.53-.02 2 .35s.71.97.71 1.8c0 1.13-.41 1.99-1.24 2.57l1.49 3.26v.08l-1.85.29-1.28-2.91Zm-.85-1.3.98-.15c.34-.05.6-.21.77-.47s.26-.58.26-.96c0-.86-.33-1.23-1-1.12l-1.01.16zm6.71 3.49-1.72.27v-8.53l1.72-.27zm4.23-3.01 1.44-6.42 1.92-.3-2.46 8.92-1.79.28-2.44-8.14 1.91-.3 1.43 5.96Zm5.96 1.4-1.72.27v-8.53l1.72-.27zm7.41-1.18-1.72.27-2.52-5.2v5.6l-1.72.27v-8.53l1.72-.27 2.53 5.2v-5.6l1.72-.27v8.53Zm7.18-2.1c-.33.41-.74.75-1.22 1-.48.26-1.01.43-1.58.52-.98.16-1.74-.03-2.29-.55q-.81-.78-.84-2.52v-1.54c0-1.18.26-2.12.77-2.84s1.26-1.15 2.25-1.31c.93-.15 1.62-.03 2.1.35s.74 1.06.82 2.02l-1.68.27c-.05-.54-.16-.89-.34-1.06s-.46-.22-.84-.16c-.46.07-.8.3-1.01.67q-.315.555-.33 1.68v1.55c0 .78.12 1.32.35 1.64s.61.43 1.15.35c.34-.05.62-.17.83-.34l.15-.13v-1.56l-1.21.19v-1.3l2.94-.46v3.52Z" class="cls-4"/></svg>