<svg xmlns="http://www.w3.org/2000/svg" id="SD33" viewBox="0 0 54.5 72.5"><defs><clipPath id="clippath"><circle cx="43.54" cy="63.59" r="1.36" class="cls-4"/></clipPath><style>.cls-4{fill:#fff;stroke-width:0}</style></defs><path d="M0 0h54.5v72.5H0z" style="stroke-width:0;fill:#8f9fad"/><path d="m48.05 68.05-1.32-.57-.02 1.44-1.12-.91-.41 1.39-.83-1.18-.77 1.22-.48-1.36-1.07.97-.1-1.44-1.29.65.29-1.41-1.41.27.66-1.28-1.44-.12.98-1.05-1.35-.5 1.23-.75-1.16-.85 1.38-.39-.89-1.13h1.44l-.56-1.33 1.39.38-.18-1.43 1.24.75.21-1.43.99 1.06.59-1.32.67 1.28.92-1.11.3 1.41 1.19-.81-.1 1.44 1.36-.47-.48 1.36 1.44-.08-.83 1.18 1.41.31-1.12.92 1.28.68-1.33.57 1.04 1-1.42.2.73 1.24-1.43-.19z" style="stroke-width:0;fill:#e4b523"/><path d="M43.54 66.31v-.98a1.8 1.8 0 0 0 1.26-.51c.16-.16.3-.36.39-.57s.14-.44.14-.67-.05-.46-.14-.67-.22-.41-.39-.57a1.77 1.77 0 0 0-1.26-.51v-.98c.72 0 1.42.29 1.93.8a2.724 2.724 0 0 1 0 3.86c-.51.51-1.2.8-1.93.8" class="cls-4"/><circle cx="43.54" cy="63.59" r="1.36" style="fill:#fff"/><path d="M43.54 64.95c.75 0 1.36-.61 1.36-1.36s-.61-1.36-1.36-1.36-1.36.61-1.36 1.36.61 1.36 1.36 1.36" class="cls-4" style="clip-path:url(#clippath)"/><path d="M46.35 62.17h-.1v-.06h.26v.06h-.1v.26h-.07v-.26m.56-.05v.32h-.06v-.2l-.09.19h-.04l-.09-.19v.2h-.06v-.32h.06l.11.23.1-.23z" class="cls-4"/><path d="m10.23 60.34-7.04 1.78v7.04h7.04z" style="stroke-miterlimit:10;fill:none;stroke:#fff;stroke-width:.25px"/><path d="M3.19 68.26h7.04v.9H3.19zm1.45-2.08v-.31h-.32v-.31h.63v.31h.95v-.62h-.95v-.31h.32v-.31h.32v-.31h-.95v-.31h1.9v.31h-.32v.31H5.9v.31h.32v.31h.32v.62h-.32v.31zm2.53 0v-.31h-.32v-.31h.63v.31h.95v-.62h-.95v-.31h.32v-.31h.32v-.31h-.95v-.31h1.9v.31h-.32v.31h-.32v.31h.32v.31h.32v.62h-.32v.31z" class="cls-4"/><path d="M50.83 33.99 3.6 41.59V4.75h47.23z" style="fill:#fff;stroke:#000;stroke-miterlimit:10"/><path d="m5.44 46.72-1.17.19-.23.91-.91.14 1.33-4.48.79-.12 1.34 4.05-.92.15zm-.98-.56.8-.13-.4-1.46-.4 1.58Zm5.42-.69c-.02.49-.16.88-.41 1.17s-.61.47-1.07.54q-.72.12-1.11-.3c-.26-.28-.39-.71-.39-1.3v-.72c0-.59.13-1.06.4-1.42s.63-.58 1.11-.65c.46-.07.82 0 1.06.22s.38.57.41 1.05l-.86.14c0-.3-.05-.5-.14-.6-.08-.1-.24-.13-.47-.1-.23.04-.39.14-.49.32s-.15.45-.15.82v.81c0 .42.05.71.14.85s.26.2.49.16.38-.12.47-.24.13-.33.15-.62l.86-.14Zm2.73-.86-1.34.21v1.13l1.59-.25v.71l-2.45.39v-4.27l2.44-.39v.72l-1.58.25v1.01l1.34-.21v.69Zm2.99-.13v1.5l-.86.14v-4.27l1.45-.23c.42-.07.76.01 1.01.23s.38.54.38.96-.12.77-.37 1.05-.59.46-1.03.53l-.57.09Zm0-.72.59-.09c.16-.03.29-.1.38-.22s.13-.29.13-.49-.05-.38-.14-.49a.36.36 0 0 0-.37-.13l-.6.1v1.33Zm3.45 1.68-.86.14v-4.27l.86-.14zm1.59-.97 1.51-.24v.71l-2.37.38v-4.27l.86-.14v3.55Zm4.82-1.8c0 .57-.13 1.04-.41 1.4s-.65.58-1.13.65c-.48.08-.85-.02-1.13-.29-.27-.27-.41-.69-.42-1.25v-.73c0-.59.14-1.06.41-1.44s.65-.6 1.13-.67c.47-.08.85.03 1.12.31q.405.42.42 1.29v.73Zm-.86-.58c0-.38-.05-.66-.16-.83s-.28-.24-.51-.2-.4.15-.51.35-.17.48-.17.85v.76c0 .37.06.64.17.8s.28.22.52.18a.69.69 0 0 0 .5-.34c.11-.19.17-.47.17-.83v-.74Zm3.99-1.71-1.05.17v3.55l-.86.14v-3.55l-1.04.16v-.72l2.96-.47v.72ZM8.15 54.68l-2.68.42v3.48l-1.72.27v-8.53l4.72-.75v1.44l-3 .47v2.19l2.68-.42zm3.03 1.57 3.02-.48v1.43l-4.75.75v-8.53l1.72-.27v7.1Zm5.82.51-1.72.27V48.5l1.72-.27zm7.25-2.11c-.33.41-.74.75-1.22 1-.48.26-1.01.43-1.58.52-.98.16-1.74-.03-2.29-.55s-.82-1.36-.84-2.52v-1.54c0-1.18.26-2.12.77-2.84s1.26-1.15 2.25-1.31c.93-.15 1.62-.03 2.09.35s.74 1.06.82 2.02l-1.68.27c-.05-.54-.16-.89-.34-1.06s-.46-.22-.84-.16c-.46.07-.8.3-1.01.67q-.315.555-.33 1.68v1.55c0 .78.12 1.32.35 1.64s.61.43 1.15.35c.34-.05.62-.17.83-.34l.15-.13v-1.56l-1.21.19v-1.3l2.94-.46v3.52Zm7.2-.18-1.72.27v-3.65l-2.54.4v3.65l-1.72.27v-8.53l1.72-.27v3.45l2.54-.4v-3.45l1.72-.27zm6.74-8.16-2.11.33v7.1l-1.73.27v-7.1l-2.07.33V45.8l5.91-.94v1.44Z" style="stroke-width:0;fill:#151f30"/><path d="M39.39 7.73c-.31.07-.65.21-1.02.4-.75.38-1.67.96-2.63 1.63-1.67 1.17-3.47 2.61-4.69 3.75l2.49 1.24 1.24 2.49c1.14-1.22 2.58-3.02 3.74-4.69.67-.96 1.26-1.88 1.64-2.63.19-.38.33-.71.39-1.02.08-.31.12-.68-.18-.98-.3-.28-.62-.27-.98-.19m-.92 2.09c.31.29.35.76.24 1.17q-.165.615-.81 1.26l-2.64 2.64-1.85-1.86 2.64-2.63c.42-.43.84-.69 1.26-.81.38-.11.89-.03 1.16.23M22 12.59l-1.33 1.32 2.85.31v-1.64H22Zm8.12 1.57-2.72 1.36-9.56 12.51.86.86 6.09-6.09.71.71c-2.03 2.03-4.06 4.07-6.09 6.1l.86.85 12.51-9.56 1.36-2.72-1.34-2.68zm-16.04.03.46 1.39 7.56 5.22 4.03-5.27-12.06-1.34Zm2.38 3.92-.82.82 1.52 1.52 1.1-1.09-1.81-1.25Zm16.31 4.05-5.27 4.03 5.22 7.56 1.39.46zm-11.93.3-6.94.57-1.41 1.41 5.15 2.21zm13.25 2.57.29 2.59 1.07-1.08v-1.52h-1.36Zm-8.25 2.43-4.19 3.2 2.21 5.15 1.41-1.41zm-8.67 1.32-.82.82 2.34 2.34.82-.81-2.34-2.34Zm11.76 1.25-1.09 1.1 1.52 1.52.83-.82-1.25-1.8Z" style="stroke-width:0"/></svg>