<svg xmlns="http://www.w3.org/2000/svg" id="SD34" viewBox="0 0 54.5 72.5"><defs><clipPath id="clippath"><circle cx="43.54" cy="63.59" r="1.36" class="cls-4"/></clipPath><style>.cls-4{fill:#fff;stroke-width:0}</style></defs><path d="M0 0h54.5v72.5H0z" style="stroke-width:0;fill:#8eac90"/><path d="m48.05 68.05-1.32-.57-.02 1.44-1.12-.91-.41 1.39-.83-1.18-.77 1.22-.48-1.36-1.07.97-.1-1.44-1.29.65.29-1.41-1.41.27.66-1.28-1.44-.12.98-1.05-1.35-.5 1.23-.75-1.16-.85 1.38-.39-.89-1.13h1.44l-.56-1.33 1.39.38-.18-1.43 1.24.75.21-1.43.99 1.06.59-1.32.67 1.28.92-1.11.3 1.41 1.19-.81-.1 1.44 1.36-.47-.48 1.36 1.44-.08-.83 1.18 1.41.31-1.12.92 1.28.68-1.33.57 1.04 1-1.42.2.73 1.24-1.43-.19z" style="stroke-width:0;fill:#e4b523"/><path d="M43.54 66.31v-.98a1.8 1.8 0 0 0 1.26-.51c.16-.16.3-.36.39-.57s.14-.44.14-.67-.05-.46-.14-.67-.22-.41-.39-.57a1.77 1.77 0 0 0-1.26-.51v-.98c.72 0 1.42.29 1.93.8a2.724 2.724 0 0 1 0 3.86c-.51.51-1.2.8-1.93.8" class="cls-4"/><circle cx="43.54" cy="63.59" r="1.36" style="fill:#fff"/><path d="M43.54 64.95c.75 0 1.36-.61 1.36-1.36s-.61-1.36-1.36-1.36-1.36.61-1.36 1.36.61 1.36 1.36 1.36" class="cls-4" style="clip-path:url(#clippath)"/><path d="M46.35 62.17h-.1v-.06h.26v.06h-.1v.26h-.07v-.26m.56-.05v.32h-.06v-.2l-.09.19h-.04l-.09-.19v.2h-.06v-.32h.06l.11.23.1-.23z" class="cls-4"/><path d="m10.23 60.34-7.04 1.78v7.04h7.04z" style="stroke-miterlimit:10;fill:none;stroke:#fff;stroke-width:.25px"/><path d="M3.19 68.26h7.04v.9H3.19zm1.45-2.08v-.31h-.32v-.31h.63v.31h.95v-.62h-.95v-.31h.32v-.31h.32v-.31h-.95v-.31h1.9v.31h-.32v.31H5.9v.31h.32v.31h.32v.62h-.32v.31zm3.48 0v-.62H6.85v-.62h.32v-.31h.32v-.31h.32v-.31h.95v1.25h.32v.31h-.32v.62h-.63Zm-.64-.93h.63v-.62h-.32v.31h-.32v.31Z" class="cls-4"/><path d="M50.83 33.99 3.6 41.59V4.75h47.23z" style="fill:#fff;stroke:#000;stroke-miterlimit:10"/><path d="M4.27 46.28v1.5l-.86.14v-4.27l1.45-.23c.42-.07.76.01 1.01.23s.38.54.38.96-.12.77-.37 1.05-.59.46-1.03.53l-.57.09Zm0-.72.59-.09c.16-.03.29-.1.38-.22s.13-.29.13-.49-.05-.38-.14-.49a.36.36 0 0 0-.37-.13l-.6.09v1.33Zm3.84.05-.43.07v1.56l-.86.14v-4.27l1.37-.22c.43-.07.76 0 1 .18s.35.49.35.9c0 .57-.21 1-.62 1.29l.75 1.63v.04l-.93.15-.64-1.46Zm-.43-.65.49-.08a.6.6 0 0 0 .39-.23c.09-.13.13-.29.13-.48 0-.43-.17-.61-.5-.56l-.5.08v1.27Zm5.46-.34c0 .57-.13 1.04-.41 1.4-.27.36-.65.58-1.13.65-.48.08-.85-.02-1.13-.29-.27-.27-.41-.69-.42-1.25v-.73c0-.59.13-1.06.41-1.44s.65-.6 1.13-.67c.47-.08.85.03 1.12.31s.41.71.42 1.3v.73Zm-.86-.58c0-.38-.05-.66-.16-.83s-.28-.24-.51-.2-.4.15-.51.35-.17.48-.17.85v.76c0 .37.05.64.17.8.11.16.28.22.52.18.23-.04.39-.15.5-.34s.16-.47.17-.83v-.74Zm3.68.14-1.34.21v1.74l-.86.14V42l2.36-.37v.72l-1.5.24v1.09l1.34-.21zm2.86-.55-1.34.21v1.13l1.59-.25v.71l-2.45.39v-4.27l2.44-.39v.72l-1.58.25v1.01l1.34-.21v.69Zm2.54.32c0-.17-.04-.3-.13-.37s-.25-.14-.49-.2c-.43-.09-.74-.24-.92-.42-.19-.19-.28-.43-.28-.73 0-.36.13-.67.38-.93s.58-.42.97-.48c.26-.04.5-.02.7.05.2.08.36.21.47.39s.17.4.17.66l-.86.14c0-.2-.04-.34-.13-.43-.08-.09-.21-.12-.37-.1-.15.02-.27.09-.35.19s-.13.23-.13.38c0 .12.05.22.14.29.09.08.26.15.5.22.42.08.72.22.91.41s.28.45.28.79c0 .37-.12.68-.35.93-.24.25-.56.4-.96.47-.28.04-.53.03-.75-.05s-.4-.21-.53-.4-.19-.43-.19-.72l.86-.14c0 .25.05.42.14.51.1.1.25.13.47.09.3-.05.45-.23.45-.55m3.24-.51c0-.17-.04-.3-.13-.37s-.25-.14-.49-.2c-.43-.09-.74-.24-.92-.42-.19-.19-.28-.43-.28-.73 0-.36.13-.67.38-.93s.58-.42.97-.48c.26-.04.49-.02.7.06s.36.21.47.39.17.4.17.66l-.86.14c0-.2-.04-.34-.13-.43s-.21-.12-.37-.1c-.15.02-.27.09-.35.19s-.13.23-.13.38c0 .12.05.22.14.29.09.08.26.15.5.22.42.08.72.22.91.41s.28.45.28.79c0 .37-.12.68-.35.93-.24.25-.56.4-.96.47-.28.04-.53.03-.75-.05-.23-.08-.4-.21-.53-.4s-.19-.43-.19-.72l.86-.14c0 .25.05.42.14.51.1.1.25.13.47.09.3-.05.45-.23.45-.55Zm2.34.75-.86.14v-4.27l.86-.14zm3.73-2.34c0 .57-.13 1.04-.41 1.4s-.65.58-1.13.65c-.48.08-.85-.02-1.13-.29-.27-.27-.41-.69-.42-1.25v-.73c0-.59.14-1.06.41-1.44s.65-.6 1.13-.67c.47-.08.85.03 1.12.31s.41.71.42 1.3v.73Zm-.87-.58c0-.38-.05-.66-.16-.83s-.28-.24-.51-.2-.4.15-.51.35-.17.48-.17.85v.76c0 .37.06.64.17.8s.28.22.52.18a.69.69 0 0 0 .5-.34c.11-.19.17-.47.17-.83v-.74Zm4.47 1.76-.86.14-1.26-2.6v2.8l-.86.14v-4.27l.86-.14 1.26 2.6v-2.8l.86-.14zM37 41.72l-1.17.19-.23.91-.91.14 1.33-4.48.79-.12 1.34 4.05-.92.15zm-.99-.56.8-.13-.4-1.46-.4 1.58Zm3.39.34 1.51-.24v.71l-2.37.38v-4.27l.86-.14v3.55ZM7.73 55.04l-2.46.39v3.19l-1.58.25v-7.82l4.33-.69v1.32l-2.75.44v2l2.46-.39zm6.7-1.08c0 1.05-.25 1.9-.74 2.56s-1.18 1.06-2.07 1.2q-1.32.21-2.07-.54c-.5-.49-.76-1.26-.76-2.29v-1.34c0-1.07.25-1.95.75-2.63q.75-1.02 2.07-1.23c.87-.14 1.56.05 2.06.56s.76 1.31.76 2.37zm-1.59-1.06c0-.71-.1-1.21-.3-1.53-.2-.31-.51-.43-.93-.37-.42.07-.73.28-.93.64s-.3.88-.31 1.56v1.39c0 .68.1 1.17.31 1.46s.52.4.95.34c.41-.07.72-.27.92-.62s.3-.86.31-1.52v-1.36Zm8.23.01c0 1.05-.25 1.9-.74 2.56-.5.66-1.18 1.06-2.07 1.2-.88.14-1.57-.04-2.07-.53-.5-.5-.75-1.26-.76-2.29v-1.34c0-1.07.25-1.95.75-2.63q.75-1.02 2.07-1.23c.87-.14 1.56.05 2.06.56s.76 1.31.76 2.38v1.34Zm-1.59-1.06c0-.71-.1-1.21-.3-1.53-.2-.31-.51-.43-.93-.37-.42.07-.73.28-.93.64s-.3.88-.31 1.56v1.39c0 .68.1 1.17.31 1.46s.52.4.95.33c.41-.06.72-.27.92-.62s.3-.86.31-1.52v-1.36Zm7.33-3.15-1.93.31v6.5l-1.58.25v-6.5l-1.9.3v-1.32l5.42-.86v1.32Zm.91 6.36v-7.82l2.42-.38c.82-.13 1.44-.05 1.86.25s.64.79.64 1.5c0 .4-.09.75-.26 1.07-.18.31-.42.56-.72.74q.525.06.81.48c.19.27.29.63.29 1.08 0 .76-.21 1.37-.63 1.82s-1.02.74-1.81.87l-2.59.41Zm1.58-4.8.82-.13q.93-.15.93-1.11c0-.35-.07-.6-.21-.73s-.38-.17-.7-.12l-.84.13zm0 1.15v2.09l1.01-.16c.28-.04.5-.17.64-.37.15-.2.22-.46.22-.78 0-.7-.25-1.02-.76-.96zm8.32.48-2.15.34-.42 1.67-1.67.26 2.44-8.21 1.45-.23 2.46 7.43-1.69.27zm-1.81-1.02 1.46-.23-.73-2.67zm6.23.61 2.77-.44v1.31l-4.35.69v-7.82l1.58-.25zm5.26-.83 2.77-.44v1.31l-4.35.69v-7.82l1.58-.25z" style="stroke-width:0;fill:#281f16"/><path d="M26.27 7.2c-6.74.04-12.14 1.54-13.74 8.55-1.44 6.29.32 11.03 1.4 13.04 1.11-.14 3.26-.88 4.3-.04 2.8 2.23 3.97 4.04 6.36 3.6 1.2-.22 2.37-1.17 3.3-2.3 1.1.22 2.29.32 3.5.35q.72.015 1.44 0c.17.49.36.92.56 1.3.47.88 1 1.53 1.76 1.71 1.65.4 3.67.43 5.98.03l.2.03v-.06h.01v-.03c.3-2.29-.08-5.03-1.13-7.56h.01l-.45-1.03c-1.02.44-3.86.95-6.76 1.17-.22-1.92-.28-4.18-.07-6.65 2.33-1.17 4.33-1.51 6.4-2.09-.07-.35-.15-.69-.23-1.03-3.35.85-7.72 2.33-11.49 4.03-.29.13-.72.54-1.14 1.12-.36.49-.72 1.1-1.07 1.74.39.52.62 1.16.62 1.86 0 .27-.04.54-.1.79.33.09.55.18.75.23.31.08.68.14 1.73.09l.05 1.12c-1.1.05-1.65-.01-2.08-.13-.35-.1-.54-.19-.95-.28-.13.18-.28.34-.44.49l2.63 1.31-.5 1.01-3.3-1.65c-.29.09-.6.14-.91.14-1.72 0-3.12-1.41-3.12-3.12s1.41-3.12 3.12-3.12c.61 0 1.17.18 1.66.48.32-.58.66-1.13 1.01-1.62.48-.66.96-1.2 1.59-1.48 3.84-1.73 8.23-3.22 11.66-4.09-1.2-3.94-3.99-7.92-12.56-7.88m5.5 12.7c-.14 2.22-.08 4.28.12 6.07-.67.03-1.34.05-1.99.06v-.08c.05-1.99-.45-4.5.79-5.36.35-.24.71-.47 1.07-.69m-8.85 2.99c-1.11 0-2 .89-2 2s.89 2 2 2 2-.89 2-2-.89-2-2-2m16.24 3.24q.435 1.05.72 2.16c-.7.18-1.48.34-2.33.48-.17-.65-.43-1.3-.84-2.14.93-.14 1.76-.31 2.45-.5m-3.63.66c.46.91.73 1.54.91 2.15-.92.12-1.85.21-2.78.26q-.165-.57-.3-1.23c-.06-.31-.12-.63-.17-.95.81-.06 1.6-.14 2.35-.23Zm-3.48.3c.06.38.13.75.2 1.1s.15.7.25 1.05h-1.07c-.97-.02-1.9-.11-2.77-.26.41-.63.74-1.27.96-1.83q1.185 0 2.43-.06m8.06 2.3c.18 1.04.25 2.06.2 3-.81.11-1.58.17-2.29.17-.09-1.12-.15-1.97-.25-2.68.85-.14 1.64-.31 2.35-.49Zm-3.44.65c.09.63.14 1.4.22 2.46a10 10 0 0 1-1.47-.23c-.21-.05-.63-.4-1.02-1.14-.13-.24-.25-.52-.37-.83.9-.06 1.79-.15 2.64-.26" style="stroke-width:0"/></svg>