<svg xmlns="http://www.w3.org/2000/svg" id="SD30" viewBox="0 0 54.5 72.5"><defs><clipPath id="clippath"><circle cx="43.54" cy="63.59" r="1.36" class="cls-4"/></clipPath><style>.cls-4{fill:#fff;stroke-width:0}</style></defs><path d="M-.04 0h54.5v72.5H-.04z" style="stroke-width:0;fill:#5e2f37"/><path d="m10.27 60.34-7.05 1.78v7.04h7.05z" style="stroke-miterlimit:10;fill:none;stroke:#fff;stroke-width:.25px"/><path d="M3.22 68.26h7.04v.9H3.22zm1.45-2.08v-.31h-.32v-.31h.63v.31h.95v-.62h-.95v-.31h.32v-.31h.32v-.31h-.95v-.31h1.9v.31h-.32v.31h-.32v.31h.32v.31h.32v.62h-.32v.31zm2.85 0v-.31H7.2v-.31h-.32v-.94h.32v-.31h.32V64h.95v.31h.32v.31h.32v.94h-.32v.31h-.32v.31zm.31-.31h.63v-1.25h-.32v-.31h-.63v1.25h.32z" class="cls-4"/><path d="m48.05 68.05-1.32-.57-.02 1.44-1.12-.91-.41 1.39-.83-1.18-.77 1.22-.48-1.36-1.07.97-.1-1.44-1.29.65.29-1.41-1.41.27.66-1.28-1.44-.12.98-1.05-1.35-.5 1.23-.75-1.16-.85 1.38-.39-.89-1.13h1.44l-.56-1.33 1.39.38-.18-1.43 1.24.75.21-1.43.99 1.06.59-1.32.67 1.28.92-1.11.3 1.41 1.19-.81-.1 1.44 1.36-.47-.48 1.36 1.44-.08-.83 1.18 1.41.31-1.12.92 1.28.68-1.33.57 1.04 1-1.42.2.73 1.24-1.43-.19z" style="stroke-width:0;fill:#e4b523"/><path d="M43.54 66.31v-.98a1.8 1.8 0 0 0 1.26-.51c.16-.16.3-.36.39-.57s.14-.44.14-.67-.05-.46-.14-.67-.22-.41-.39-.57a1.77 1.77 0 0 0-1.26-.51v-.98c.72 0 1.42.29 1.93.8a2.724 2.724 0 0 1 0 3.86c-.51.51-1.2.8-1.93.8" class="cls-4"/><circle cx="43.54" cy="63.59" r="1.36" style="fill:#fff"/><path d="M43.54 64.95c.75 0 1.36-.61 1.36-1.36s-.61-1.36-1.36-1.36-1.36.61-1.36 1.36.61 1.36 1.36 1.36" class="cls-4" style="clip-path:url(#clippath)"/><path d="M46.35 62.17h-.1v-.06h.26v.06h-.1v.26h-.07v-.26m.56-.05v.32h-.06v-.2l-.09.19h-.04l-.09-.19v.2h-.06v-.32h.06l.11.23.1-.23z" class="cls-4"/><path d="M50.83 34.13 3.6 41.73V4.89h47.23z" style="fill:#fff;stroke:#000;stroke-miterlimit:10"/><path d="m8.07 49.57-1.29.2v-2.74l-1.91.3v2.74l-1.29.21v-6.4l1.29-.21v2.59l1.91-.3v-2.59l1.29-.2zm4.17-1.97-1.76.28-.34 1.36-1.37.22 2-6.71 1.18-.19 2.01 6.08-1.38.22-.34-1.25Zm-1.49-.85 1.2-.19-.6-2.19zm8.14-1.03c-.03.73-.24 1.32-.62 1.75s-.91.71-1.6.82c-.72.12-1.28-.04-1.66-.45-.39-.42-.58-1.06-.58-1.95v-1.08q0-1.32.6-2.13c.6-.81.95-.87 1.66-.98q1.05-.165 1.59.33c.36.33.57.86.62 1.58l-1.3.21q-.015-.675-.21-.9c-.13-.15-.36-.2-.7-.15-.35.06-.59.21-.73.48s-.22.67-.23 1.23v1.21c0 .64.07 1.06.21 1.28.14.21.39.29.73.24s.57-.17.7-.36.2-.5.22-.93l1.29-.21Zm2.6-.75-.51.72v1.83l-1.29.2v-6.4l1.29-.2v2.79l.41-.76 1.19-2.29 1.58-.25-1.83 3.1L24.19 47l-1.53.24-1.17-2.28Zm5.94-5.37.57.26q-.315.675-.33 1.26v.75l-.97.15v-.68c0-.26.07-.54.19-.85.13-.33.31-.63.54-.89m5.85 5.97-1.29.21-1.89-3.9v4.2l-1.29.21v-6.4l1.29-.21 1.89 3.9v-4.2l1.29-.2v6.4Zm-27 10.6c0-.26-.07-.45-.2-.56s-.38-.21-.73-.3q-.96-.21-1.38-.63c-.28-.28-.42-.65-.42-1.09 0-.54.19-1 .57-1.39s.87-.63 1.46-.72c.39-.06.74-.04 1.05.08s.54.31.71.59.25.61.25.99l-1.29.2c0-.3-.06-.52-.19-.65s-.31-.19-.55-.15c-.23.04-.4.13-.53.28s-.19.34-.19.57c0 .18.07.32.21.44s.39.23.75.32c.62.13 1.08.33 1.36.62.28.28.42.68.42 1.19 0 .56-.18 1.02-.53 1.39s-.84.6-1.45.7c-.41.07-.79.04-1.13-.08s-.61-.32-.8-.6-.29-.64-.29-1.08l1.3-.21c0 .37.07.63.22.77.14.14.38.19.7.14.45-.07.68-.34.68-.82m3.45.06 2.27-.36v1.07l-3.56.56v-6.4l1.29-.21v5.33Zm6.15-1.21-1.76.28-.34 1.36-1.37.22 2-6.71 1.18-.19 2.01 6.08-1.38.22zm-1.48-.84 1.2-.19-.6-2.19zm6.51-.32c0-.26-.07-.45-.2-.56s-.38-.21-.73-.3q-.96-.21-1.38-.63c-.42-.42-.42-.65-.42-1.09 0-.54.19-1 .57-1.39s.87-.63 1.46-.72c.39-.06.74-.04 1.05.08s.54.31.71.59.25.61.25.99l-1.29.2c0-.3-.06-.52-.19-.65-.13-.14-.31-.19-.55-.15-.23.04-.4.13-.53.28s-.19.34-.19.57c0 .18.07.32.21.44s.39.23.75.32c.62.13 1.08.33 1.36.62.28.28.42.68.42 1.19 0 .56-.18 1.02-.53 1.39s-.84.6-1.45.7c-.41.07-.79.04-1.13-.08a1.57 1.57 0 0 1-.8-.6c-.19-.29-.29-.64-.29-1.08l1.3-.21c0 .37.07.63.22.77.14.14.38.19.7.14.45-.07.68-.34.68-.82m6.64.62-1.29.2v-2.74l-1.91.3v2.74l-1.29.21v-6.4l1.29-.21v2.59l1.91-.3v-2.59l1.29-.2z" style="stroke-width:0;fill:#f1f2f2"/><path d="M15.91 7.51c-1.05.04-1.66.62-1.64 1.64l1.07 1.67c.24-.07.51-.21.77-.4l2.3 3.25q-1.38 1.695-2.31 3.84l1.44 1.44c.61-1.28 1.34-2.43 2.16-3.46l11.43 16.12 9.04 1.8-1.8-9.04-16.13-11.43c1.08-.87 2.27-1.62 3.56-2.25l-1.44-1.44c-1.47.64-2.79 1.44-3.94 2.4l-3.24-2.3c.19-.26.33-.53.4-.77zm21.72 4.71-1.52 6.77-1.36-4.37-.98 3.83-1.46-2.69-.03 3.13 6.96 4.97.82 4.72L40 18.45l-1.87 2.15-.51-8.39Zm-16.31 1.52 12.04 10.64L34.75 28l-3.62-1.39-10.64-12.04c.27-.29.54-.56.83-.83m1.75 10.64 1.52 1.23-1.96.22 3.13 1.04-5.73.22 6.24 1.49-5.48 1.01 6.9 1.39-3.64 2.37 11.3.09-4.72-.82-5.67-8.17-1.9-.09Z" style="stroke-width:0"/></svg>