<svg xmlns="http://www.w3.org/2000/svg" id="SD31" viewBox="0 0 54.5 72.5"><defs><clipPath id="clippath"><circle cx="43.58" cy="63.59" r="1.36" class="cls-4"/></clipPath><style>.cls-4{fill:#fff;stroke-width:0}</style></defs><path d="M0 0h54.5v72.5H0z" style="stroke-width:0;fill:#515b46"/><path d="m10.3 60.34-7.04 1.78v7.04h7.04z" style="stroke-miterlimit:10;fill:none;stroke:#fff;stroke-width:.25px"/><path d="M3.26 68.26h7.04v.9H3.26zm1.45-2.08v-.31h-.32v-.31h.63v.31h.95v-.62h-.95v-.31h.32v-.31h.32v-.31h-.95v-.31h1.9v.31h-.32v.31h-.32v.31h.32v.31h.32v.62h-.32v.31zm2.53 0v-.31h.63v-1.25h-.32v-.31h.32V64h.63v1.88h.63v.31h-1.9Z" class="cls-4"/><path d="m48.09 68.05-1.33-.57-.02 1.44-1.12-.91-.4 1.39-.84-1.18-.76 1.22-.49-1.36-1.06.97-.1-1.44-1.29.65.29-1.41-1.42.27.66-1.28-1.43-.12.98-1.05-1.35-.5 1.23-.75-1.17-.85 1.39-.39-.9-1.13h1.44l-.55-1.33 1.39.38-.18-1.43 1.23.75.22-1.43.98 1.06.6-1.32.66 1.28.93-1.11.29 1.41 1.19-.81-.09 1.44 1.36-.47-.48 1.36 1.44-.08-.83 1.18 1.41.31-1.12.92 1.27.68-1.32.57 1.04 1-1.43.2.73 1.24-1.42-.19z" style="stroke-width:0;fill:#e4b523"/><path d="M43.58 66.31v-.98a1.8 1.8 0 0 0 1.26-.51c.16-.16.3-.36.39-.57s.14-.44.14-.67-.05-.46-.14-.67-.22-.41-.39-.57a1.77 1.77 0 0 0-1.26-.51v-.98c.72 0 1.42.29 1.93.8a2.724 2.724 0 0 1 0 3.86c-.51.51-1.2.8-1.93.8" class="cls-4"/><circle cx="43.58" cy="63.59" r="1.36" style="fill:#fff"/><path d="M43.58 64.95c.75 0 1.36-.61 1.36-1.36s-.61-1.36-1.36-1.36-1.36.61-1.36 1.36.61 1.36 1.36 1.36" class="cls-4" style="clip-path:url(#clippath)"/><path d="M46.39 62.17h-.1v-.06h.26v.06h-.1v.26h-.07v-.26m.56-.05v.32h-.06v-.2l-.09.19h-.04l-.09-.19v.2h-.06v-.32h.06l.11.23.1-.23z" class="cls-4"/><path d="m50.87 34.13-47.24 7.6V4.89h47.24z" style="fill:#fff;stroke:#000;stroke-miterlimit:10"/><path d="m8.66 50.23-1.43.23v-3.04l-2.12.34v3.04l-1.44.23v-7.11l1.44-.23v2.88l2.12-.34v-2.88l1.43-.23zm5.77-8.02v4.92c0 .74-.21 1.34-.61 1.79-.4.46-.98.74-1.72.86-.76.12-1.34.01-1.75-.32-.4-.33-.6-.88-.6-1.63v-4.89l1.45-.23v4.89c0 .4.06.68.2.83.13.15.37.2.71.15s.58-.18.7-.37c.13-.19.19-.48.2-.87v-4.92l1.44-.23Zm6.06 6.14-1.44.23-2.1-4.33v4.66l-1.44.23v-7.11l1.44-.23 2.1 4.33v-4.67l1.43-.23v7.11Zm5.76-6.82-1.76.28v5.91l-1.44.23v-5.91l-1.73.27v-1.2l4.93-.78zm2.32 5.55-1.44.23V40.2l1.44-.23zm6.18-.98-1.44.23-2.1-4.33v4.66l-1.44.23v-7.11l1.44-.23 2.1 4.33v-4.67l1.43-.23v7.11Zm5.99-1.76q-.42.51-1.02.84c-.4.21-.84.36-1.32.44-.82.13-1.45-.02-1.9-.46-.45-.43-.69-1.13-.7-2.1v-1.28c0-.98.21-1.77.64-2.37s1.05-.96 1.87-1.09c.77-.12 1.35-.02 1.75.29.39.32.62.88.68 1.68l-1.4.22c-.04-.45-.13-.74-.28-.88s-.38-.19-.7-.13c-.39.06-.67.25-.84.56-.18.31-.27.78-.27 1.4v1.29c0 .65.1 1.1.29 1.37.19.26.51.36.95.29.28-.04.51-.14.69-.28l.13-.11v-1.3l-1.01.16V41.8l2.45-.39v2.93Z" style="stroke-width:0;fill:#edeec9"/><path d="M37.22 7.51c-2.84-.03-7.12 6.84-7.75 9.27-.49 2.31 4.49 5.76 5.33-1.39.26-2.18 3.47-7.52 2.73-7.84s-.02-.01-.04-.01c-.09-.02-.18-.02-.27-.02m3.61 1.36c-.76-.09-2.15 5.82-3.46 7.54-4.37 5.73 1.61 6.71 2.85 4.71 1.3-2.25 3.07-10.61.68-12.22 0 0-.02-.01-.03-.02s-.02 0-.04 0m-21.4 9.65c-2.85.03-6.51 7.51-6.88 10.04-.25 2.35 5.06 5.26 5.17-1.94.03-2.19 2.67-7.84 1.89-8.09s-.04 0-.04 0h-.14m3.6.99c-.77 0-1.54 6.02-2.66 7.86-3.75 6.16 2.29 6.51 3.32 4.39 1.06-2.38 1.96-10.88-.59-12.23 0 0-.02 0-.03-.01s-.02 0-.04 0m7.27.73c-.57 0-1.04.2-1.24.59-.33.68.24 1.66 1.3 2.19 1.05.52 2.19.4 2.52-.27.34-.68-.24-1.66-1.29-2.18-.07-.04-.13-.06-.19-.09-.38-.16-.75-.24-1.09-.24m4.82 1.98c-.75 0-1.37.3-1.53.82-.23.72.5 1.6 1.62 1.95 1.12.36 2.22.06 2.45-.67.22-.67-.41-1.49-1.42-1.88l-.21-.08c-.31-.1-.63-.14-.92-.15M13.9 31.96c-.65.02-1.17.28-1.35.73-.26.71.41 1.62 1.52 2.04 1.1.41 2.21.17 2.48-.54.28-.71-.41-1.62-1.51-2.03-.07-.03-.14-.05-.2-.07-.32-.1-.64-.14-.94-.14m5.15 1.48c-.89 0-1.62.38-1.74.98-.16.74.67 1.54 1.82 1.77 1.16.24 2.21-.17 2.37-.92.15-.69-.56-1.44-1.61-1.72-.07-.01-.14-.03-.21-.05a3.4 3.4 0 0 0-.63-.06" style="stroke-width:0"/></svg>