<svg xmlns="http://www.w3.org/2000/svg" id="SD5-2" data-name="SD5" viewBox="0 0 54.5 72.5"><defs><clipPath id="clippath"><circle cx="43.54" cy="63.59" r="1.36" class="cls-4"/></clipPath><style>.cls-4{fill:#fff;stroke-width:0}</style></defs><path d="M0 0h54.5v72.5H0z" style="stroke-width:0;fill:#9b6daf"/><path d="m48.05 68.05-1.32-.57-.02 1.44-1.12-.91-.41 1.39-.83-1.18-.77 1.22-.48-1.36-1.07.97-.1-1.44-1.29.65.29-1.41-1.41.27.66-1.28-1.44-.12.98-1.05-1.35-.5 1.23-.75-1.16-.85 1.38-.39-.89-1.13h1.44l-.56-1.33 1.39.38-.18-1.43 1.24.75.21-1.43.99 1.06.59-1.32.67 1.28.92-1.11.3 1.41 1.19-.81-.1 1.44 1.36-.47-.48 1.36 1.44-.08-.83 1.18 1.41.31-1.12.92 1.28.68-1.33.57 1.04 1-1.42.2.73 1.24-1.43-.19z" style="stroke-width:0;fill:#e4b523"/><path d="M43.54 66.31v-.98a1.8 1.8 0 0 0 1.26-.51c.16-.16.3-.36.39-.57s.14-.44.14-.67-.05-.46-.14-.67-.22-.41-.39-.57a1.77 1.77 0 0 0-1.26-.51v-.98c.72 0 1.42.29 1.93.8a2.724 2.724 0 0 1 0 3.86c-.51.51-1.2.8-1.93.8" class="cls-4"/><circle cx="43.54" cy="63.59" r="1.36" style="fill:#fff"/><path d="M43.54 64.95c.75 0 1.36-.61 1.36-1.36s-.61-1.36-1.36-1.36-1.36.61-1.36 1.36.61 1.36 1.36 1.36" class="cls-4" style="clip-path:url(#clippath)"/><path d="M46.35 62.17h-.1v-.06h.26v.06h-.1v.26h-.07v-.26m.56-.05v.32h-.06v-.2l-.09.19h-.04l-.09-.19v.2h-.06v-.32h.06l.11.23.1-.23z" class="cls-4"/><path d="m10.27 60.34-7.05 1.78v7.04h7.05z" style="stroke-miterlimit:10;fill:none;stroke:#fff;stroke-width:.25px"/><path d="M3.22 68.26h7.04v.9H3.22zm1.45-2.08v-.31h.63v-1.25h-.32v-.31h.32V64h.63v1.88h.63v.31h-1.9Zm2.22 0v-.62h.32v-.31h.32v-.31h.63v-.31h.32v-.31h-.95v.31H6.9v-.31h.32v-.31H8.8v.31h.32v.62H8.8v.31h-.32v.31h-.63v.31h1.27v.31H6.91Z" class="cls-4"/><path d="m50.87 34.13-47.24 7.6V4.89h47.24z" style="fill:#fff;stroke:#000;stroke-miterlimit:10"/><path d="M35.41 7.68c-2.38 1.91-3.97 4.13-5.25 6.48.78.48 1.59.93 2.41 1.34l5.55 2.13c.86.24 1.72.44 2.59.6.84-2.68 1.24-5.36 1.21-8.05l-6.52-2.5Zm-16.67.25.95 4.06L24 13.01l-.81-4.03-4.44-1.05Zm-1.1.43-2.33 2.97.77 3.88 2.47-2.92-.91-3.92Zm1.73 4.75-2.32 2.75 3.26.48c.45-.13.9-.26 1.36-.37l1.73-1.9zm10.66 2.34.55 3.68c.37.38.73.77 1.07 1.16l5.56 2.13 2.83-3.14c-3.42-.69-6.77-1.93-10.02-3.84Zm-4.38.84c-3.08.58-6.15 1.37-9.2 2.67 2.55 2.18 4.8 4.52 6.62 7.1l9.33-2.79c-1.66-2.62-4.13-4.81-6.75-6.97Zm-10.42 3.16c-1.29 3.14-2.35 6.33-2.59 9.82 1.53 3.31 4.39 5.66 6.92 7.48l2.65-9.9c-1.87-2.68-4.25-5.12-6.99-7.4m17.85 4.83-9.73 2.91-2.63 9.83c3.26-.49 6.5-1.37 9.74-3.02 1.56-3.34 1.91-6.23 2.63-9.72Z" style="stroke-width:0"/><path d="m6.72 44.15-1.23.19v4.14l-1.01.16V44.5l-1.21.19v-.84l3.45-.55v.84Zm3.99 1.46c0 .67-.16 1.21-.47 1.63-.32.42-.75.67-1.31.76s-1-.02-1.32-.34c-.32-.31-.48-.8-.49-1.46v-.85q0-1.02.48-1.68c.48-.66.76-.7 1.32-.79.55-.09.99.03 1.31.36s.48.83.49 1.51v.85Zm-1.01-.67c0-.45-.06-.77-.19-.97s-.33-.28-.59-.23c-.27.04-.46.18-.59.41s-.19.56-.2.99v.88c0 .44.06.75.19.93s.33.26.6.21c.26-.04.46-.17.58-.39.13-.22.19-.54.19-.97v-.87Zm2.73.69v1.75l-1 .16v-4.98l1.7-.27c.49-.08.88.01 1.18.27.29.26.44.63.44 1.12s-.14.9-.43 1.22c-.29.33-.69.53-1.2.61l-.67.11Zm0-.84.69-.11c.19-.03.34-.12.44-.26s.16-.33.16-.57-.05-.44-.16-.57a.46.46 0 0 0-.43-.16l-.7.11v1.55Zm8.08 1.31-1 .16v-2.13l-1.48.23v2.13l-1 .16v-4.98l1-.16v2.01l1.48-.23v-2.01l1-.16zm1.86-.29-1.01.16v-4.98l1.01-.16zm4.07-4.79-1.23.19v4.14l-1.01.16v-4.14l-1.21.19v-.84l3.45-.55v.84Zm2.62 2.42c0-.2-.05-.35-.16-.44-.1-.09-.29-.16-.57-.23-.5-.11-.86-.28-1.08-.5s-.33-.5-.33-.85q0-.63.45-1.08c.3-.3.67-.49 1.13-.56.31-.05.58-.03.82.06s.42.24.55.46c.13.21.19.47.19.77l-1 .16q0-.345-.15-.51c-.1-.11-.24-.14-.43-.11-.17.03-.31.1-.41.22a.67.67 0 0 0-.15.44c0 .14.06.25.16.34.11.09.3.18.58.25.49.1.84.26 1.06.48s.33.53.33.92c0 .43-.14.79-.41 1.08-.28.29-.65.47-1.12.54-.32.05-.61.03-.88-.06-.26-.09-.47-.25-.62-.47s-.22-.5-.22-.84l1.01-.16c0 .29.06.49.17.6s.29.15.55.11c.35-.06.53-.27.53-.64ZM4.86 57.58l-1.22.19v-6.04l1.22-.19zm5.25-.83-1.22.19-1.79-3.68v3.96l-1.22.19v-6.04l1.22-.19 1.79 3.68v-3.97l1.22-.19v6.04Zm.98-.16v-6.04l1.6-.25c.71-.11 1.27.02 1.69.4s.63.96.64 1.74v.98c0 .79-.21 1.45-.63 1.97s-1 .84-1.73.95l-1.56.25Zm1.22-5.21v4.01l.37-.06c.41-.06.69-.22.86-.46s.25-.62.26-1.15v-1.05c0-.56-.08-.95-.24-1.14-.16-.2-.43-.27-.81-.22zm4.86 4.25-1.22.19v-6.04l1.22-.19zm4.14-3.27-1.9.3v1.6l2.25-.36v1.01l-3.47.55v-6.04l3.46-.55v1.02l-2.24.35v1.43l1.9-.3v.98Zm7.12.8c-.24.29-.52.53-.87.71-.34.18-.72.31-1.12.37-.7.11-1.23-.02-1.62-.39-.38-.37-.58-.96-.59-1.78v-1.09c0-.83.18-1.5.55-2.01q.54-.765 1.59-.93c.66-.1 1.15-.02 1.48.25s.53.75.58 1.43l-1.19.19q-.045-.57-.24-.75t-.6-.12c-.33.05-.57.21-.72.47s-.23.66-.23 1.19v1.1c0 .55.08.94.25 1.16.16.22.44.31.81.25.24-.04.44-.12.58-.24l.11-.09v-1.11l-.85.14v-.92l2.08-.33zm3.75-1.14-1.66.26-.32 1.29-1.29.2 1.89-6.34 1.12-.18 1.9 5.74-1.3.21-.32-1.19Zm-1.4-.8 1.13-.18-.56-2.06-.56 2.24Zm5.18-4.61 1.14 4.19 1.14-4.55 1.59-.25v6.04l-1.22.19V50.6l.11-2.54-1.21 4.35-.83.13-1.21-3.96.11 2.5v1.63l-1.22.19v-6.04l1.59-.25Zm7.98 2.17-1.9.3v1.6l2.25-.36v1.01l-3.47.55v-6.04l3.46-.55v1.02l-2.24.35v1.43l1.9-.3v.98Zm3.6.46c0-.25-.06-.42-.19-.53s-.35-.2-.69-.28c-.61-.13-1.04-.33-1.31-.6s-.4-.61-.4-1.03c0-.51.18-.95.54-1.31.36-.37.82-.59 1.38-.68.37-.06.7-.03.99.08s.51.3.67.56.23.57.23.93l-1.22.19c0-.28-.06-.49-.18-.62s-.29-.18-.52-.14c-.21.03-.38.12-.5.27s-.18.32-.18.54c0 .17.07.31.2.42s.37.22.71.31c.59.12 1.02.31 1.28.58.27.27.4.64.4 1.12 0 .53-.17.96-.5 1.31-.34.35-.79.57-1.37.66-.39.06-.75.04-1.07-.07q-.48-.165-.75-.57t-.27-1.02l1.22-.19c0 .35.07.59.2.73.14.14.36.18.66.13.43-.07.64-.33.64-.78Z" style="stroke-width:0;fill:#faf290"/></svg>