<svg xmlns="http://www.w3.org/2000/svg" id="SD25" viewBox="0 0 54.5 72.5"><defs><clipPath id="clippath"><circle cx="43.54" cy="63.59" r="1.36" class="cls-4"/></clipPath><style>.cls-4{fill:#fff;stroke-width:0}</style></defs><path d="M-.04 0h54.5v72.5H-.04z" style="stroke-width:0;fill:#282828"/><path d="m10.27 60.34-7.05 1.78v7.04h7.05z" style="stroke-miterlimit:10;fill:none;stroke:#fff;stroke-width:.25px"/><path d="M3.22 68.26h7.04v.9H3.22zm1.13-2.08v-.62h.32v-.31h.32v-.31h.63v-.31h.32v-.31h-.95v.31h-.63v-.31h.32v-.31h1.58v.31h.32v.62h-.32v.31h-.32v.31h-.63v.31h1.27v.31H4.37Zm2.85 0v-.31h-.32v-.31h.63v.31h.95v-.94H6.88v-.94h1.9v.31H7.51v.31h1.27v.31h.32v.94h-.32v.31H7.2Z" class="cls-4"/><path d="m48.05 68.05-1.32-.57-.02 1.44-1.12-.91-.41 1.39-.83-1.18-.77 1.22-.48-1.36-1.07.97-.1-1.44-1.29.65.29-1.41-1.41.27.66-1.28-1.44-.12.98-1.05-1.35-.5 1.23-.75-1.16-.85 1.38-.39-.89-1.13h1.44l-.56-1.33 1.39.38-.18-1.43 1.24.75.21-1.43.99 1.06.59-1.32.67 1.28.92-1.11.3 1.41 1.19-.81-.1 1.44 1.36-.47-.48 1.36 1.44-.08-.83 1.18 1.41.31-1.12.92 1.28.68-1.33.57 1.04 1-1.42.2.73 1.24-1.43-.19z" style="stroke-width:0;fill:#e4b523"/><path d="M43.54 66.31v-.98a1.8 1.8 0 0 0 1.26-.51c.16-.16.3-.36.39-.57s.14-.44.14-.67-.05-.46-.14-.67-.22-.41-.39-.57a1.77 1.77 0 0 0-1.26-.51v-.98c.72 0 1.42.29 1.93.8a2.724 2.724 0 0 1 0 3.86c-.51.51-1.2.8-1.93.8" class="cls-4"/><circle cx="43.54" cy="63.59" r="1.36" style="fill:#fff"/><path d="M43.54 64.95c.75 0 1.36-.61 1.36-1.36s-.61-1.36-1.36-1.36-1.36.61-1.36 1.36.61 1.36 1.36 1.36" class="cls-4" style="clip-path:url(#clippath)"/><path d="M46.35 62.17h-.1v-.06h.26v.06h-.1v.26h-.07v-.26m.56-.05v.32h-.06v-.2l-.09.19h-.04l-.09-.19v.2h-.06v-.32h.06l.11.23.1-.23z" class="cls-4"/><path d="M50.83 34.13 3.6 41.73V4.89h47.23z" style="fill:#fff;stroke:#000;stroke-miterlimit:10"/><path d="M29.1 5.95a13 13 0 0 0-9.98 4.62c1.71 0 5.5.19 6.01 1.61-2.4-.76-4.98-.7-6.78-.58-.32.47-.6.95-.85 1.46 1.97-.52 9.25-.21 9.68 1.33-4.75-1.16-8.79-.54-10.13-.31-.55 1.4-.85 2.93-.85 4.52 0 6.98 6.02 16.87 13.15 16.87 3.61 0 6.82-2.54 9.1-5.95-1.96 1.49-6.13 3.58-8.69 2.17 5.1-.56 8.75-3.19 9.76-3.96 1.58-2.95 2.5-6.28 2.5-9.12 0-6.98-5.78-12.64-12.91-12.64m-.01 9.46c6.57 0 11.89 1.73 11.89 3.87 0 1.38-.28 2.09-3.61 2.78-1.84.38-5.95-1.95-8.28-1.95-2.18 0-5.44 2.58-7.2 2.25-3.54-.67-4.69-1.65-4.69-3.08 0-2.14 5.32-3.87 11.89-3.87m5.24 2.49c-1.26 0-2.6.21-2.59.62.01.78 1.09 1.39 2.4 1.37s1.16-1.01 2.36-1.44c0-.36-1.05-.54-2.16-.55Zm-10.79.18c-1.11 0-2.16.19-2.16.55 1.2.43 1.04 1.42 2.36 1.44 1.31.02 2.39-.6 2.4-1.37 0-.41-1.33-.63-2.59-.62m5.78 5.15c1.94 0 3.51 1.58 3.51 1.58s-1.76-.69-3.7-.69-3.32.69-3.32.69 1.57-1.58 3.51-1.58m-15.79 7.17c.27.13.49-2.52 3.27-3.83-.51-.53-.78-1.54-.89-2.22-2.05.26-3.44 5.31-2.38 6.05m3.52-2.61c-.47 0-1.08-.01-1.09 1.06-.03 2.89-2.68 6.06-2.51 6.14.45.21 3.1-2 3.87-3.72.26-.58.72-3.48-.27-3.48" style="stroke-width:0"/><path d="m10.27 52.22-1.87.3-2.73-5.63v6.06l-1.87.3v-9.24l1.87-.3 2.74 5.64v-6.07l1.86-.29v9.24Zm3.45-.55-1.87.3v-9.24l1.87-.3zm8.03-1.27-1.87.3-2.73-5.63v6.06l-1.87.3v-9.24l1.87-.3 2.74 5.63v-6.07l1.86-.29zm4.53-9.96 1.87-.29v6.4q0 1.35-.75 2.28c-.5.62-1.14.99-1.93 1.12-.85.13-1.5-.01-1.97-.44s-.71-1.09-.71-1.99l1.87-.3c0 .87.27 1.26.81 1.18.54-.09.81-.63.81-1.64v-6.31Zm7.75 6.12-2.55.4-.5 1.97-1.97.31 2.89-9.7 1.71-.27 2.91 8.78-1.99.32-.49-1.81Zm-2.14-1.21 1.73-.27-.86-3.16-.86 3.43Zm9.39-.47c0-.38-.1-.65-.29-.81s-.54-.31-1.05-.43c-.93-.2-1.59-.51-2-.92s-.61-.93-.61-1.58c0-.78.28-1.45.83-2.01s1.25-.91 2.1-1.04c.57-.09 1.07-.05 1.52.12s.79.45 1.03.85.36.87.36 1.43l-1.86.29c0-.43-.09-.75-.28-.94-.18-.2-.45-.27-.8-.21-.33.05-.58.19-.76.41s-.27.5-.27.82c0 .25.1.47.3.64s.56.33 1.08.47c.9.18 1.56.48 1.96.89s.61.98.61 1.71c0 .8-.26 1.47-.77 2.01-.51.53-1.21.87-2.09 1.01-.6.09-1.14.06-1.63-.11s-.87-.46-1.15-.87-.42-.93-.42-1.55l1.87-.3c0 .53.1.91.31 1.11s.55.27 1.02.2c.65-.1.98-.5.98-1.19Z" style="stroke-width:0;fill:#9b5051"/></svg>