<svg xmlns="http://www.w3.org/2000/svg" id="SD3-2" data-name="SD3" viewBox="0 0 54.5 72.5"><defs><clipPath id="clippath"><circle cx="43.54" cy="63.59" r="1.36" class="cls-4"/></clipPath><style>.cls-4{fill:#fff}.cls-4,.cls-6{stroke-width:0}</style></defs><path d="M-.04 0h54.5v72.5H-.04z" style="stroke-width:0;fill:#e5e5e5"/><path d="m10.27 60.34-7.05 1.78v7.04h7.05z" style="stroke:#000;stroke-miterlimit:10;fill:none;stroke-width:.25px"/><path d="M3.22 68.26h7.04v.9H3.22zm2.15-1.59v-.5h-.51v-.5h1.01v.5h1.52v-1H5.87v-.5h.51v-.5h.51v-.5H5.37v-.5h3.04v.5H7.9v.5h-.51v.5h.51v.5h.51v1H7.9v.5z" class="cls-6"/><path d="m48.05 68.05-1.32-.57-.02 1.44-1.12-.91-.41 1.39-.83-1.18-.77 1.22-.48-1.36-1.07.97-.1-1.44-1.29.65.29-1.41-1.41.27.66-1.28-1.44-.12.98-1.05-1.35-.5 1.23-.75-1.16-.85 1.38-.39-.89-1.13h1.44l-.56-1.33 1.39.38-.18-1.43 1.24.75.21-1.43.99 1.06.59-1.32.67 1.28.92-1.11.3 1.41 1.19-.81-.1 1.44 1.36-.47-.48 1.36 1.44-.08-.83 1.18 1.41.31-1.12.92 1.28.68-1.33.57 1.04 1-1.42.2.73 1.24-1.43-.19z" style="stroke-width:0;fill:#e4b523"/><path d="M43.54 66.31v-.98a1.8 1.8 0 0 0 1.26-.51c.16-.16.3-.36.39-.57s.14-.44.14-.67-.05-.46-.14-.67-.22-.41-.39-.57a1.77 1.77 0 0 0-1.26-.51v-.98c.72 0 1.42.29 1.93.8a2.724 2.724 0 0 1 0 3.86c-.51.51-1.2.8-1.93.8" class="cls-4"/><circle cx="43.54" cy="63.59" r="1.36" style="fill:#fff"/><path d="M43.54 64.95c.75 0 1.36-.61 1.36-1.36s-.61-1.36-1.36-1.36-1.36.61-1.36 1.36.61 1.36 1.36 1.36" class="cls-4" style="clip-path:url(#clippath)"/><path d="M46.35 62.17h-.1v-.06h.26v.06h-.1v.26h-.07v-.26m.56-.05v.32h-.06v-.2l-.09.19h-.04l-.09-.19v.2h-.06v-.32h.06l.11.23.1-.23z" class="cls-4"/><path d="M50.83 33.56 3.6 41.16V4.32h47.23z" style="fill:#fff;stroke:#000;stroke-miterlimit:10"/><path d="M31.88 6.41A15 15 0 0 0 19.4 7.5a14.995 14.995 0 0 0-7.31 15.68l8.9-1.6c-.43-2.4.66-4.93 2.9-6.21 1.57-.89 3.37-.99 4.95-.43l3.03-8.54Zm3.31 1.68-5.03 7.52c.74.49 1.37 1.16 1.84 1.98 1.62 2.84.63 6.48-2.22 8.1-2.73 1.56-6.2.7-7.91-1.9l-7.56 4.96c4.34 6.62 13.08 8.72 19.96 4.81 7.2-4.1 9.7-13.27 5.6-20.46a14.96 14.96 0 0 0-4.68-5.01m-6.22 8.12a4.8 4.8 0 0 0-4.52.14 4.81 4.81 0 0 0-2.32 5.21c.11.47.28.93.52 1.35a4.805 4.805 0 0 0 6.56 1.8 4.805 4.805 0 0 0-.25-8.49Zm-.98 2.1c.42.22.78.56 1.01.98a2.5 2.5 0 0 1-.93 3.41 2.5 2.5 0 0 1-3.68-1.63 2.495 2.495 0 0 1 3.6-2.75Zm-6.82 3.99L12.54 25c.22.73.5 1.45.83 2.13l8.13-3.99c-.13-.27-.25-.55-.34-.84" class="cls-6"/><path d="M6.41 45.26c0 .57-.13 1.04-.41 1.4-.27.36-.65.58-1.13.65-.48.08-.85-.02-1.13-.29-.27-.27-.41-.69-.42-1.25v-.73c0-.59.14-1.06.41-1.44s.65-.6 1.13-.67c.47-.08.85.03 1.12.31q.405.42.42 1.29v.73Zm-.86-.58c0-.38-.05-.66-.16-.83s-.28-.24-.51-.2-.4.15-.51.35-.17.48-.17.85v.76c0 .37.06.64.17.8s.28.22.52.18c.23-.04.39-.15.5-.34s.17-.47.17-.83v-.74Zm3.68.15-1.34.21v1.74l-.86.14v-4.27l2.36-.37V43l-1.5.24v1.09l1.34-.21zm2.85-.46-1.34.21v1.74l-.86.14v-4.27l2.36-.37v.72l-1.5.24v1.09l1.34-.21zm1.52.79 1.51-.24v.71l-2.37.38v-4.27l.86-.14v3.55Zm2.91.25-.86.14v-4.27l.86-.14zm3.7-.58-.86.14-1.26-2.6v2.8l-.86.14v-4.27l.86-.14 1.26 2.6v-2.8l.86-.14zm2.9-2.31-1.34.21v1.13l1.59-.25v.71l-2.45.39v-4.27l2.44-.39v.72l-1.58.25v1.01l1.34-.21v.69Zm-17.6 7.52 1.34 4.93 1.34-5.35 1.88-.3v7.11l-1.44.23v-1.92l.13-2.99-1.42 5.11-.98.15-1.42-4.66.13 2.94v1.92l-1.44.23v-7.11l1.87-.3Zm9.38 2.55-2.24.35v1.88l2.65-.42v1.19l-4.08.65v-7.11l4.07-.64v1.2l-2.64.42v1.68l2.24-.35v1.16Zm1.24 2.88v-7.11l1.88-.3q1.245-.195 1.98.48c.49.45.74 1.13.75 2.05v1.15c0 .93-.25 1.71-.74 2.32s-1.17.98-2.04 1.12l-1.84.29Zm1.43-6.14v4.72l.43-.07c.48-.08.82-.25 1.01-.54.2-.28.3-.73.31-1.35v-1.24c0-.66-.09-1.11-.28-1.34s-.5-.32-.95-.26zm5.71 5.01-1.44.23v-7.11l1.44-.23zm4.6-2.18-1.96.31-.38 1.51-1.52.24 2.22-7.46 1.31-.21 2.24 6.76-1.53.24zm-1.64-.94 1.33-.21-.66-2.43-.66 2.64Z" style="stroke-width:0;fill:#231f20"/></svg>