<svg xmlns="http://www.w3.org/2000/svg" id="SD5" viewBox="0 0 54.5 72.5"><defs><clipPath id="clippath"><circle cx="43.58" cy="63.59" r="1.36" class="cls-4"/></clipPath><style>.cls-4{fill:#fff;stroke-width:0}</style></defs><path d="M0 0h54.5v72.5H0z" style="stroke-width:0;fill:#a15253"/><path d="m10.27 60.34-7.05 1.78v7.04h7.05z" style="stroke-miterlimit:10;fill:none;stroke:#fff;stroke-width:.25px"/><path d="M3.22 68.26h7.04v.9H3.22zm2.15-1.59v-.5h-.51v-.5h1.01v.5h1.52v-1.5H4.86v-1.5H7.9v.5H5.88v.5H7.9v.5h.51v1.5H7.9v.5z" class="cls-4"/><path d="m48.09 68.05-1.33-.57-.02 1.44-1.12-.91-.4 1.39-.84-1.18-.76 1.22-.49-1.36-1.06.97-.1-1.44-1.29.65.29-1.41-1.42.27.66-1.28-1.43-.12.98-1.05-1.35-.5 1.23-.75-1.17-.85 1.39-.39-.9-1.13h1.44l-.55-1.33 1.39.38-.18-1.43 1.23.75.22-1.43.98 1.06.6-1.32.66 1.28.93-1.11.29 1.41 1.19-.81-.09 1.44 1.36-.47-.48 1.36 1.44-.08-.83 1.18 1.41.31-1.12.92 1.27.68-1.32.57 1.04 1-1.43.2.73 1.24-1.42-.19z" style="stroke-width:0;fill:#e4b523"/><path d="M43.58 66.31v-.98a1.8 1.8 0 0 0 1.26-.51c.16-.16.3-.36.39-.57s.14-.44.14-.67-.05-.46-.14-.67-.22-.41-.39-.57a1.77 1.77 0 0 0-1.26-.51v-.98c.72 0 1.42.29 1.93.8a2.724 2.724 0 0 1 0 3.86c-.51.51-1.2.8-1.93.8" class="cls-4"/><circle cx="43.58" cy="63.59" r="1.36" style="fill:#fff"/><path d="M43.58 64.95c.75 0 1.36-.61 1.36-1.36s-.61-1.36-1.36-1.36-1.36.61-1.36 1.36.61 1.36 1.36 1.36" class="cls-4" style="clip-path:url(#clippath)"/><path d="M46.39 62.17h-.1v-.06h.26v.06h-.1v.26h-.07v-.26m.56-.05v.32h-.06v-.2l-.09.19h-.04l-.09-.19v.2h-.06v-.32h.06l.11.23.1-.23z" class="cls-4"/><path d="m50.87 33.56-47.24 7.6V4.32h47.24z" style="fill:#fff;stroke:#000;stroke-miterlimit:10"/><path d="M6.45 45.26c0 .57-.13 1.04-.41 1.4-.27.36-.65.58-1.13.65-.48.08-.85-.02-1.13-.29-.27-.27-.41-.69-.42-1.25v-.73c0-.59.14-1.06.41-1.44s.65-.6 1.13-.67c.47-.08.85.03 1.12.31q.405.42.42 1.29v.73Zm-.87-.58c0-.38-.05-.66-.16-.83s-.28-.24-.51-.2-.4.15-.51.35-.17.48-.17.85v.76c0 .37.06.64.17.8s.28.22.52.18c.23-.04.39-.15.5-.34s.17-.47.17-.83v-.74Zm3.68.15-1.34.21v1.74l-.86.14v-4.27l2.36-.37V43l-1.5.24v1.09l1.34-.21zm2.86-.46-1.34.21v1.74l-.86.14v-4.27l2.36-.37v.72l-1.5.24v1.09l1.34-.21zm1.51.79 1.51-.24v.71l-2.37.38v-4.27l.86-.14v3.55Zm2.91.25-.86.14v-4.27l.86-.14zm3.71-.58-.86.14-1.26-2.6v2.8l-.86.14v-4.27l.86-.14 1.26 2.6v-2.8l.86-.14zm2.89-2.31-1.34.21v1.13l1.59-.25v.71l-2.45.39v-4.27l2.44-.39v.72l-1.58.25v1.01l1.34-.21v.69ZM5.55 50.04l1.34 4.93 1.34-5.35 1.88-.3v7.11l-1.44.23v-1.92l.13-2.99-1.42 5.11-.98.15-1.42-4.66.13 2.94v1.92l-1.44.23v-7.11l1.87-.3Zm10.71 2.5c0 .95-.23 1.73-.68 2.33s-1.08.96-1.88 1.09-1.42-.04-1.88-.49-.69-1.15-.69-2.09v-1.22c0-.98.23-1.78.68-2.4s1.08-.99 1.88-1.12c.79-.12 1.41.05 1.87.51.46.47.69 1.18.69 2.16v1.22Zm-1.44-.96c0-.64-.09-1.1-.27-1.39-.18-.28-.47-.39-.85-.33s-.66.26-.84.58c-.18.33-.28.8-.28 1.42v1.26c0 .62.09 1.07.28 1.33.19.27.47.37.86.31.37-.06.65-.25.83-.57s.27-.78.28-1.38v-1.24Zm4.68 1.41 1.2-5.35 1.6-.25-2.05 7.43-1.49.24-2.04-6.79 1.59-.25zm4.96 1.17-1.44.23v-7.11l1.44-.23zm4.88-3.85-2.24.35v1.88l2.65-.42v1.19l-4.08.65v-7.11l4.07-.64v1.2l-2.64.42v1.68l2.24-.35v1.16Zm4.24.54c0-.29-.07-.5-.22-.62s-.42-.24-.81-.33c-.71-.16-1.23-.39-1.54-.71-.31-.31-.47-.72-.47-1.21 0-.6.21-1.11.64-1.54.42-.43.96-.7 1.62-.8q.66-.105 1.17.09c.51.195.6.35.79.65.18.31.28.67.28 1.1l-1.43.23c0-.33-.07-.57-.21-.73-.14-.15-.35-.21-.61-.16-.25.04-.45.14-.59.31q-.21.255-.21.63c0 .2.08.36.23.49s.43.25.83.36c.69.14 1.2.37 1.51.68s.47.75.47 1.32c0 .62-.2 1.13-.59 1.54s-.93.67-1.61.78c-.46.07-.88.04-1.25-.08s-.67-.35-.89-.67c-.21-.32-.32-.72-.32-1.19l1.44-.23c0 .41.08.7.24.86q.24.24.78.15c.5-.08.75-.38.75-.91Z" class="cls-4"/><path d="M15.81 6.96v27.09h1.02v-2.11h2.62v2.11h15.59v-2.11h2.62v2.11h1.02V6.96h-1.02v2.11h-2.62V6.96h-1.02v3.41H20.48V6.96h-1.02v2.11h-2.62V6.96h-1.02Zm1.03 3.13h2.62v2.62h-2.62zm18.21 0h2.62v2.62h-2.62zm-14.57 2.33h13.54v8.88H20.48zm-3.64 1.31h2.62v2.62h-2.62zm18.21 0h2.62v2.62h-2.62zm-18.21 3.65h2.62V20h-2.62zm18.21 0h2.62V20h-2.62zm-18.21 3.64h2.62v2.62h-2.62zm18.21 0h2.62v2.62h-2.62zm-14.57 2.33h13.54v8.88H20.48zm-3.64 1.31h2.62v2.62h-2.62zm18.21 0h2.62v2.62h-2.62zM16.84 28.3h2.62v2.62h-2.62zm18.21 0h2.62v2.62h-2.62z" style="stroke-width:0"/></svg>