<svg xmlns="http://www.w3.org/2000/svg" id="SD4" viewBox="0 0 54.5 72.5"><defs><clipPath id="clippath"><circle cx="43.51" cy="63.59" r="1.36" class="cls-4"/></clipPath><style>.cls-4{fill:#fff;stroke-width:0}</style></defs><path d="M-.07 0h54.5v72.5H-.07z" style="stroke-width:0;fill:#55667f"/><path d="m10.27 60.34-7.05 1.78v7.04h7.05z" style="stroke-miterlimit:10;fill:none;stroke:#fff;stroke-width:.25px"/><path d="M3.22 68.26h7.04v.9H3.22zm3.67-1.59v-1H4.87v-1h.51v-.5h.51v-.5h.51v-.5h1.52v2h.51v.5h-.51v1H6.91Zm-1.02-1.5h1.01v-1h-.51v.5h-.51v.5Z" class="cls-4"/><path d="m48.02 68.05-1.33-.57-.02 1.44-1.12-.91-.4 1.39-.84-1.18-.76 1.22-.49-1.36-1.07.97-.1-1.44-1.28.65.29-1.41-1.42.27.66-1.28-1.43-.12.98-1.05-1.35-.5 1.23-.75-1.17-.85 1.39-.39-.9-1.13h1.44l-.55-1.33 1.39.38-.18-1.43 1.23.75.22-1.43.98 1.06.6-1.32.66 1.28.93-1.11.29 1.41 1.19-.81-.1 1.44 1.37-.47-.48 1.36 1.44-.08-.83 1.18 1.41.31-1.12.92 1.27.68-1.32.57 1.04 1-1.43.2.73 1.24-1.42-.19z" style="stroke-width:0;fill:#e4b523"/><path d="M43.51 66.31v-.98a1.8 1.8 0 0 0 1.26-.51c.16-.16.3-.36.39-.57s.14-.44.14-.67-.05-.46-.14-.67-.22-.41-.39-.57a1.77 1.77 0 0 0-1.26-.51v-.98c.72 0 1.42.29 1.93.8a2.724 2.724 0 0 1 0 3.86c-.51.51-1.2.8-1.93.8" class="cls-4"/><circle cx="43.51" cy="63.59" r="1.36" style="fill:#fff"/><path d="M43.51 64.95c.75 0 1.36-.61 1.36-1.36s-.61-1.36-1.36-1.36-1.36.61-1.36 1.36.61 1.36 1.36 1.36" class="cls-4" style="clip-path:url(#clippath)"/><path d="M46.32 62.17h-.1v-.06h.26v.06h-.1v.26h-.07v-.26m.55-.05v.32h-.06v-.2l-.09.19h-.04l-.09-.19v.2h-.06v-.32h.06l.11.23.1-.23z" class="cls-4"/><path d="m50.8 33.56-47.24 7.6V4.32H50.8z" style="fill:#fff;stroke:#000;stroke-miterlimit:10"/><path d="m20.06 7.58-.62.94 4.83 3.22c.27-.26.6-.5.98-.7zm15.37 0-5.19 3.46c.39.2.71.44.98.7l4.83-3.22zm-7.68 4.03c-1.38 0-2.21.44-2.73.96-.29.29-.47.62-.58.91h6.62c-.11-.29-.29-.62-.58-.91-.52-.52-1.35-.96-2.73-.96m-12 3c-.32 0-.69.17-.98.46s-.46.66-.46.98v17.44h26.88V16.05c0-.34-.17-.71-.45-.99s-.65-.44-.93-.44H15.75Zm1.89 1.43h16.11c.65 0 1.3.43 1.67 1H18.74c-1 0-2 1-2 2v10c1.62-10.16 9.12-11.61 18.69-11.99.19.3.31.64.31.99v12c0 1-1 2-2.12 2H17.7c-.96 0-1.96-1-1.96-2v-12c0-1 1-2 1.9-2m20.54.44c.86 0 1.56.71 1.56 1.56s-.71 1.56-1.56 1.56-1.56-.71-1.56-1.56.71-1.56 1.56-1.56m-1.43 9h3v1.12h-3zm0 2h3v1.12h-3zm0 2h3v1.12h-3z" style="stroke-width:0"/><path d="M6.37 45.26c0 .57-.13 1.04-.41 1.4-.27.36-.65.58-1.13.65-.48.08-.85-.02-1.13-.29-.27-.27-.41-.69-.42-1.25v-.73c0-.59.14-1.06.41-1.44s.65-.6 1.13-.67c.47-.08.85.03 1.12.31q.405.42.42 1.29v.73Zm-.86-.58c0-.38-.05-.66-.16-.83s-.28-.24-.51-.2-.4.15-.51.35-.17.48-.17.85v.76c0 .37.06.64.17.8s.28.22.52.18c.23-.04.39-.15.5-.34s.17-.47.17-.83v-.74Zm3.68.15-1.34.21v1.74l-.86.14v-4.27l2.36-.37V43l-1.5.24v1.09l1.34-.21zm2.86-.46-1.34.21v1.74l-.86.14v-4.27l2.36-.37v.72l-1.5.24v1.09l1.34-.21zm1.51.79 1.51-.24v.71l-2.37.38v-4.27l.86-.14v3.55Zm2.91.25-.86.14v-4.27l.86-.14zm3.71-.58-.86.14-1.26-2.6v2.8l-.86.14v-4.27l.86-.14 1.26 2.6v-2.8l.86-.14zm2.89-2.31-1.34.21v1.13l1.59-.25v.71l-2.45.39v-4.27l2.44-.39v.72l-1.58.25v1.01l1.34-.21v.69ZM7.69 51.48l-1.58.25v5.32l-1.3.21v-5.32l-1.56.25v-1.08l4.43-.7v1.08Zm4.04 1.91-2.01.32v1.7l2.38-.38v1.07l-3.67.58v-6.4l3.67-.58v1.08l-2.37.38v1.51l2.01-.32v1.04Zm2.41 1.32 2.27-.36v1.07l-3.56.56v-6.4l1.29-.2zm6.32-2.7-2.01.32v1.7l2.38-.38v1.07l-3.67.58v-6.4l3.67-.58v1.08l-2.37.38v1.51l2.01-.32v1.04Zm3.19.51 1.08-4.81 1.44-.23-1.85 6.69-1.34.21-1.83-6.11 1.43-.23 1.07 4.47Zm4.47 1.05-1.29.2v-6.4l1.29-.2zm3.79-2.28c0-.26-.07-.45-.2-.56s-.38-.21-.73-.3c-.64-.14-1.1-.35-1.38-.64-.28-.28-.42-.64-.42-1.09 0-.54.19-1 .57-1.39s.87-.63 1.46-.72c.39-.06.74-.04 1.05.08s.54.31.71.59.25.61.25.99l-1.29.2c0-.3-.06-.52-.19-.65-.13-.14-.31-.19-.55-.15-.23.04-.4.13-.53.28s-.19.34-.19.57c0 .18.07.32.21.44s.39.23.75.32c.62.13 1.08.33 1.36.62.28.28.42.68.42 1.19 0 .56-.18 1.02-.53 1.39s-.84.6-1.45.7c-.41.07-.79.04-1.13-.08s-.61-.32-.8-.6-.29-.64-.29-1.08l1.3-.21c0 .37.07.63.22.77.14.14.38.19.7.14.45-.07.68-.34.68-.82Zm3.51 1.12-1.29.2v-6.4l1.29-.2zm5.59-3.51c0 .86-.2 1.56-.61 2.1s-.97.87-1.69.98-1.28-.03-1.69-.44-.62-1.03-.62-1.88v-1.09c0-.88.2-1.6.61-2.16s.97-.89 1.7-1.01c.71-.11 1.27.04 1.68.46s.62 1.07.62 1.94v1.09Zm-1.3-.86c0-.58-.08-.99-.25-1.25-.16-.25-.42-.36-.76-.3-.34.05-.6.23-.76.53s-.25.72-.25 1.28v1.14c0 .56.08.96.25 1.2s.42.33.77.28q.51-.075.75-.51c.16-.29.25-.7.25-1.25v-1.11Zm6.7 2.63-1.29.21-1.89-3.9v4.2l-1.29.21v-6.4l1.29-.21 1.89 3.9v-4.2l1.29-.2v6.4Z" class="cls-4"/></svg>