<svg xmlns="http://www.w3.org/2000/svg" id="SD28" viewBox="0 0 54.5 72.5"><defs><clipPath id="clippath"><circle cx="43.58" cy="63.59" r="1.36" class="cls-4"/></clipPath><style>.cls-4{fill:#fff;stroke-width:0}</style></defs><path d="M0 0h54.5v72.5H0z" style="stroke-width:0;fill:#ce91c0"/><path d="m10.3 60.34-7.04 1.78v7.04h7.04z" style="stroke-miterlimit:10;fill:none;stroke:#fff;stroke-width:.25px"/><path d="M3.26 68.26h7.04v.9H3.26zm1.13-2.08v-.62h.32v-.31h.32v-.31h.63v-.31h.32v-.31h-.95v.31H4.4v-.31h.32v-.31H6.3v.31h.32v.62H6.3v.31h-.32v.31h-.63v.31h1.27v.31H4.41Zm2.85 0v-.31h-.32v-.62h.32v-.31h-.32v-.62h.32v-.31h1.27v.31h.32v.62h-.32v.31h.63v.62h-.32v.31zm0-.31h1.27v-.31h-.63v-.31h-.63v.62Zm.63-.94h.63v-.62h-.95v.31h.32z" class="cls-4"/><path d="m48.09 68.05-1.33-.57-.02 1.44-1.12-.91-.4 1.39-.84-1.18-.76 1.22-.49-1.36-1.06.97-.1-1.44-1.29.65.29-1.41-1.42.27.66-1.28-1.43-.12.98-1.05-1.35-.5 1.23-.75-1.17-.85 1.39-.39-.9-1.13h1.44l-.55-1.33 1.39.38-.18-1.43 1.23.75.22-1.43.98 1.06.6-1.32.66 1.28.93-1.11.29 1.41 1.19-.81-.09 1.44 1.36-.47-.48 1.36 1.44-.08-.83 1.18 1.41.31-1.12.92 1.27.68-1.32.57 1.04 1-1.43.2.73 1.24-1.42-.19z" style="stroke-width:0;fill:#e4b523"/><path d="M43.58 66.31v-.98a1.8 1.8 0 0 0 1.26-.51c.16-.16.3-.36.39-.57s.14-.44.14-.67-.05-.46-.14-.67-.22-.41-.39-.57a1.77 1.77 0 0 0-1.26-.51v-.98c.72 0 1.42.29 1.93.8a2.724 2.724 0 0 1 0 3.86c-.51.51-1.2.8-1.93.8" class="cls-4"/><circle cx="43.58" cy="63.59" r="1.36" style="fill:#fff"/><path d="M43.58 64.95c.75 0 1.36-.61 1.36-1.36s-.61-1.36-1.36-1.36-1.36.61-1.36 1.36.61 1.36 1.36 1.36" class="cls-4" style="clip-path:url(#clippath)"/><path d="M46.39 62.17h-.1v-.06h.26v.06h-.1v.26h-.07v-.26m.56-.05v.32h-.06v-.2l-.09.19h-.04l-.09-.19v.2h-.06v-.32h.06l.11.23.1-.23z" class="cls-4"/><path d="m50.87 34.13-47.24 7.6V4.89h47.24z" style="fill:#fff;stroke:#000;stroke-miterlimit:10"/><path d="m20.14 8.34.11 1.37-1.04.89 1.34.32.52 1.27.72-1.17 1.36-.11-.89-1.04.32-1.33-1.27.52-1.17-.71Zm21.33.55c-.55 0-1 .45-1 1s.45 1 1 1 1-.45 1-1-.45-1-1-1m-14.01.65c-.55 0-1 .45-1 1s.45 1 1 1 1-.45 1-1-.45-1-1-1m11.49.43c-.58.11-1.11.45-1.62.89-.48.41-.92.92-1.29 1.47-1.17.19-2.35.67-3.14 1.32-1.01.82-1.9 2.24-2.39 3.69-.46.19-.9.43-1.26.68-.97.68-1.47 1.99-1.84 3.12-.37 1.14-.55 2.14-.55 2.14l1.11.2s.17-.94.51-1.99c.34-1.06.92-2.21 1.42-2.55.08-.06.19-.12.28-.18-.04.36-.04.71.02 1.05.11.71.5 1.39 1.19 1.76.49.26 1.04.2 1.5.01s.88-.51 1.23-.89.65-.82.83-1.29c.17-.47.24-1 .01-1.49-.24-.52-.71-.86-1.21-1.01s-1.04-.14-1.58-.06c-.09.01-.18.04-.27.06.46-.99 1.12-1.92 1.72-2.41.39-.32 1.04-.62 1.73-.85-.09.24-.16.47-.19.72-.1.66.04 1.37.57 1.86.38.35.89.41 1.34.33.44-.07.88-.27 1.26-.53.39-.26.73-.59.98-.97.24-.38.41-.87.25-1.36-.21-.64-.72-1.07-1.29-1.27-.24-.09-.5-.14-.76-.17.18-.2.37-.39.56-.56.42-.36.86-.59 1.1-.64l-.21-1.11ZM23.4 12.16l-.95.6 2.16 3.45-3.52.18L22.75 20l1.02-.48-.97-2.1 3.79-.19-3.18-5.08Zm13.52 1.21c.38 0 .72.04.97.13.34.12.51.27.59.55.02.07.01.21-.12.41-.14.21-.38.45-.66.64s-.59.32-.83.36-.34 0-.39-.04c-.22-.2-.28-.45-.22-.87.05-.34.21-.74.44-1.16.08 0 .14-.01.21-.01m-18.5 1.19c-.55 0-1 .45-1 1s.45 1 1 1 1-.45 1-1-.45-1-1-1m22.25 2.33-.9 1.04-1.36-.11.71 1.18-.53 1.26 1.34-.31 1.04.89.12-1.37 1.17-.71-1.26-.53-.32-1.33Zm-7.71 1.03c.18 0 .35.03.48.07.27.07.41.19.51.4.06.12.06.34-.04.62-.11.29-.33.63-.59.91s-.58.51-.84.61-.42.1-.53.04c-.36-.2-.54-.49-.61-.95-.06-.39-.02-.89.11-1.43.31-.11.61-.19.91-.24.22-.03.42-.04.61-.04M20.3 21.17c-.45-.01-.73.09-.91.27s-.28.46-.27.91c.01.46.16 1.06.45 1.72.57 1.34 1.71 2.96 3.23 4.49 1.52 1.52 3.14 2.64 4.49 3.22.66.29 1.26.44 1.72.45.46.02.73-.09.91-.27s.29-.45.27-.91c-.01-.46-.16-1.06-.45-1.73-.58-1.34-1.7-2.96-3.22-4.48s-3.14-2.65-4.49-3.23c-.67-.29-1.27-.44-1.72-.45m14.49 1.97-2.06 3.38-1.82-1.74-.77.81 2.82 2.71 2.11-3.45 2.42 2.02 5.58-2.39-.44-1.04-4.96 2.12zm-16.49.79-1.1 3.62c2.59 3.07 5.61 4.79 8.88 5.92l1.35-.41c-.19-.07-.4-.15-.61-.24-1.52-.65-3.23-1.85-4.83-3.46-1.61-1.61-2.81-3.31-3.46-4.84-.09-.2-.17-.4-.23-.59m-1.49 4.89-.88 2.88c1.81 1.69 3.69 2.45 5.66 3.14l2.71-.83c-2.7-1.1-5.25-2.71-7.5-5.19m18.66.08c-.55 0-1 .45-1 1s.45 1 1 1 1-.45 1-1-.45-1-1-1m-19.89 3.99-1.27 4.16 5.52-1.68c-1.42-.57-2.86-1.29-4.25-2.48M4.79 45.18l-.89.14v1.16l-.57.09v-2.84l1.57-.25v.48l-1 .16v.73l.89-.14v.48Zm1.3-.08-.29.04v1.04l-.57.09v-2.84l.92-.14c.29-.05.51 0 .67.12q.24.18.24.6c0 .38-.14.66-.41.86l.5 1.09v.03l-.62.1-.43-.97Zm-.28-.44.33-.05c.11-.02.2-.07.26-.15.06-.09.09-.19.09-.32 0-.29-.11-.41-.33-.38l-.34.05v.85Zm2.23 1.17-.57.09v-2.84l.57-.09zM10 44.29l-.89.14v.75l1.06-.17v.48l-1.63.26v-2.84l1.63-.26v.48l-1.05.17v.67l.89-.14v.46Zm2.48.83-.57.09-.84-1.73v1.87l-.57.09V42.6l.57-.09.84 1.73v-1.87l.57-.09zm.46-.07v-2.84l.75-.12c.33-.05.6.01.79.19s.3.45.3.82v.46q0 .555-.3.93c-.3.375-.47.39-.81.45l-.74.12Zm.57-2.46v1.89l.17-.03c.19-.03.33-.1.4-.21q.12-.165.12-.54v-.49c0-.27-.04-.45-.11-.54s-.2-.13-.38-.11l-.21.03Zm2.89 1.17c0-.12-.03-.2-.09-.25s-.17-.09-.32-.13c-.29-.06-.49-.16-.62-.28a.7.7 0 0 1-.19-.49c0-.24.09-.45.25-.62.17-.17.39-.28.65-.32a.8.8 0 0 1 .47.04c.14.05.24.14.32.26.07.12.11.27.11.44l-.57.09c0-.13-.03-.23-.08-.29-.06-.06-.14-.08-.25-.07-.1.02-.18.06-.23.13-.06.07-.08.15-.08.25 0 .08.03.14.09.2.06.05.17.1.33.14q.42.09.6.27c.13.12.19.3.19.53 0 .25-.08.45-.24.62-.16.16-.37.27-.64.31-.18.03-.35.02-.5-.03a.63.63 0 0 1-.35-.27.82.82 0 0 1-.13-.48l.58-.09c0 .16.03.28.1.34.06.06.17.08.31.06.2-.03.3-.15.3-.37Zm1.79-.31c0-.13.03-.26.09-.38s.17-.26.34-.42c-.07-.1-.13-.2-.17-.29a.8.8 0 0 1-.06-.3c0-.22.06-.41.19-.57.12-.16.29-.25.5-.29.19-.03.34.01.46.12s.18.26.18.44c0 .25-.1.47-.31.67l-.16.15.37.45c.05-.14.07-.29.07-.44l.47-.07c0 .37-.07.67-.21.92l.37.46-.63.1-.1-.13c-.17.15-.36.25-.58.28-.24.04-.43 0-.58-.13-.15-.12-.22-.31-.22-.55Zm.83.22c.1-.02.2-.07.29-.15l-.45-.57h-.01a.7.7 0 0 0-.1.37c0 .11.03.2.08.26s.11.09.19.08Zm-.13-1.7c0 .09.04.2.13.32l.09-.08q.075-.075.12-.15c.02-.05.04-.11.04-.19 0-.07-.02-.12-.06-.16s-.08-.06-.13-.05c-.06 0-.1.04-.14.1-.03.06-.05.13-.05.21m4.1.33-.89.14v1.16l-.57.09v-2.84l1.57-.25v.48l-1 .16v.73l.89-.14v.48Zm1.42.35-.78.12-.15.61-.61.1.89-2.98.53-.08.89 2.7-.61.1-.15-.56Zm-.66-.37.53-.08-.27-.97-.27 1.06Zm2.44-2.17.54 1.97.54-2.14.75-.12v2.84l-.58.09v-.77l.05-1.19-.57 2.04-.39.06-.57-1.87.05 1.18v.77l-.57.09v-2.84l.75-.12Zm2.88 2.39-.57.09v-2.84l.57-.09zm1.06-.65 1.01-.16v.48l-1.58.25v-2.84l.57-.09v2.37Zm1.65-1.35.43-1.34.63-.1-.76 1.93v1.03l-.58.09v-1.03l-.76-1.69.62-.1.43 1.21ZM4.71 52.36v2l-1.15.18v-5.69l1.94-.31c.56-.09 1.01.01 1.35.31.33.29.5.72.5 1.28s-.17 1.02-.5 1.4-.79.61-1.38.7l-.77.12Zm0-.96.79-.12c.22-.04.39-.13.51-.29s.18-.38.18-.65-.06-.5-.18-.65a.5.5 0 0 0-.49-.18l-.8.13v1.77Zm5.42.93-1.57.25-.3 1.21-1.21.19 1.78-5.97 1.05-.17 1.79 5.4-1.23.19-.3-1.12Zm-1.32-.75 1.06-.17-.53-1.94zm5.1-.76-.57.09v2.08l-1.15.18v-5.69l1.83-.29c.58-.09 1.02-.01 1.33.24s.47.65.47 1.2c0 .75-.27 1.33-.82 1.72l1 2.17v.05l-1.23.2-.85-1.94Zm-.57-.87.65-.1c.23-.04.4-.14.52-.31.11-.17.17-.38.17-.64 0-.57-.22-.82-.67-.75l-.67.11v1.7Zm6.77-2.76-1.41.22v4.73l-1.15.18v-4.73l-1.38.22v-.96l3.94-.62zm2.43 1.21.86-2.69 1.25-.2-1.52 3.87v2.06l-1.16.18v-2.06l-1.53-3.38 1.25-.2.86 2.42Zm8.34 1.17c-.22.27-.49.5-.81.67s-.67.29-1.06.35c-.65.1-1.16-.02-1.52-.37s-.55-.91-.56-1.68v-1.02c0-.78.17-1.42.51-1.89q.51-.72 1.5-.87c.62-.1 1.08-.02 1.4.24.31.25.5.7.54 1.35l-1.12.18c-.03-.36-.11-.59-.23-.7s-.31-.15-.56-.11c-.31.05-.54.2-.68.45s-.21.62-.22 1.12v1.03c0 .52.08.88.23 1.09s.41.29.76.23c.23-.04.41-.11.55-.22l.1-.09v-1.04l-.81.13v-.87l1.96-.31v2.35Zm3.53-1.08-1.57.25-.3 1.21-1.21.19 1.78-5.97 1.05-.17 1.79 5.4-1.23.19-.31-1.12Zm-1.32-.75 1.06-.17-.53-1.94zm4.88-4.34 1.07 3.94 1.07-4.28 1.5-.24v5.69l-1.15.18v-1.54l.1-2.39-1.14 4.09-.78.12-1.14-3.73.11 2.35v1.54l-1.15.18v-5.69l1.5-.24Zm7.5 2.04-1.79.28v1.51l2.12-.34v.95l-3.27.52v-5.69l3.26-.52v.96l-2.11.33v1.34l1.79-.28v.93Zm3.39.43c0-.23-.06-.4-.18-.5s-.33-.19-.65-.27c-.57-.12-.98-.31-1.23-.56s-.38-.57-.38-.97c0-.48.17-.89.51-1.24.34-.34.77-.56 1.29-.64.35-.05.66-.03.93.07s.48.28.63.52c.15.25.22.54.22.88l-1.15.18c0-.27-.06-.46-.17-.58s-.28-.17-.49-.13c-.2.03-.36.12-.47.25-.11.14-.17.31-.17.51 0 .16.06.29.19.39s.35.2.66.29c.55.11.96.29 1.21.55.25.25.38.6.38 1.05 0 .5-.16.91-.47 1.24s-.74.54-1.28.62c-.37.06-.7.04-1-.07-.3-.1-.54-.28-.71-.54-.17-.25-.26-.57-.26-.96l1.15-.18c0 .33.06.56.19.68.13.13.34.17.62.12.4-.06.6-.31.6-.73Z" style="stroke-width:0"/></svg>