<svg xmlns="http://www.w3.org/2000/svg" id="SD24" viewBox="0 0 54.5 72.5"><defs><clipPath id="clippath"><circle cx="43.54" cy="63.59" r="1.36" class="cls-4"/></clipPath><style>.cls-4{fill:#fff;stroke-width:0}</style></defs><path d="M-.04 0h54.5v72.5H-.04z" style="stroke-width:0;fill:#9cafda"/><path d="m10.27 60.34-7.05 1.78v7.04h7.05z" style="stroke-miterlimit:10;fill:none;stroke:#fff;stroke-width:.25px"/><path d="M3.22 68.26h7.04v.9H3.22zm1.13-2.08v-.62h.32v-.31h.32v-.31h.63v-.31h.32v-.31h-.95v.31h-.63v-.31h.32v-.31h1.58v.31h.32v.62h-.32v.31h-.32v.31h-.63v.31h1.27v.31H4.37Zm3.8 0v-.62H6.88v-.62h.32v-.31h.32v-.31h.32v-.31h.95v1.25h.32v.31h-.32v.62h-.63Zm-.63-.93h.63v-.62h-.32v.31h-.32v.31Z" class="cls-4"/><path d="m48.05 68.05-1.32-.57-.02 1.44-1.12-.91-.41 1.39-.83-1.18-.77 1.22-.48-1.36-1.07.97-.1-1.44-1.29.65.29-1.41-1.41.27.66-1.28-1.44-.12.98-1.05-1.35-.5 1.23-.75-1.16-.85 1.38-.39-.89-1.13h1.44l-.56-1.33 1.39.38-.18-1.43 1.24.75.21-1.43.99 1.06.59-1.32.67 1.28.92-1.11.3 1.41 1.19-.81-.1 1.44 1.36-.47-.48 1.36 1.44-.08-.83 1.18 1.41.31-1.12.92 1.28.68-1.33.57 1.04 1-1.42.2.73 1.24-1.43-.19z" style="stroke-width:0;fill:#e4b523"/><path d="M43.54 66.31v-.98a1.8 1.8 0 0 0 1.26-.51c.16-.16.3-.36.39-.57s.14-.44.14-.67-.05-.46-.14-.67-.22-.41-.39-.57a1.77 1.77 0 0 0-1.26-.51v-.98c.72 0 1.42.29 1.93.8a2.724 2.724 0 0 1 0 3.86c-.51.51-1.2.8-1.93.8" class="cls-4"/><circle cx="43.54" cy="63.59" r="1.36" style="fill:#fff"/><path d="M43.54 64.95c.75 0 1.36-.61 1.36-1.36s-.61-1.36-1.36-1.36-1.36.61-1.36 1.36.61 1.36 1.36 1.36" class="cls-4" style="clip-path:url(#clippath)"/><path d="M46.35 62.17h-.1v-.06h.26v.06h-.1v.26h-.07v-.26m.56-.05v.32h-.06v-.2l-.09.19h-.04l-.09-.19v.2h-.06v-.32h.06l.11.23.1-.23z" class="cls-4"/><path d="M50.83 34.13 3.6 41.73V4.89h47.23z" style="fill:#fff;stroke:#000;stroke-miterlimit:10"/><path d="M17.67 8.31c-.77.02-1.58.77-2.29 1.85.39-.29.81-.54 1.24-.76-1.98 1.46-2.92 5.23-2.95 7.65.82-1.19 2.52-3.13 4.1-2.21-1.81-.38-2.96 2.4-3.53 3.66 1.43-.59 2.47-1.51 4.53-1.53-2.03 1.34-2.75 2.8-3.53 4.26 1.46-.91 2.52-1.44 3.47-1.64.86-1.03 1.75-2.07 2.73-2.92.74-.64 1.53-1.18 2.4-1.5-1.05-2.88-2.67-5.55-5.6-6.72-.19-.1-.38-.14-.58-.14Zm7.08 7.76c-.88.21-1.72.72-2.56 1.45-1.1.95-2.15 2.24-3.18 3.48s-2.04 2.44-3.14 3.23c-.85.6-1.82.95-2.81.79.18.9.62 2.08 1.21 3.15.79 1.43 1.88 2.71 2.78 3.16.41.21.79.21 1.33.08.54-.14 1.22-.43 2.05-.78 1.66-.7 3.97-1.56 7.36-1.56s5.69.86 7.36 1.56c.83.35 1.51.65 2.05.78.54.14.91.13 1.33-.08.9-.45 1.99-1.73 2.78-3.16.59-1.08 1.03-2.25 1.21-3.15-.99.16-1.97-.18-2.81-.79-1.1-.79-2.11-1.99-3.14-3.23s-2.08-2.53-3.18-3.48c-.84-.73-1.68-1.24-2.56-1.45.19.87 0 1.65-.47 2.19-.63.72-1.6 1.02-2.55 1.02s-1.92-.3-2.55-1.02c-.47-.54-.66-1.31-.47-2.19Zm7.06 2.24c.53-.02 1.11.66.5 1.4 1.02-.94 1.93.38.86.86-.83.38-1.62.84-2.37 1.37.07.2.1.41.1.62 0 .64-.17 1.22-.68 1.67l-.07.07v.37c.86.66 1.83 1.19 2.91 1.56 1.25.43.34 1.96-1 .99 1.13 1.17-.41 2.06-.89.89-.29-.7-.65-1.36-1.06-1.99-.09.07-.29.18-.58.28v-1.21h-.58v1.35c-.25.06-.41.1-.74.12v-1.28h-.71v1.29c-.31-.01-.47-.05-.72-.1V25.2h-.58v1.25a4.3 4.3 0 0 1-.73-.31v-.02c-.42.63-.77 1.3-1.06 1.99-.48 1.16-2.02.27-.89-.89-1.33.97-2.25-.57-1-1 1.08-.37 2.04-.9 2.9-1.55v-.29l-.01-.1-.07-.06c-.5-.45-.67-1.03-.67-1.66 0-.21.03-.42.1-.61-.75-.53-1.54-.98-2.37-1.36-1.07-.49-.16-1.81.86-.86-.6-.73-.06-1.39.46-1.4.22 0 .44.11.56.38.36.77.75 1.5 1.19 2.19.56-.5 1.36-.82 2.26-.83h.06c.93 0 1.75.32 2.31.83q.66-1.035 1.2-2.19c.12-.26.32-.37.53-.38Zm-5.99 3.93c-.28 0-.49.12-.5.45a.97.97 0 0 0 1.94 0s-.86-.46-1.43-.45Zm3.91 0c-.57 0-1.43.45-1.43.45a.97.97 0 0 0 1.94 0c-.01-.34-.22-.45-.5-.45m-1.97 1.18-.5 1.11h1z" style="stroke-width:0"/><path d="M5.67 49.7v3.25l-1.87.3v-9.24l3.15-.5c.91-.14 1.64.02 2.19.5.54.48.82 1.17.82 2.08s-.27 1.66-.81 2.27-1.28.99-2.23 1.14l-1.24.2Zm0-1.56 1.28-.2c.36-.06.63-.22.83-.48.19-.26.29-.62.29-1.06s-.1-.81-.3-1.05-.46-.34-.8-.29l-1.3.21v2.88Zm7.48 3.62-1.87.3v-9.24l1.87-.3zm4.37-4.07-.93.15v3.38l-1.87.3v-9.24l2.98-.47c.93-.15 1.66-.02 2.17.38s.76 1.05.76 1.95c0 1.23-.45 2.16-1.34 2.79l1.62 3.53v.09l-2.01.32-1.39-3.16Zm-.93-1.4 1.06-.17c.37-.06.65-.23.84-.5.19-.28.28-.62.28-1.04 0-.93-.36-1.33-1.09-1.22l-1.09.17zm9.74 1.49-2.55.4-.5 1.97-1.97.31 2.89-9.7 1.71-.27 2.91 8.78-1.99.32-.49-1.81Zm-2.14-1.21 1.73-.27-.86-3.16-.86 3.43Zm10.71-5.94-2.29.36v7.69l-1.87.3v-7.69l-2.25.36V40.1l6.41-1.01v1.55Zm5.85 2.76-2.91.46v2.45l3.44-.54v1.55l-5.31.84v-9.24l5.29-.84v1.55l-3.43.54v2.18l2.91-.46v1.5Zm5.51.7c0-.38-.1-.65-.29-.81s-.54-.31-1.05-.43c-.93-.2-1.59-.51-2-.92s-.61-.93-.61-1.58c0-.78.28-1.45.83-2.01s1.25-.91 2.11-1.04c.57-.09 1.07-.05 1.52.12s.79.45 1.03.85.36.87.36 1.43l-1.86.29c0-.43-.09-.75-.28-.94-.18-.2-.45-.27-.8-.21-.33.05-.58.19-.76.41s-.27.5-.27.82c0 .25.1.47.3.64s.56.33 1.08.47c.9.18 1.56.48 1.96.89.41.41.61.98.61 1.71 0 .8-.26 1.47-.77 2.01-.51.53-1.21.87-2.09 1.01-.6.09-1.14.06-1.63-.11s-.88-.46-1.15-.87c-.28-.41-.42-.93-.42-1.55l1.87-.3c0 .53.1.9.31 1.11s.55.27 1.02.2c.65-.1.98-.5.98-1.19" style="stroke-width:0;fill:#0a2747"/></svg>