<svg xmlns="http://www.w3.org/2000/svg" id="SD1" viewBox="0 0 54.5 72.5"><defs><clipPath id="clippath"><circle cx="43.54" cy="63.59" r="1.36" class="cls-4"/></clipPath><style>.cls-4{fill:#fff;stroke-width:0}</style></defs><path d="M0 0h54.5v72.5H0z" style="stroke-width:0;fill:#55585a"/><path d="m10.27 60.34-7.05 1.78v7.04h7.05z" style="stroke-miterlimit:10;fill:none;stroke:#fff;stroke-width:.25px"/><path d="M3.22 68.26h7.04v.9H3.22zm1.64-1.59v-1h.51v-.5h.51v-.5h1.01v-.5h.51v-.5H5.88v.5H4.87v-.5h.51v-.5h2.53v.5h.51v1h-.51v.5H7.4v.5H6.39v.5h2.02v.5H4.87Z" class="cls-4"/><path d="m48.05 68.05-1.32-.57-.02 1.44-1.12-.91-.41 1.39-.83-1.18-.77 1.22-.48-1.36-1.07.97-.1-1.44-1.29.65.29-1.41-1.41.27.66-1.28-1.44-.12.98-1.05-1.35-.5 1.23-.75-1.16-.85 1.38-.39-.89-1.13h1.44l-.56-1.33 1.39.38-.18-1.43 1.24.75.21-1.43.99 1.06.59-1.32.67 1.28.92-1.11.3 1.41 1.19-.81-.1 1.44 1.36-.47-.48 1.36 1.44-.08-.83 1.18 1.41.31-1.12.92 1.28.68-1.33.57 1.04 1-1.42.2.73 1.24-1.43-.19z" style="stroke-width:0;fill:#e4b523"/><path d="M43.54 66.31v-.98a1.8 1.8 0 0 0 1.26-.51c.16-.16.3-.36.39-.57s.14-.44.14-.67-.05-.46-.14-.67-.22-.41-.39-.57a1.77 1.77 0 0 0-1.26-.51v-.98c.72 0 1.42.29 1.93.8a2.724 2.724 0 0 1 0 3.86c-.51.51-1.2.8-1.93.8" class="cls-4"/><circle cx="43.54" cy="63.59" r="1.36" style="fill:#fff"/><path d="M43.54 64.95c.75 0 1.36-.61 1.36-1.36s-.61-1.36-1.36-1.36-1.36.61-1.36 1.36.61 1.36 1.36 1.36" class="cls-4" style="clip-path:url(#clippath)"/><path d="M46.35 62.17h-.1v-.06h.26v.06h-.1v.26h-.07v-.26m.56-.05v.32h-.06v-.2l-.09.19h-.04l-.09-.19v.2h-.06v-.32h.06l.11.23.1-.23z" class="cls-4"/><path d="m50.87 34.13-47.24 7.6V4.89h47.24z" style="fill:#fff;stroke:#000;stroke-miterlimit:10"/><path d="M33.45 7.48v12.44h1.12v-.88h2.88v.88h1.12V7.48h-1.12v2.44h-2.88V7.48zm1.13 3.56h2.88v2.88h-2.88zm0 4h2.88v2.88h-2.88zm-23 6v2.88h28.88v-2.88zm1.87 4v12.44h1.12v-2.44h2.88v2.44h1.12V25.04h-1.12v.88h-2.88v-.88zm1.13 2h2.88v2.88h-2.88zm0 4h2.88v2.88h-2.88z" style="stroke-width:0"/><path id="Text" d="m5.01 46.74-.5.08v1.82l-1.01.16v-4.98l1.6-.25q.75-.12 1.17.21c.27.22.41.57.41 1.05q0 .99-.72 1.5l.87 1.9v.05l-1.08.17-.75-1.7Zm-.5-.76.57-.09q.3-.045.45-.27c.1-.15.15-.34.15-.56 0-.5-.19-.72-.58-.66l-.59.09v1.48Zm5.44-.36-1.57.25v1.32l1.85-.29v.83l-2.86.45V43.2l2.85-.45v.84l-1.85.29v1.18l1.57-.25v.81Zm4.15-2.64-1.23.19v4.14l-1.01.16v-4.14l-1.21.19v-.84l3.45-.55v.84Zm2.09 1.99-.5.08v1.82l-1 .16v-4.98l1.6-.25q.75-.12 1.17.21c.27.22.41.57.41 1.05q0 .99-.72 1.5l.87 1.9v.05l-1.08.17-.75-1.7Zm-.5-.76.57-.09q.3-.045.45-.27c.1-.15.15-.34.15-.56 0-.5-.19-.72-.58-.66l-.59.09v1.48Zm6.37-.39c0 .67-.16 1.21-.47 1.63-.32.42-.75.67-1.31.76s-1-.02-1.32-.34c-.32-.31-.48-.8-.49-1.46v-.85q0-1.02.48-1.68c.48-.66.76-.7 1.32-.79.55-.09.99.03 1.31.36s.48.83.49 1.51v.85Zm-1.01-.68c0-.45-.06-.77-.19-.97s-.33-.28-.59-.23c-.27.04-.46.18-.59.41s-.19.56-.2.99v.88c0 .44.06.75.19.93q.195.285.6.21c.26-.04.46-.17.58-.39.13-.22.19-.54.19-.97v-.87ZM6.92 54.49l-2.01.32v1.7l2.38-.38v1.07l-3.67.58v-6.4l3.67-.58v1.08l-2.37.38v1.51l2.01-.32v1.04Zm2.8-4.08 1.21 4.44 1.2-4.82 1.69-.27v6.4l-1.3.21v-1.73l.12-2.69-1.28 4.6-.88.14-1.28-4.2.12 2.65v1.73l-1.29.21v-6.4zm9.3-1.47v4.43c0 .67-.19 1.2-.55 1.61s-.88.67-1.55.77c-.69.11-1.21.01-1.57-.29s-.54-.79-.54-1.47v-4.4l1.3-.21v4.4q0 .54.18.75c.18.21.33.18.64.13q.465-.075.63-.33c.11-.17.17-.43.18-.79v-4.43l1.29-.2Zm2.27 4.97 2.27-.36v1.07l-3.56.56v-6.4l1.29-.2zm6.15-1.21-1.76.28-.34 1.36-1.37.22 2-6.72 1.18-.19 2.01 6.08-1.38.22zm-1.48-.85 1.2-.19-.6-2.19zm7.42-4.11-1.58.25v5.32l-1.3.21V48.2l-1.56.25v-1.08l4.43-.7v1.08Zm5.12 1.89c0 .86-.2 1.56-.61 2.1s-.97.87-1.69.98-1.28-.03-1.69-.44-.62-1.03-.62-1.88V49.3c0-.88.2-1.6.61-2.16s.97-.89 1.7-1.01c.71-.11 1.27.04 1.68.46s.62 1.07.62 1.94v1.09Zm-1.29-.87c0-.58-.08-.99-.25-1.25-.16-.26-.42-.36-.76-.3-.34.05-.6.23-.76.53s-.25.72-.25 1.28v1.14c0 .56.08.96.25 1.2s.42.33.77.28q.51-.075.75-.51c.16-.28.25-.7.25-1.25v-1.11Zm4.16.7-.64.1v2.34l-1.29.2v-6.4l2.06-.33q.975-.15 1.5.27c.35.28.53.73.53 1.35 0 .85-.31 1.49-.93 1.93l1.12 2.44v.06l-1.39.22-.96-2.19Zm-.64-.97.73-.12c.26-.04.45-.16.58-.35s.19-.43.19-.72q0-.96-.75-.84l-.76.12v1.91Zm6.39.72c0-.26-.07-.45-.2-.56s-.38-.21-.73-.3c-.64-.14-1.1-.35-1.38-.64-.28-.28-.42-.65-.42-1.09 0-.54.19-1 .57-1.39s.87-.63 1.46-.72c.39-.06.74-.03 1.05.08.31.12.54.31.71.59s.25.6.25.99l-1.29.2c0-.3-.06-.52-.19-.65-.13-.14-.31-.19-.55-.15-.23.04-.4.13-.53.28s-.19.34-.19.57c0 .18.07.32.21.44s.39.23.75.32c.62.13 1.08.33 1.36.62.28.28.42.68.42 1.19 0 .56-.18 1.02-.53 1.39s-.84.6-1.45.7c-.41.07-.79.04-1.13-.08s-.61-.32-.8-.6-.29-.64-.29-1.08l1.3-.21c0 .37.07.63.22.77.14.14.38.19.7.14.45-.07.68-.35.68-.82Z" style="stroke-width:0;fill:#77d0ef"/></svg>