<svg xmlns="http://www.w3.org/2000/svg" id="SD15" viewBox="0 0 54.5 72.5"><defs><clipPath id="clippath"><circle cx="43.54" cy="63.59" r="1.36" class="cls-4"/></clipPath><style>.cls-4{fill:#fff}.cls-4,.cls-6{stroke-width:0}</style></defs><path d="M0 0h54.5v72.5H0z" style="stroke-width:0;fill:#9ace7b"/><path d="m48.05 68.05-1.32-.57-.02 1.44-1.12-.91-.41 1.39-.83-1.18-.77 1.22-.48-1.36-1.07.97-.1-1.44-1.29.65.29-1.41-1.41.27.66-1.28-1.44-.12.98-1.05-1.35-.5 1.23-.75-1.16-.85 1.38-.39-.89-1.13h1.44l-.56-1.33 1.39.38-.18-1.43 1.24.75.21-1.43.99 1.06.59-1.32.67 1.28.92-1.11.3 1.41 1.19-.81-.1 1.44 1.36-.47-.48 1.36 1.44-.08-.83 1.18 1.41.31-1.12.92 1.28.68-1.33.57 1.04 1-1.42.2.73 1.24-1.43-.19z" style="stroke-width:0;fill:#e4b523"/><path d="M43.54 66.31v-.98a1.8 1.8 0 0 0 1.26-.51c.16-.16.3-.36.39-.57s.14-.44.14-.67-.05-.46-.14-.67-.22-.41-.39-.57a1.77 1.77 0 0 0-1.26-.51v-.98c.72 0 1.42.29 1.93.8a2.724 2.724 0 0 1 0 3.86c-.51.51-1.2.8-1.93.8" class="cls-4"/><circle cx="43.54" cy="63.59" r="1.36" style="fill:#fff"/><path d="M43.54 64.95c.75 0 1.36-.61 1.36-1.36s-.61-1.36-1.36-1.36-1.36.61-1.36 1.36.61 1.36 1.36 1.36" class="cls-4" style="clip-path:url(#clippath)"/><path d="M46.35 62.17h-.1v-.06h.26v.06h-.1v.26h-.07v-.26m.56-.05v.32h-.06v-.2l-.09.19h-.04l-.09-.19v.2h-.06v-.32h.06l.11.23.1-.23z" class="cls-4"/><path d="m10.27 60.34-7.05 1.78v7.04h7.05z" style="stroke:#000;stroke-miterlimit:10;fill:none;stroke-width:.25px"/><path d="M3.22 68.26h7.04v.9H3.22zm1.45-2.08v-.31h.63v-1.25h-.32v-.31h.32V64h.63v1.88h.63v.31h-1.9Zm2.53 0v-.31h-.32v-.31h.63v.31h.95v-.94H6.88v-.94h1.9v.31H7.51v.31h1.27v.31h.32v.94h-.32v.31H7.2Z" class="cls-6"/><path d="m51.4 34.13-47.23 7.6V4.89H51.4z" style="fill:#fff;stroke:#000;stroke-miterlimit:10"/><path d="M19.85 6.45c-1.56.21-2.94 2.01-2.94 4.31 0 1.28.44 2.4 1.09 3.18l.64.76-.98.18c-.86.16-1.49.62-2.01 1.34-.53.72-.93 1.72-1.21 2.86-.51 2.1-.62 4.67-.63 6.91h2.75l.74 9.9h6.02l.66-9.9h2.62c0-2.26-.02-4.86-.49-6.98-.25-1.16-.64-2.15-1.17-2.87-.54-.71-1.2-1.17-2.16-1.31l-1-.16.63-.79c.62-.78 1.04-1.89 1.04-3.13 0-2.45-1.55-4.3-3.28-4.3zm20.05.5c-1.08 0-1.94.86-1.94 1.94s.86 1.94 1.94 1.94 1.94-.86 1.94-1.94-.86-1.94-1.94-1.94m-8.06 1.37v3H25.4v1.12h6.44v9.88H28.4v1.12h3.44v6.88H25.4v1.12h6.44v2h5.05c-.03-.18-.05-.37-.05-.56s.02-.38.05-.56h-3.92v-8.88h3.92c-.03-.18-.05-.37-.05-.56s.02-.38.05-.56h-3.92V9.44h3.92c-.03-.18-.05-.37-.05-.56s.02-.38.05-.56zm8.06 12.63c-1.08 0-1.94.86-1.94 1.94s.86 1.94 1.94 1.94 1.94-.86 1.94-1.94-.86-1.94-1.94-1.94m0 10c-1.08 0-1.94.86-1.94 1.94s.86 1.94 1.94 1.94 1.94-.86 1.94-1.94-.86-1.94-1.94-1.94" class="cls-6"/><path d="m5 45.85-.36.06v1.3l-.72.11v-3.55l1.15-.18c.36-.06.64 0 .83.15.2.16.29.4.29.75 0 .47-.17.83-.51 1.07l.62 1.36v.03l-.77.12L5 45.86Zm-.36-.55.41-.06a.46.46 0 0 0 .32-.19c.07-.11.11-.24.11-.4 0-.36-.14-.51-.42-.47l-.42.07v1.06Zm4.55-.28c0 .48-.11.86-.34 1.16s-.54.48-.94.54-.71-.02-.94-.24c-.23-.23-.34-.57-.35-1.04v-.61c0-.49.11-.89.34-1.2s.54-.5.94-.56.71.02.94.26c.23.23.34.59.35 1.08zm-.72-.48c0-.32-.05-.55-.14-.69s-.23-.2-.43-.17a.56.56 0 0 0-.42.29c-.09.17-.14.4-.14.71v.63c0 .31.05.53.14.66s.24.18.43.15a.55.55 0 0 0 .42-.28c.09-.16.14-.39.14-.69v-.62Zm1.95 1.15 1.26-.2v.6l-1.98.31v-3.55l.72-.11v2.96Zm3.51-1.5-1.12.18v.94l1.32-.21v.6l-2.04.32v-3.55l2.04-.32v.6l-1.32.21v.84l1.12-.18v.58Zm1.83.01-1.19.19v-.58l1.19-.19zm1.33-.22v1.25l-.72.11v-3.55l1.21-.19c.35-.06.63 0 .84.19.21.18.31.45.31.8s-.1.64-.31.87-.49.38-.86.44l-.48.08Zm0-.6.49-.08c.14-.02.24-.08.32-.19.08-.1.11-.24.11-.41s-.04-.31-.11-.41a.32.32 0 0 0-.31-.11l-.5.08v1.11Zm2.84.8 1.26-.2v.6l-1.98.31v-3.55l.72-.11v2.96Zm3.42-.67-.98.16-.19.76-.76.12 1.11-3.73.66-.1 1.12 3.38-.77.12-.19-.7Zm-.82-.47.66-.1-.33-1.21-.33 1.32Zm2.81-1.08.54-1.68.78-.12-.95 2.42v1.29l-.73.12V42.7l-.96-2.11.78-.12.54 1.51Zm2.39 1.58-.72.11V40.1l.72-.11zm3.09-.49-.72.11-1.05-2.17v2.33l-.72.11v-3.55l.72-.11 1.05 2.17v-2.33l.71-.11v3.55Zm2.99-.87q-.21.255-.51.42c-.2.11-.42.18-.66.22-.41.06-.73-.01-.95-.23-.23-.22-.34-.57-.35-1.05v-.64c0-.49.11-.88.32-1.18s.53-.48.94-.54q.585-.09.87.15c.2.16.31.44.34.84l-.7.11c-.02-.22-.07-.37-.14-.44-.08-.07-.19-.09-.35-.07a.55.55 0 0 0-.42.28c-.09.15-.13.39-.14.7v.64c0 .32.05.55.15.68q.15.195.48.15c.14-.02.26-.07.34-.14l.06-.05v-.65l-.5.08v-.54l1.22-.19v1.47Zm4.08-.65q-.21.255-.51.42c-.2.11-.42.18-.66.22-.41.06-.73-.01-.95-.23-.23-.22-.34-.57-.35-1.05v-.64c0-.49.11-.88.32-1.18s.53-.48.94-.54q.585-.09.87.15c.2.16.31.44.34.84l-.7.11c-.02-.22-.07-.37-.14-.44-.08-.07-.19-.09-.35-.07a.55.55 0 0 0-.42.28c-.09.15-.13.39-.14.7v.64c0 .32.05.55.15.68s.25.18.48.15c.14-.02.26-.07.34-.14l.06-.05v-.65l-.5.08v-.54l1.22-.19v1.47Zm2.21-.67-.98.15-.19.76-.76.12 1.11-3.73.66-.1 1.12 3.38-.77.12zm-.83-.47.66-.1-.33-1.21-.33 1.32Zm3.05-2.71.67 2.46.67-2.68.94-.15v3.55l-.72.11v-.96l.07-1.49-.71 2.56-.49.08-.71-2.33.07 1.47v.96l-.72.11v-3.55l.94-.15Zm4.69 1.27-1.12.18v.94l1.32-.21v.6l-2.04.32v-3.55l2.04-.32v.6l-1.32.21v.84l1.12-.18v.58Zm2.12.27c0-.14-.04-.25-.11-.31s-.21-.12-.4-.17c-.36-.08-.61-.2-.77-.35s-.23-.36-.23-.61c0-.3.11-.56.32-.77.21-.22.48-.35.81-.4.22-.03.41-.02.58.05s.3.17.39.33c.09.15.14.34.14.55l-.71.11c0-.17-.04-.29-.11-.36-.07-.08-.17-.1-.31-.08-.12.02-.22.07-.29.16s-.11.19-.11.32c0 .1.04.18.12.25q.12.105.42.18c.35.07.6.18.76.34q.24.24.24.66c0 .31-.1.57-.3.77-.2.21-.46.34-.8.39-.23.04-.44.02-.63-.04a.82.82 0 0 1-.44-.33c-.11-.16-.16-.36-.16-.6l.72-.11c0 .21.04.35.12.43s.21.11.39.08c.25-.04.38-.19.38-.46ZM6.9 54.72l-.86.14v3.12l-1.72.27v-8.53l2.75-.44c.86-.14 1.53-.02 2 .35s.71.97.71 1.8c0 1.13-.41 1.99-1.24 2.57l1.49 3.26v.08l-1.85.29zm-.85-1.3.98-.16c.34-.05.6-.21.77-.46s.26-.58.26-.96c0-.86-.33-1.23-1-1.12l-1.01.16zm6.64.51v3l-1.72.27v-8.53l2.91-.46c.84-.13 1.52.02 2.02.47s.75 1.08.75 1.92-.25 1.54-.74 2.1-1.18.91-2.06 1.05l-1.15.18Zm0-1.44 1.18-.19c.33-.05.58-.2.76-.44s.27-.57.27-.98-.09-.75-.28-.97c-.18-.22-.43-.31-.74-.27l-1.2.19v2.66Zm10.9 1.74c-.33.41-.74.75-1.22 1-.48.26-1.01.43-1.58.52-.98.16-1.74-.03-2.29-.55s-.82-1.36-.84-2.52v-1.54c0-1.18.26-2.12.77-2.84s1.26-1.15 2.25-1.31c.93-.15 1.62-.03 2.09.35s.74 1.06.82 2.02l-1.68.27c-.05-.54-.16-.89-.34-1.06s-.46-.22-.84-.16c-.46.07-.8.3-1.01.67s-.32.93-.33 1.67v1.55c0 .78.12 1.32.35 1.64s.61.43 1.15.35c.34-.05.62-.17.83-.34l.15-.13v-1.56l-1.21.19v-1.3l2.94-.46v3.52Z" style="stroke-width:0;fill:#231f20"/></svg>