<svg xmlns="http://www.w3.org/2000/svg" id="SD17" viewBox="0 0 54.5 72.5"><defs><clipPath id="clippath"><circle cx="43.54" cy="63.59" r="1.36" class="cls-4"/></clipPath><style>.cls-4{fill:#fff;stroke-width:0}</style></defs><path d="M0 0h54.5v72.5H0z" style="stroke-width:0;fill:#d8a4cb"/><path d="m48.05 68.05-1.32-.57-.02 1.44-1.12-.91-.41 1.39-.83-1.18-.77 1.22-.48-1.36-1.07.97-.1-1.44-1.29.65.29-1.41-1.41.27.66-1.28-1.44-.12.98-1.05-1.35-.5 1.23-.75-1.16-.85 1.38-.39-.89-1.13h1.44l-.56-1.33 1.39.38-.18-1.43 1.24.75.21-1.43.99 1.06.59-1.32.67 1.28.92-1.11.3 1.41 1.19-.81-.1 1.44 1.36-.47-.48 1.36 1.44-.08-.83 1.18 1.41.31-1.12.92 1.28.68-1.33.57 1.04 1-1.42.2.73 1.24-1.43-.19z" style="stroke-width:0;fill:#e4b523"/><path d="M43.54 66.31v-.98a1.8 1.8 0 0 0 1.26-.51c.16-.16.3-.36.39-.57s.14-.44.14-.67-.05-.46-.14-.67-.22-.41-.39-.57a1.77 1.77 0 0 0-1.26-.51v-.98c.72 0 1.42.29 1.93.8a2.724 2.724 0 0 1 0 3.86c-.51.51-1.2.8-1.93.8" class="cls-4"/><circle cx="43.54" cy="63.59" r="1.36" style="fill:#fff"/><path d="M43.54 64.95c.75 0 1.36-.61 1.36-1.36s-.61-1.36-1.36-1.36-1.36.61-1.36 1.36.61 1.36 1.36 1.36" class="cls-4" style="clip-path:url(#clippath)"/><path d="M46.35 62.17h-.1v-.06h.26v.06h-.1v.26h-.07v-.26m.56-.05v.32h-.06v-.2l-.09.19h-.04l-.09-.19v.2h-.06v-.32h.06l.11.23.1-.23z" class="cls-4"/><path d="m10.27 60.34-7.05 1.78v7.04h7.05z" style="stroke-miterlimit:10;fill:none;stroke:#fff;stroke-width:.25px"/><path d="M3.22 68.26h7.04v.9H3.22zm1.45-2.08v-.31h.63v-1.25h-.32v-.31h.32V64h.63v1.88h.63v.31h-1.9Zm2.85 0v-.94h.32v-.31h.32v-.31h.32v-.31h-.95v.31H6.9V64h2.21v.62h-.32v.31h-.32v.31h-.32v.94z" class="cls-4"/><path d="M50.9 33.84 3.67 41.45V4.6H50.9z" style="fill:#fff;stroke:#000;stroke-miterlimit:10"/><path d="M20.4 6.1c-1.59 0-2.86 2.41-3.13 5.02h-3.5v1.12h3.45c0 .38.03.76.08 1.12l1.08-1.12h1.59c-.24.24-.49.48-.76.74l-1.95 2.03s-.07.07-.1.11h-3.4v1.12h2.39c-.81.91-1.62 1.89-2.23 2.88h-.03v.05c-.51.83-.87 1.68-.96 2.49-.22 2.09.6 4.21 2.09 5.46h-1.25v1.12h5.85c.23 1.29.44 2.58.56 3.75.02.23-.41.66-.62.71a2.49 2.49 0 0 0-4.98 0c0 1.26.95 2.24 2.19 2.47 2.61.48 4.9-1.12 4.53-3.31-.18-1.19-.39-2.41-.61-3.62h21.09v-1.12H20.49c-.18-.97-.36-1.93-.53-2.88h2.33c-.16.49-.51.99-.96 1.44l.23 1.3c.97-.71 1.96-1.66 2.23-2.74h17.99v-1.12H23.84c-.1-.91-.49-1.92-1.11-2.49a4 4 0 0 0-.49-.38h19.54v-1.12h-22.7c-.07-.48-.12-.74-.17-1.02l-.97.94s.01.06.02.08h-1.64c.77-1.01 1.66-1.93 2.57-2.88h22.89v-1.12H19.96c.66-.71 1.31-1.45 1.92-2.28.12-.18.24-.38.33-.6h19.57v-1.12H22.54c.16-.81.17-1.65.07-2.2-.17-1.01-.89-2.68-1.99-2.8-.07 0-.13-.01-.2-.01m-.37 2.29c.43 0 .9.36.98 1 .08.7-.02 1.24-.24 1.71h-2.25c.21-1.25.7-2.64 1.51-2.71m-4.53 11.83h1.95a3.72 3.72 0 0 0-1.18 2.88h-1.86c0-.35.06-.71.19-1.06.25-.65.56-1.25.9-1.81m3.98.7c.74-.02 1.68.36 2.12.81.36.39.6.88.7 1.36h-2.59c-.13-.74-.26-1.46-.38-2.16h.14m-1.21.39c.09.56.21 1.15.32 1.76h-1.19c0-.69.26-1.33.86-1.76m-3.65 2.89h1.9c.17.45.43.87.78 1.21.32.33.95-.17.62-.54-.12-.22-.22-.44-.3-.67h1.21c.19.94.38 1.91.57 2.88h-1.25c-1.59-.21-3.03-1.4-3.53-2.88" style="stroke-width:0"/><path d="m4.6 43.33.81 2.96.8-3.21 1.12-.18v4.27l-.86.14v-1.15l.08-1.79-.85 3.07-.59.09-.85-2.8.08 1.77v1.15l-.86.14v-4.27l1.12-.18Zm6.2-.98v2.95c0 .44-.13.8-.37 1.08-.24.27-.58.45-1.03.52-.46.07-.81 0-1.05-.19s-.36-.53-.36-.98V42.8l.87-.14v2.94c0 .24.04.41.12.5s.22.12.43.09c.2-.03.35-.11.42-.22.08-.11.12-.29.12-.52V42.5l.86-.14Zm2.46 2.75c0-.17-.04-.3-.13-.37s-.25-.14-.49-.2c-.43-.09-.74-.23-.92-.42-.19-.19-.28-.43-.28-.73 0-.36.13-.67.38-.93s.58-.42.97-.48c.26-.04.5-.02.7.06.21.08.36.21.47.39s.17.4.17.66l-.86.14c0-.2-.04-.34-.13-.44-.08-.09-.21-.12-.37-.1-.15.02-.27.09-.35.19s-.13.23-.13.38c0 .12.05.22.14.29.09.08.26.15.5.22.42.08.72.22.91.41s.28.45.28.79c0 .37-.12.68-.35.93-.24.25-.56.4-.96.47-.28.04-.53.03-.75-.05-.23-.08-.4-.21-.53-.4s-.19-.43-.19-.72l.86-.14c0 .25.05.42.14.51s.25.13.47.09c.3-.05.45-.23.45-.55m2.33.75-.86.14v-4.27l.86-.14zm3.62-1.99c-.02.49-.16.88-.41 1.17s-.61.47-1.07.54q-.72.12-1.11-.3c-.26-.28-.39-.71-.39-1.3v-.72c0-.59.13-1.06.4-1.42s.63-.58 1.11-.65c.46-.07.82 0 1.06.22s.38.57.41 1.05l-.86.14c0-.3-.05-.5-.14-.6-.08-.1-.24-.13-.47-.1-.23.04-.39.14-.49.32s-.15.45-.15.82v.81c0 .42.05.71.14.85.1.14.26.2.49.16s.38-.12.47-.24.13-.33.15-.62l.86-.14Zm1.78-.01c0-.2.05-.39.14-.57q.135-.27.51-.63c-.11-.15-.19-.3-.25-.44s-.09-.29-.09-.46c0-.33.09-.62.28-.86s.43-.38.74-.43q.42-.06.69.18t.27.66c0 .37-.16.71-.47 1l-.23.23.55.68c.07-.21.1-.43.1-.67l.7-.11c0 .55-.11 1.01-.32 1.38l.55.68-.94.15-.16-.2q-.375.345-.87.42c-.36.06-.65 0-.86-.19-.22-.19-.33-.46-.33-.82Zm1.23.33c.15-.02.3-.1.44-.22l-.67-.85-.02.02q-.15.255-.15.54 0 .255.12.39c.08.1.17.14.29.12Zm-.19-2.56c0 .14.07.3.2.48l.14-.13c.08-.08.14-.15.18-.22s.05-.17.05-.28c0-.1-.03-.18-.08-.24a.22.22 0 0 0-.2-.07c-.09.01-.15.06-.21.15s-.08.19-.08.32ZM6.13 55.49l-.79.12v2.86l-1.58.25V50.9l2.52-.4c.79-.12 1.4-.02 1.83.32s.65.89.65 1.65c0 1.04-.38 1.83-1.13 2.36L9 57.81v.08l-1.7.27-1.18-2.67Zm-.78-1.19.9-.14c.32-.05.55-.19.71-.43.16-.23.24-.53.24-.88 0-.78-.31-1.13-.92-1.03l-.92.15v2.33Zm6.6-1.18 1.18-3.7 1.72-.27-2.09 5.32v2.84l-1.6.25v-2.84l-2.1-4.65 1.72-.27 1.18 3.33Zm8.77-3.58-1.93.31v6.5l-1.58.25v-6.5l-1.9.3v-1.32l5.42-.86v1.32Zm6.39 5.49-1.57.25v-3.35l-2.33.37v3.35l-1.58.25v-7.82l1.58-.25v3.16l2.33-.37v-3.16l1.57-.25zm3.33-8.35 1.48 5.42 1.47-5.89 2.06-.33v7.82l-1.58.25v-2.12l.14-3.28-1.56 5.62-1.07.17-1.56-5.13.14 3.24v2.12l-1.58.25V47l2.06-.33Z" style="stroke-width:0;fill:#151542"/></svg>