<svg xmlns="http://www.w3.org/2000/svg" id="SD3" viewBox="0 0 54.5 72.5"><defs><clipPath id="clippath"><circle cx="43.54" cy="63.59" r="1.36" class="cls-4"/></clipPath><style>.cls-4{fill:#fff;stroke-width:0}</style></defs><path d="M0 0h54.5v72.5H0z" style="stroke-width:0;fill:#f15f61"/><path d="m48.05 68.05-1.32-.57-.02 1.44-1.12-.91-.41 1.39-.83-1.18-.77 1.22-.48-1.36-1.07.97-.1-1.44-1.29.65.29-1.41-1.41.27.66-1.28-1.44-.12.98-1.05-1.35-.5 1.23-.75-1.16-.85 1.38-.39-.89-1.13h1.44l-.56-1.33 1.39.38-.18-1.43 1.24.75.21-1.43.99 1.06.59-1.32.67 1.28.92-1.11.3 1.41 1.19-.81-.1 1.44 1.36-.47-.48 1.36 1.44-.08-.83 1.18 1.41.31-1.12.92 1.28.68-1.33.57 1.04 1-1.42.2.73 1.24-1.43-.19z" style="stroke-width:0;fill:#e4b523"/><path d="M43.54 66.31v-.98a1.8 1.8 0 0 0 1.26-.51c.16-.16.3-.36.39-.57s.14-.44.14-.67-.05-.46-.14-.67-.22-.41-.39-.57a1.77 1.77 0 0 0-1.26-.51v-.98c.72 0 1.42.29 1.93.8a2.724 2.724 0 0 1 0 3.86c-.51.51-1.2.8-1.93.8" class="cls-4"/><circle cx="43.54" cy="63.59" r="1.36" style="fill:#fff"/><path d="M43.54 64.95c.75 0 1.36-.61 1.36-1.36s-.61-1.36-1.36-1.36-1.36.61-1.36 1.36.61 1.36 1.36 1.36" class="cls-4" style="clip-path:url(#clippath)"/><path d="M46.35 62.17h-.1v-.06h.26v.06h-.1v.26h-.07v-.26m.56-.05v.32h-.06v-.2l-.09.19h-.04l-.09-.19v.2h-.06v-.32h.06l.11.23.1-.23z" class="cls-4"/><path d="m10.27 60.34-7.05 1.78v7.04h7.05z" style="stroke-miterlimit:10;fill:none;stroke:#fff;stroke-width:.25px"/><path d="M3.22 68.26h7.04v.9H3.22zm1.45-2.08v-.31h.63v-1.25h-.32v-.31h.32V64h.63v1.88h.63v.31h-1.9Zm2.53 0v-.31h.63v-1.25h-.32v-.31h.32V64h.63v1.88h.63v.31h-1.9Z" class="cls-4"/><path d="m51.4 34.13-47.23 7.6V4.89H51.4z" style="fill:#fff;stroke:#000;stroke-miterlimit:10"/><path d="m13.69 13.46-1.31 5.35 30.03-4.76-.81-5.01-19.51 3.09.65 4.11-1.11.18-.65-4.11-1.23.2.65 4.11-1.11.18-.65-4.11-1.29.2L18 17l-1.11.18-.65-4.11-2.55.4Zm28.86-3.36.48 3.01 1.38-.22-.48-3.01zm-29.56 9.75 1.9 2.13-1.52 13.57 7.6-.66.45-7.5 8.56-1.36.14-6.11 12.86-2.33-.4-2.43zm15.72.33-.11 4.65-7.1 1.12.27-4.52.92-.17.25 2.65 1.21.84-.32-2.5 1.64-1.49 3.24-.59Z" style="stroke-width:0"/><path d="M6.85 48.17c0-.26-.07-.45-.2-.56s-.38-.21-.73-.3q-.96-.21-1.38-.63c-.28-.28-.42-.65-.42-1.09 0-.54.19-1 .57-1.39s.87-.63 1.46-.72c.39-.06.74-.03 1.05.08.31.12.54.31.71.59s.25.6.25.99l-1.29.2c0-.3-.06-.52-.19-.65-.13-.14-.31-.19-.55-.15-.23.04-.4.13-.53.28s-.19.34-.19.57c0 .18.07.32.21.44s.39.23.75.32c.62.13 1.08.33 1.36.62.28.28.42.68.42 1.19 0 .56-.18 1.02-.53 1.39s-.84.6-1.45.7c-.41.07-.79.04-1.13-.08s-.61-.32-.8-.6-.29-.64-.29-1.08l1.3-.21c0 .37.07.63.22.77.14.14.38.19.7.14.45-.07.68-.35.68-.82m6.65.63-1.29.2v-2.74l-1.91.3v2.74l-1.29.21v-6.4l1.29-.21v2.59l1.91-.3V42.6l1.29-.2zm5.54-3.5c0 .86-.2 1.56-.61 2.1s-.97.87-1.69.98-1.28-.03-1.69-.44-.62-1.03-.62-1.88v-1.09c0-.88.2-1.6.61-2.16s.97-.89 1.7-1.01c.71-.11 1.27.04 1.68.46s.62 1.07.62 1.94v1.09Zm-1.3-.87c0-.58-.08-.99-.25-1.25-.16-.26-.42-.36-.77-.3-.34.05-.6.23-.76.53s-.25.72-.26 1.28v1.14c0 .56.08.96.25 1.2s.42.33.77.28q.51-.075.75-.51c.16-.28.25-.7.25-1.25v-1.11Zm6.73.01c0 .86-.2 1.56-.61 2.1s-.97.87-1.69.98-1.28-.03-1.69-.44-.62-1.03-.62-1.88v-1.09c0-.88.2-1.6.61-2.16s.97-.89 1.7-1.01c.71-.11 1.27.04 1.68.46s.62 1.07.62 1.94v1.09Zm-1.3-.87c0-.58-.08-.99-.25-1.25-.16-.26-.42-.36-.76-.3-.34.05-.6.23-.76.53s-.25.72-.25 1.28v1.14c0 .56.08.96.25 1.2s.42.33.77.28q.51-.075.75-.51c.16-.28.25-.7.25-1.25v-1.11Zm6-2.58-1.58.25v5.32l-1.3.21v-5.32l-1.56.25v-1.08l4.43-.7V41Zm1.09.72-.57-.26c.21-.45.32-.86.33-1.26v-.76l.98-.15v.69q0 .405-.21.9c-.14.33-.31.61-.52.84Zm4.98.88-2.01.32v1.7l2.38-.38v1.07l-3.67.58v-6.4l3.67-.58v1.08l-2.37.38v1.51l2.01-.32v1.04Zm2.79-4.08 1.21 4.44 1.2-4.82 1.69-.27v6.4l-1.3.21v-1.73l.12-2.69-1.28 4.6-.88.14-1.28-4.2.12 2.65v1.73l-1.29.2v-6.4l1.69-.27ZM8.31 52.22v4.43c0 .67-.19 1.2-.55 1.61s-.88.67-1.55.78c-.69.11-1.21.01-1.57-.29q-.54-.45-.54-1.47v-4.4l1.3-.21v4.4q0 .54.18.75c.18.21.33.18.64.13s.52-.16.63-.33.17-.43.18-.79V52.4l1.29-.21Zm2.27 3.79v2.25l-1.29.2v-6.4l2.18-.34c.63-.1 1.14.02 1.51.35.38.33.56.81.56 1.44s-.19 1.15-.56 1.57-.89.69-1.55.79l-.86.14Zm0-1.08.89-.14a.83.83 0 0 0 .57-.33c.14-.18.2-.43.2-.74s-.07-.56-.21-.73-.32-.23-.55-.2l-.9.14z" style="stroke-width:0;fill:#231f20"/></svg>