<svg xmlns="http://www.w3.org/2000/svg" id="SD13" viewBox="0 0 54.5 72.5"><defs><clipPath id="clippath"><circle cx="43.54" cy="63.59" r="1.36" class="cls-4"/></clipPath><style>.cls-4{fill:#fff}.cls-4,.cls-6{stroke-width:0}</style></defs><path d="M-.04 0h54.5v72.5H-.04z" style="stroke-width:0;fill:#f7f084"/><path d="m48.05 68.05-1.32-.57-.02 1.44-1.12-.91-.41 1.39-.83-1.18-.77 1.22-.48-1.36-1.07.97-.1-1.44-1.29.65.29-1.41-1.41.27.66-1.28-1.44-.12.98-1.05-1.35-.5 1.23-.75-1.16-.85 1.38-.39-.89-1.13h1.44l-.56-1.33 1.39.38-.18-1.43 1.24.75.21-1.43.99 1.06.59-1.32.67 1.28.92-1.11.3 1.41 1.19-.81-.1 1.44 1.36-.47-.48 1.36 1.44-.08-.83 1.18 1.41.31-1.12.92 1.28.68-1.33.57 1.04 1-1.42.2.73 1.24-1.43-.19z" style="stroke-width:0;fill:#e4b523"/><path d="M43.54 66.31v-.98a1.8 1.8 0 0 0 1.26-.51c.16-.16.3-.36.39-.57s.14-.44.14-.67-.05-.46-.14-.67-.22-.41-.39-.57a1.77 1.77 0 0 0-1.26-.51v-.98c.72 0 1.42.29 1.93.8a2.724 2.724 0 0 1 0 3.86c-.51.51-1.2.8-1.93.8" class="cls-4"/><circle cx="43.54" cy="63.59" r="1.36" style="fill:#fff"/><path d="M43.54 64.95c.75 0 1.36-.61 1.36-1.36s-.61-1.36-1.36-1.36-1.36.61-1.36 1.36.61 1.36 1.36 1.36" class="cls-4" style="clip-path:url(#clippath)"/><path d="M46.35 62.17h-.1v-.06h.26v.06h-.1v.26h-.07v-.26m.56-.05v.32h-.06v-.2l-.09.19h-.04l-.09-.19v.2h-.06v-.32h.06l.11.23.1-.23z" class="cls-4"/><path d="m10.27 60.34-7.05 1.78v7.04h7.05z" style="stroke:#000;stroke-miterlimit:10;fill:none;stroke-width:.25px"/><path d="M3.22 68.26h7.04v.9H3.22zm1.45-2.08v-.31h.63v-1.25h-.32v-.31h.32V64h.63v1.88h.63v.31h-1.9Zm2.53 0v-.31h-.32v-.31h.63v.31h.95v-.62h-.95v-.31h.32v-.31h.32v-.31H7.2v-.31h1.9v.31h-.32v.31h-.32v.31h.32v.31h.32v.62h-.32v.31z" class="cls-6"/><path d="M50.83 34.13 3.6 41.73V4.89h47.23z" style="fill:#fff;stroke:#000;stroke-miterlimit:10"/><path d="M15.69 6.89v8.12h.54c-.01.16 0 .31.03.44.11.46.53 1 1 1s.89-.54 1-1c.03-.13.04-.28.03-.44h6.33c-.17.37-.44 1.03-.35 1.44.05.26.26.57.49.57s.44-.31.49-.57c.08-.41-.18-1.07-.35-1.44h6.38c.12.45.53.98.99.98s.88-.53.99-.98h3.57v-3.5h.88v5.37s.03.66-.62.95c-.05.01-2.1.54-4.32 1.13-1.12.3-2.27.61-3.2.87s-1.57.44-1.92.59c-.42.18-.89.43-1.28.83s-.67.98-.67 1.69v6.44h1.12v-6.44c0-.43.13-.68.35-.91s.56-.42.92-.58c.1-.04.85-.28 1.77-.54s2.06-.57 3.18-.87c2.24-.6 4.37-1.15 4.37-1.15h.04l.04-.03c1.31-.54 1.34-1.99 1.34-1.99v-6.5h-2v-3.5H15.69Zm1.12 1.12h18.88v2.96c-.45.25-.92.92-1.44.98-1.37.15-2.63-1.05-4-1-1.05.04-2.03 1.4-3 1-.69-.29-.29-1.76-1-2-1.41-.47-2.51 1.89-4 2-1.05.07-1.95-1-3-1-.8 0-1.75.08-2.44.49zm2.44 9.94s-1.24 1.97-1 3c.11.46.53 1 1 1s.89-.54 1-1c.24-1.03-1-3-1-3m5.56 12.56v5.88h2.88v-5.88z" class="cls-6"/><path d="M6.28 48.17c0-.26-.07-.45-.2-.56s-.38-.21-.73-.3q-.96-.21-1.38-.63c-.28-.28-.42-.65-.42-1.09 0-.54.19-1 .57-1.39s.87-.63 1.46-.72c.39-.06.74-.03 1.05.08.31.12.54.31.71.59s.25.6.25.99l-1.29.2c0-.3-.06-.52-.19-.65-.13-.14-.31-.19-.55-.15-.23.04-.4.13-.53.28s-.19.34-.19.57c0 .18.07.32.21.44s.39.23.75.32c.62.13 1.08.33 1.36.62.28.28.42.68.42 1.19 0 .56-.18 1.02-.53 1.39s-.84.6-1.45.7c-.41.07-.79.04-1.13-.08s-.61-.32-.8-.6-.29-.64-.29-1.08l1.3-.21c0 .37.07.63.22.77.14.14.38.19.7.14.45-.07.68-.35.68-.82m3.51 1.12-1.29.2v-6.4l1.29-.2zm2.77-6.83 1.21 4.44 1.2-4.82 1.69-.27v6.4l-1.3.21v-1.73l.12-2.69-1.28 4.6-.88.14-1.28-4.2.12 2.65v1.73l-1.29.2v-6.4l1.69-.27Zm9.3-1.48v4.43c0 .67-.19 1.2-.55 1.61s-.88.67-1.55.77c-.69.11-1.21.01-1.57-.29q-.54-.45-.54-1.47v-4.4l1.3-.21v4.4q0 .54.18.75c.18.21.33.18.64.13q.465-.075.63-.33c.165-.255.17-.43.18-.79v-4.43l1.29-.21Zm2.27 4.97 2.27-.36v1.07l-3.56.56v-6.4l1.29-.2zm6.15-1.21-1.76.28-.34 1.36-1.37.22 2-6.72 1.18-.19L32 45.77l-1.38.22-.34-1.26Zm-1.48-.84 1.2-.19-.6-2.19zm7.42-4.11-1.58.25v5.32l-1.3.21v-5.32l-1.56.25v-1.08l4.43-.7v1.08Zm2.09 4.99-1.29.2v-6.4l1.29-.2zm5.59-3.51c0 .86-.2 1.56-.61 2.1s-.97.87-1.69.98-1.28-.03-1.69-.44-.62-1.03-.62-1.88v-1.09c0-.88.2-1.6.61-2.16s.97-.89 1.7-1.01c.71-.11 1.27.04 1.68.46s.62 1.07.62 1.94v1.09Zm-1.29-.87c0-.58-.08-.99-.25-1.25-.16-.25-.42-.36-.76-.3-.34.05-.6.23-.76.53s-.25.72-.25 1.28v1.14c0 .56.08.96.25 1.2s.42.33.77.28q.51-.075.75-.51c.16-.28.25-.7.25-1.25v-1.11Zm6.69 2.64-1.29.21-1.89-3.9v4.2l-1.29.21v-6.4l1.29-.21 1.89 3.9v-4.2l1.29-.2v6.4Z" style="stroke-width:0;fill:#231f20"/></svg>