<svg xmlns="http://www.w3.org/2000/svg" id="SD16" viewBox="0 0 54.5 72.5"><defs><clipPath id="clippath"><circle cx="43.54" cy="63.59" r="1.36" class="cls-4"/></clipPath><style>.cls-4{fill:#fff;stroke-width:0}</style></defs><path d="M.04 0h54.5v72.5H.04z" style="stroke-width:0;fill:#15477e"/><path d="m48.05 68.05-1.32-.57-.02 1.44-1.12-.91-.41 1.39-.83-1.18-.77 1.22-.48-1.36-1.07.97-.1-1.44-1.29.65.29-1.41-1.41.27.66-1.28-1.44-.12.98-1.05-1.35-.5 1.23-.75-1.16-.85 1.38-.39-.89-1.13h1.44l-.56-1.33 1.39.38-.18-1.43 1.24.75.21-1.43.99 1.06.59-1.32.67 1.28.92-1.11.3 1.41 1.19-.81-.1 1.44 1.36-.47-.48 1.36 1.44-.08-.83 1.18 1.41.31-1.12.92 1.28.68-1.33.57 1.04 1-1.42.2.73 1.24-1.43-.19z" style="stroke-width:0;fill:#e4b523"/><path d="M43.54 66.31v-.98a1.8 1.8 0 0 0 1.26-.51c.16-.16.3-.36.39-.57s.14-.44.14-.67-.05-.46-.14-.67-.22-.41-.39-.57a1.77 1.77 0 0 0-1.26-.51v-.98c.72 0 1.42.29 1.93.8a2.724 2.724 0 0 1 0 3.86c-.51.51-1.2.8-1.93.8" class="cls-4"/><circle cx="43.54" cy="63.59" r="1.36" style="fill:#fff"/><path d="M43.54 64.95c.75 0 1.36-.61 1.36-1.36s-.61-1.36-1.36-1.36-1.36.61-1.36 1.36.61 1.36 1.36 1.36" class="cls-4" style="clip-path:url(#clippath)"/><path d="M46.35 62.17h-.1v-.06h.26v.06h-.1v.26h-.07v-.26m.56-.05v.32h-.06v-.2l-.09.19h-.04l-.09-.19v.2h-.06v-.32h.06l.11.23.1-.23z" class="cls-4"/><path d="m10.27 60.34-7.05 1.78v7.04h7.05z" style="stroke-miterlimit:10;fill:none;stroke:#fff;stroke-width:.25px"/><path d="M3.22 68.26h7.04v.9H3.22zm1.45-2.08v-.31h.63v-1.25h-.32v-.31h.32V64h.63v1.88h.63v.31h-1.9Zm2.53 0v-.31h-.32v-1.25h.32v-.31h.32V64h1.27v.31h-.95v.31h-.32v.31h1.27v.31h.32v.62h-.32v.31H7.21Zm.32-.31h.95v-.62h-.95z" class="cls-4"/><path d="m50.87 33.99-47.24 7.6V4.75h47.24z" style="fill:#fff;stroke:#000;stroke-miterlimit:10"/><path d="m19.82 6.83-1.1.21s.08.43.1.92v.34l-.78-.55-1.49-.35.84 1.27.85.6c-.16.06-.35.12-.54.15-.46.08-.88.09-.88.09l.03 1.12s.48 0 1.04-.1c.46-.08 1-.17 1.43-.51l3.16 2.21c.26-.29.52-.56.81-.81l-3.38-2.37c.09-.39.07-.79.05-1.15-.02-.58-.12-1.08-.12-1.08m16.68.5c-.36 0-.76.06-1.16.2-.71.25-1.27.69-1.6 1.15-.33.47-.43.92-.31 1.32s.45.7.98.86c.52.16 1.21.16 1.92-.1.71-.25 1.27-.69 1.6-1.15.33-.47.43-.92.31-1.32-.12-.39-.45-.7-.98-.86-.23-.07-.49-.11-.77-.11m-6.13 2.63c-.18 0-.36 0-.56.02-1.03.07-2.26.33-3.44.83-.77.33-1.52.75-2.19 1.3l3.39 2.37c.56-.28 1.24-.49 2.06-.57l.61-.07.11 3.93 4.74 3.02.47-.92-3.61-2.93.04-.31c.15-1.27.46-2.84.54-4.14.04-.65.02-1.23-.07-1.63s-.23-.58-.41-.66c-.24-.11-.79-.22-1.49-.23h-.18Zm-7.02 2.94c-.96 1.07-1.66 2.49-1.86 4.38-.06.48.06.86.31 1.23s.68.75 1.21 1.1c1.06.71 2.57 1.34 3.98 2.06l.58.29-2.79 3.98 4.13 2.54c.24-.24.45-.39.52-.48.06-.07.06-.08.06-.14 0-.05-.01-.17-.08-.37l-1.62-2.25.28-.33c.98-1.19 1.5-2.14 2.06-3.18-.97-1.66-2.45-2.85-4.58-4.12l-.44-.26.21-.46c.29-.62.67-1.23 1.24-1.73l-3.23-2.26Zm5.32 2.33c-.48.14-.86.33-1.17.56l1.74 1.18c-.03-.47-.08-.93-.09-1.4l-.49-.34Zm-16.5 4.91-.55.97 23.03 13.02.04.02c1.69.67 3.43-.32 4.52-1.06l-.62-.94c-.99.67-2.42 1.35-3.46.95L12.19 20.11Z" style="stroke-width:0"/><path d="M4.3 46.28v1.5l-.86.14v-4.27l1.45-.23c.42-.07.76.01 1.01.23s.38.54.38.96-.12.77-.37 1.05-.59.46-1.03.53l-.57.09Zm0-.72.59-.09c.16-.03.29-.1.38-.22s.13-.29.13-.49-.05-.38-.14-.49a.36.36 0 0 0-.37-.13l-.6.09v1.33Zm3.85.05-.43.07v1.56l-.86.14v-4.27l1.37-.22c.43-.07.76 0 1 .18.24.19.35.48.35.9 0 .57-.21 1-.62 1.29l.75 1.63v.04l-.93.15-.64-1.46Zm-.43-.65.49-.08a.6.6 0 0 0 .39-.23c.09-.13.13-.29.13-.48 0-.43-.17-.61-.5-.56l-.5.08v1.27Zm5.46-.34c0 .57-.13 1.04-.41 1.4-.27.36-.65.58-1.13.65-.48.08-.85-.02-1.13-.29-.27-.27-.41-.69-.42-1.25v-.73c0-.59.14-1.06.41-1.44s.65-.6 1.13-.67c.47-.08.85.03 1.12.31s.41.71.42 1.3v.73Zm-.86-.58c0-.38-.05-.66-.16-.83s-.28-.24-.51-.2-.4.15-.51.35-.17.48-.17.85v.76c0 .37.06.64.17.8s.28.22.52.18a.69.69 0 0 0 .5-.34c.11-.19.17-.47.17-.83v-.74Zm2.93.52-1.43.23v-.69l1.43-.23zm1.59.52 1.51-.24v.71l-2.37.38v-4.27l.86-.14v3.55Zm4.21-1.8-1.34.21v1.13l1.59-.25v.71l-2.45.39V41.2l2.44-.39v.72l-1.58.25v1.01l1.34-.21v.69Zm2.78.53-1.17.19-.23.91-.91.14 1.33-4.48.79-.12 1.34 4.05-.92.15zm-.99-.56.8-.13-.4-1.46-.4 1.58Zm5.26-3.51v2.95c0 .44-.13.8-.37 1.08-.24.27-.58.45-1.03.52-.46.07-.81 0-1.05-.19-.24-.2-.36-.53-.36-.98v-2.93l.87-.14v2.94c0 .24.04.41.12.5s.22.12.42.09c.21-.03.35-.11.42-.22.08-.11.12-.29.12-.52v-2.95l.86-.14Zm3.56 3.22c-.17.21-.37.37-.61.5s-.5.22-.79.26q-.735.12-1.14-.27c-.405-.39-.41-.68-.42-1.26v-.77c0-.59.13-1.06.38-1.42s.63-.58 1.12-.65q.69-.105 1.05.18c.36.285.37.53.41 1.01l-.84.13c-.02-.27-.08-.44-.17-.53s-.23-.11-.42-.08q-.345.06-.51.33c-.11.19-.16.47-.16.84V42c0 .39.06.66.17.82q.18.24.57.18c.17-.03.31-.08.41-.17l.08-.06v-.78l-.6.1v-.65l1.47-.23v1.76Zm2.81-1.81-1.34.21v1.13l1.59-.25v.71l-2.45.39v-4.27l2.44-.39v.72l-1.58.25v1.01l1.34-.21v.69ZM7.39 56.05q0-.525-.27-.75c-.18-.15-.5-.28-.97-.4-.86-.19-1.47-.47-1.85-.85s-.56-.86-.56-1.46c0-.72.25-1.34.76-1.85.51-.52 1.16-.84 1.94-.96.52-.08.99-.05 1.4.11s.73.42.95.78q.33.555.33 1.32l-1.72.27c0-.4-.08-.69-.25-.87s-.42-.25-.74-.2c-.3.05-.54.17-.7.38-.17.2-.25.46-.25.76 0 .23.09.43.28.59s.52.3 1 .43c.83.17 1.44.44 1.81.82.38.38.57.9.57 1.58 0 .74-.24 1.36-.71 1.85s-1.12.8-1.93.93c-.55.09-1.05.05-1.51-.1s-.81-.42-1.06-.8-.38-.86-.38-1.43l1.73-.27c0 .49.1.83.29 1.03s.5.25.94.19c.6-.1.9-.46.9-1.1m4.6-1.49v3l-1.72.27V49.3l2.91-.46c.84-.13 1.52.02 2.02.47s.75 1.08.75 1.92-.25 1.54-.74 2.1c-.5.56-1.18.91-2.06 1.05l-1.15.18Zm0-1.44 1.18-.19c.33-.05.58-.2.76-.44s.27-.57.27-.98-.09-.75-.28-.97c-.18-.22-.43-.31-.74-.27l-1.2.19v2.66Zm11.11-.82c0 1.14-.27 2.08-.81 2.79-.54.72-1.29 1.15-2.25 1.31-.96.15-1.71-.04-2.26-.58s-.82-1.37-.83-2.5v-1.46c0-1.17.27-2.13.81-2.87s1.3-1.19 2.26-1.35c.95-.15 1.7.05 2.24.61.55.56.82 1.42.83 2.59v1.46Zm-1.73-1.15c0-.77-.11-1.32-.33-1.66s-.56-.47-1.02-.4-.79.31-1.01.7c-.22.4-.33.96-.34 1.7v1.52c0 .75.11 1.28.33 1.6s.57.44 1.03.37c.45-.07.78-.3 1-.68s.33-.93.33-1.66v-1.48Zm5.55.93-.86.14v3.12l-1.72.27v-8.53l2.75-.44c.86-.14 1.53-.02 2 .35s.71.97.71 1.8c0 1.13-.41 1.99-1.24 2.57l1.49 3.26v.08l-1.85.29zm-.86-1.3.98-.15c.34-.05.6-.21.77-.47s.26-.57.26-.96c0-.86-.33-1.23-1-1.12l-1.01.16zm10.15-4.15-2.11.33v7.1l-1.73.27v-7.1l-2.07.33v-1.44l5.91-.94v1.44Zm4.5 4.14q0-.525-.27-.75c-.18-.15-.5-.28-.97-.4-.86-.19-1.47-.47-1.85-.85s-.56-.86-.56-1.46c0-.72.26-1.34.77-1.85s1.16-.84 1.94-.96c.52-.08.99-.05 1.4.11s.73.42.95.78q.33.555.33 1.32l-1.72.27c0-.4-.08-.69-.25-.87s-.42-.25-.74-.2c-.3.05-.54.17-.7.38-.17.2-.25.46-.25.76 0 .23.09.43.28.59s.52.3 1 .43c.83.17 1.44.44 1.81.82s.57.9.57 1.58c0 .74-.24 1.36-.71 1.85s-1.12.8-1.93.93c-.55.09-1.05.05-1.5-.1s-.81-.42-1.06-.8-.38-.86-.38-1.43l1.73-.27c0 .49.1.83.29 1.03s.5.25.94.19c.6-.1.9-.46.9-1.1Z" style="stroke-width:0;fill:#f2ef8d"/></svg>