<svg xmlns="http://www.w3.org/2000/svg" id="SD1-2" data-name="SD1" viewBox="0 0 54.5 72.5"><defs><clipPath id="clippath"><circle cx="43.54" cy="63.59" r="1.36" class="cls-4"/></clipPath><style>.cls-4{fill:#fff;stroke-width:0}</style></defs><path d="M-.04 0h54.5v72.5H-.04z" style="stroke-width:0;fill:#0d0f18"/><path d="m48.05 68.05-1.32-.57-.02 1.44-1.12-.91-.41 1.39-.83-1.18-.77 1.22-.48-1.36-1.07.97-.1-1.44-1.29.65.29-1.41-1.41.27.66-1.28-1.44-.12.98-1.05-1.35-.5 1.23-.75-1.16-.85 1.38-.39-.89-1.13h1.44l-.56-1.33 1.39.38-.18-1.43 1.24.75.21-1.43.99 1.06.59-1.32.67 1.28.92-1.11.3 1.41 1.19-.81-.1 1.44 1.36-.47-.48 1.36 1.44-.08-.83 1.18 1.41.31-1.12.92 1.28.68-1.33.57 1.04 1-1.42.2.73 1.24-1.43-.19z" style="stroke-width:0;fill:#e4b523"/><path d="M43.54 66.31v-.98a1.8 1.8 0 0 0 1.26-.51c.16-.16.3-.36.39-.57s.14-.44.14-.67-.05-.46-.14-.67-.22-.41-.39-.57a1.77 1.77 0 0 0-1.26-.51v-.98c.72 0 1.42.29 1.93.8a2.724 2.724 0 0 1 0 3.86c-.51.51-1.2.8-1.93.8" class="cls-4"/><circle cx="43.54" cy="63.59" r="1.36" style="fill:#fff"/><path d="M43.54 64.95c.75 0 1.36-.61 1.36-1.36s-.61-1.36-1.36-1.36-1.36.61-1.36 1.36.61 1.36 1.36 1.36" class="cls-4" style="clip-path:url(#clippath)"/><path d="M46.35 62.17h-.1v-.06h.26v.06h-.1v.26h-.07v-.26m.56-.05v.32h-.06v-.2l-.09.19h-.04l-.09-.19v.2h-.06v-.32h.06l.11.23.1-.23z" class="cls-4"/><path d="M50.83 33.7 3.6 41.3V4.46h47.23z" style="fill:#fff;stroke:#000;stroke-miterlimit:10"/><path d="m26.7 6.23-7.55 4.36v8.72l7.55 4.36 7.55-4.36v-8.72zm0 1.35 6.08 3.51-5.93 3.42L20.77 11zm.05 2.97c-1.04 0-1.99.36-2.75.96l2.88 1.66 2.72-1.57a4.36 4.36 0 0 0-2.86-1.06Zm-6.43 1.54 5.87 3.39v6.55l-5.87-3.39zm12.77.17v6.38l-5.73 3.31v-6.38zm-10.7 2.2q-.03.24-.03.48c0 1.84 1.13 3.42 2.74 4.07v-2.99zm8.74.14-2.68 1.53v2.86a4.4 4.4 0 0 0 2.69-4.05c0-.12 0-.23-.01-.34m-13.37 4.14-5.73 3.31v8.72l7.55 4.36 6.97-4.03 6.97 4.03 7.55-4.36v-8.72l-5.43-3.14v1.22l-.11.07 4.07 2.35-5.93 3.42-4.07-2.35-1.17.67 4.58 2.65v6.55l-5.87-3.39v-5.06l-.44.26-.73-.42v5.23l-5.73 3.31v-6.38l4.73-2.73-1.17-.67-4.07 2.35-6.08-3.51 4.1-2.37v-1.35Zm1.88 3.27c-1.04 0-1.99.36-2.75.96l2.88 1.66 2.72-1.57A4.38 4.38 0 0 0 19.63 22m13.95.01c-1.04 0-1.99.36-2.75.96l2.88 1.66 2.72-1.57A4.38 4.38 0 0 0 33.57 22ZM13.2 23.55l5.87 3.39v6.55L13.2 30.1zm26.71.17v6.38l-5.73 3.31v-6.38zm-24.64 2.2q-.03.24-.03.48c0 1.84 1.13 3.42 2.74 4.07v-2.99zm13.94 0q-.03.24-.03.48c0 1.84 1.13 3.42 2.74 4.07v-2.99zm-5.2.14-2.68 1.53v2.86a4.4 4.4 0 0 0 2.69-4.05c0-.12 0-.23-.01-.34m13.95 0-2.68 1.53v2.86a4.4 4.4 0 0 0 2.69-4.05c0-.12 0-.23-.01-.34" style="stroke-width:0"/><path d="M5.57 46.73c0-.2-.05-.35-.16-.44-.1-.09-.29-.16-.57-.23-.5-.11-.86-.28-1.08-.5s-.33-.5-.33-.85q0-.63.45-1.08c.3-.3.67-.49 1.13-.56.31-.05.58-.03.82.06s.42.24.55.46c.13.21.19.47.19.77l-1 .16q0-.345-.15-.51c-.1-.11-.24-.14-.43-.11-.17.03-.31.1-.41.22a.67.67 0 0 0-.15.44c0 .14.06.25.16.34.11.09.3.18.58.25.49.1.84.26 1.06.48s.33.53.33.92c0 .43-.14.79-.41 1.08-.28.29-.65.47-1.12.54-.32.05-.61.03-.88-.06-.26-.09-.47-.25-.62-.47s-.22-.5-.22-.84l1.01-.16c0 .29.06.49.17.6s.29.15.55.11c.35-.06.53-.27.53-.64Zm4.9-3.61-1.23.19v4.14l-1.01.16v-4.14l-1.21.19v-.84l3.45-.55v.84Zm3.15 1.49-1.57.25v1.32l1.85-.29v.83l-2.86.45v-4.98l2.85-.45v.84l-1.85.29v1.18l1.57-.25v.81Zm3.24.62-1.37.22-.27 1.06-1.06.17 1.56-5.22.92-.15 1.57 4.73-1.07.17-.27-.98Zm-1.16-.65.93-.15-.46-1.7-.46 1.85Zm4.27-3.8.94 3.45.94-3.75 1.31-.21v4.98l-1.01.16v-1.35l.09-2.09-1 3.58-.68.11-.99-3.26.09 2.06v1.35l-1.01.16v-4.98l1.31-.21Zm5.61 4.09v-4.98l1.32-.21c.58-.09 1.04.02 1.39.33s.52.79.53 1.43v.81c0 .65-.17 1.19-.52 1.62s-.82.69-1.43.78l-1.29.2Zm1.01-4.3v3.3l.3-.05c.33-.05.57-.18.71-.38s.21-.51.22-.95v-.86c0-.46-.06-.78-.19-.94q-.195-.24-.66-.18l-.37.06Zm5.52 1.11-1.57.25v1.32l1.85-.29v.83l-2.86.45v-4.98l2.85-.45v.84l-1.85.29v1.18l1.57-.25v.81Zm4.23-.18c-.02.57-.18 1.03-.48 1.36-.29.34-.71.55-1.24.63-.56.09-.99-.03-1.29-.35s-.45-.83-.45-1.51v-.84c0-.68.15-1.24.47-1.65.31-.42.74-.67 1.29-.76.54-.09.95 0 1.24.26q.42.39.48 1.23l-1.01.16c0-.35-.06-.58-.16-.7s-.28-.16-.54-.11c-.27.04-.46.17-.57.37-.11.21-.17.52-.18.96v.94c0 .49.05.83.17.99.11.17.3.23.57.19.26-.04.45-.13.55-.28.1-.14.16-.39.17-.73l1-.16Zm2.02-.58-.4.56v1.42l-1.01.16v-4.98l1.01-.16v2.17l.32-.59.93-1.78 1.23-.2-1.42 2.41 1.45 2.56-1.19.19-.91-1.78ZM6.63 55.56l-1.76.28-.34 1.36-1.37.22 2-6.72 1.18-.19 2.01 6.08-1.38.22zm-1.48-.84 1.2-.19-.6-2.19zm5.09-.67v2.25l-1.29.2v-6.4l2.18-.35c.63-.1 1.14.02 1.51.35.38.33.56.81.56 1.44s-.19 1.15-.56 1.57-.89.69-1.55.79l-.86.14Zm0-1.08.89-.14a.83.83 0 0 0 .57-.33c.14-.18.2-.43.2-.74s-.07-.56-.21-.73-.32-.23-.55-.2l-.9.14zm5.12.26v2.25l-1.29.2v-6.4l2.18-.35c.63-.1 1.14.02 1.51.35s.56.81.56 1.44-.19 1.15-.56 1.57-.89.69-1.55.79l-.86.14Zm0-1.07.89-.14a.83.83 0 0 0 .57-.33c.14-.18.2-.43.2-.74s-.07-.56-.21-.73-.32-.23-.55-.2l-.9.14zm6.54.61c0-.26-.07-.45-.2-.56s-.38-.21-.73-.3c-.64-.14-1.1-.35-1.38-.64-.28-.28-.42-.65-.42-1.09 0-.54.19-1 .57-1.39s.87-.63 1.46-.72c.39-.06.74-.03 1.05.08.31.12.54.31.71.59s.25.61.25.99l-1.29.2c0-.3-.06-.52-.19-.65-.13-.14-.31-.19-.55-.15-.23.04-.4.13-.53.28s-.19.34-.19.57c0 .18.07.32.21.44s.39.23.75.32c.62.13 1.08.33 1.36.62.28.28.42.68.42 1.19 0 .56-.18 1.02-.53 1.39s-.84.6-1.45.7c-.41.07-.79.04-1.13-.08a1.57 1.57 0 0 1-.8-.6c-.19-.29-.29-.64-.29-1.08l1.3-.21c0 .37.07.63.22.77.14.14.38.19.7.14.45-.07.68-.35.68-.82Z" style="stroke-width:0;fill:#a0d1f1"/><path d="m10.27 60.34-7.05 1.78v7.04h7.05z" style="stroke-miterlimit:10;fill:none;stroke:#fff;stroke-width:.25px"/><path d="M3.22 68.26h7.04v.9H3.22zm2.15-1.59v-.5h1.01v-2h-.51v-.5h.51v-.5h1.01v3H8.4v.5H5.36Z" class="cls-4"/></svg>