<svg xmlns="http://www.w3.org/2000/svg" id="SD18" viewBox="0 0 54.5 72.5"><defs><clipPath id="clippath"><circle cx="43.54" cy="63.59" r="1.36" class="cls-4"/></clipPath><style>.cls-4{fill:#fff;stroke-width:0}</style></defs><path d="M0 0h54.5v72.5H0z" style="stroke-width:0;fill:#333"/><path d="m48.05 68.05-1.32-.57-.02 1.44-1.12-.91-.41 1.39-.83-1.18-.77 1.22-.48-1.36-1.07.97-.1-1.44-1.29.65.29-1.41-1.41.27.66-1.28-1.44-.12.98-1.05-1.35-.5 1.23-.75-1.16-.85 1.38-.39-.89-1.13h1.44l-.56-1.33 1.39.38-.18-1.43 1.24.75.21-1.43.99 1.06.59-1.32.67 1.28.92-1.11.3 1.41 1.19-.81-.1 1.44 1.36-.47-.48 1.36 1.44-.08-.83 1.18 1.41.31-1.12.92 1.28.68-1.33.57 1.04 1-1.42.2.73 1.24-1.43-.19z" style="stroke-width:0;fill:#e4b523"/><path d="M43.54 66.31v-.98a1.8 1.8 0 0 0 1.26-.51c.16-.16.3-.36.39-.57s.14-.44.14-.67-.05-.46-.14-.67-.22-.41-.39-.57a1.77 1.77 0 0 0-1.26-.51v-.98c.72 0 1.42.29 1.93.8a2.724 2.724 0 0 1 0 3.86c-.51.51-1.2.8-1.93.8" class="cls-4"/><circle cx="43.54" cy="63.59" r="1.36" style="fill:#fff"/><path d="M43.54 64.95c.75 0 1.36-.61 1.36-1.36s-.61-1.36-1.36-1.36-1.36.61-1.36 1.36.61 1.36 1.36 1.36" class="cls-4" style="clip-path:url(#clippath)"/><path d="M46.35 62.17h-.1v-.06h.26v.06h-.1v.26h-.07v-.26m.56-.05v.32h-.06v-.2l-.09.19h-.04l-.09-.19v.2h-.06v-.32h.06l.11.23.1-.23z" class="cls-4"/><path d="m10.27 60.34-7.05 1.78v7.04h7.05z" style="stroke-miterlimit:10;fill:none;stroke:#fff;stroke-width:.25px"/><path d="M3.22 68.26h7.04v.9H3.22zm1.45-2.08v-.31h.63v-1.25h-.32v-.31h.32V64h.63v1.88h.63v.31h-1.9Zm2.53 0v-.31h-.32v-.62h.32v-.31h-.32v-.62h.32v-.31h1.27v.31h.32v.62h-.32v.31h.63v.62h-.32v.31zm0-.31h1.27v-.31h-.63v-.31h-.63v.62Zm.63-.94h.63v-.62h-.95v.31h.32z" class="cls-4"/><path d="M50.94 33.99 3.7 41.59V4.75h47.24z" style="fill:#fff;stroke:#000;stroke-miterlimit:10"/><path d="M31.77 17.54v.01h-.03v.05c-.22.37-.37.7-.53.82-.71.57-1.77.43-2.37-.31-.59-.74-.5-1.81.22-2.38.17-.14.58-.19 1.04-.31-.02-.01-.04-.03-.06-.04l-.21-6-3.26 5.09.12.03c.27.32.52.55.59.74.31.86-.15 1.82-1.05 2.15-.89.33-1.87-.1-2.19-.96-.07-.2 0-.61.04-1.08l-.1.07-5.76-1.66 1.32 1.6L9.4 33.13l11.56-16.05 1.07 1.31v.02h.01l.02.02.03-.04c.4-.17.71-.35.91-.36.91-.04 1.69.69 1.73 1.64s-.66 1.76-1.57 1.8c-.22.01-.58-.19-1.02-.36 0 .02.02.04.02.07L8.33 38.34l16.1-14.39-.06-.07c-.04-.42-.1-.77-.05-.96.25-.88 1.19-1.39 2.1-1.13.92.26 1.46 1.18 1.21 2.06-.06.21-.36.49-.66.86h.1l1.13 1.45-16.34 12.19 17.68-10.47 1.22 1.56-.35-6.03-.08.03c-.42-.09-.77-.14-.93-.25-.76-.5-.95-1.56-.43-2.35.53-.79 1.57-1.03 2.33-.52.18.12.36.5.61.9 0-.03.02-.06.03-.09l5.64-2.05-5.8-1.52v-.01m-4.15 2.41c-.28.42-.85.54-1.27.26a.92.92 0 0 1-.26-1.27c.28-.42.85-.54 1.27-.26s.54.85.26 1.27" style="stroke-width:0"/><path d="M6.74 48.54c0-.29-.07-.5-.22-.62s-.42-.24-.81-.33c-.71-.16-1.23-.39-1.54-.71-.31-.31-.47-.72-.47-1.21 0-.6.21-1.11.64-1.54.42-.43.96-.7 1.62-.8q.66-.105 1.17.09c.34.13.61.35.79.65.18.31.28.67.28 1.1l-1.43.23c0-.33-.07-.57-.21-.73-.14-.15-.35-.21-.61-.16-.25.04-.45.15-.59.31q-.21.255-.21.63c0 .2.08.36.23.49.16.13.43.25.83.36.69.14 1.2.37 1.51.68s.47.75.47 1.32c0 .62-.2 1.13-.59 1.54s-.93.67-1.61.78c-.46.07-.88.04-1.25-.08-.38-.13-.67-.35-.89-.67s-.32-.72-.32-1.19l1.44-.23c0 .41.08.7.24.86q.24.24.78.15c.5-.08.75-.38.75-.92m7.01-5.16-1.76.28v5.91l-1.44.23v-5.91l-1.73.27v-1.2l4.93-.78zm4.49 2.12-2.24.35v1.88l2.65-.42v1.19l-4.08.65v-7.11l4.07-.64v1.2l-2.64.42v1.68l2.24-.35v1.16Zm4.63.89-1.96.31-.38 1.52-1.52.24L21.23 41l1.31-.21 2.24 6.75-1.53.24zm-1.64-.93 1.33-.21-.66-2.43-.66 2.64Zm5.66.56 2.52-.4v1.19l-3.96.63v-7.11l1.43-.23v5.92Zm6.95-5.82-1.76.28v5.91l-1.44.23v-5.91l-1.73.27v-1.2l4.93-.78zm5.81 4.99-1.43.23v-3.04l-2.12.34v3.04l-1.43.23v-7.11l1.43-.23v2.88l2.12-.34v-2.88l1.43-.23z" style="stroke-width:0;fill:#f4f4f5"/></svg>