<svg xmlns="http://www.w3.org/2000/svg" id="SD21" viewBox="0 0 54.5 72.5"><defs><clipPath id="clippath"><circle cx="43.54" cy="63.59" r="1.36" class="cls-4"/></clipPath><style>.cls-4{fill:#fff}.cls-4,.cls-6{stroke-width:0}</style></defs><path d="M-.04 0h54.5v72.5H-.04z" style="stroke-width:0;fill:#a7dff8"/><path d="m10.27 60.34-7.05 1.78v7.04h7.05z" style="stroke:#000;stroke-miterlimit:10;fill:none;stroke-width:.25px"/><path d="M3.22 68.26h7.04v.9H3.22zm1.13-2.08v-.62h.32v-.31h.32v-.31h.63v-.31h.32v-.31h-.95v.31h-.63v-.31h.32v-.31h1.58v.31h.32v.62h-.32v.31h-.32v.31h-.63v.31h1.27v.31H4.37Zm2.85 0v-.31h.63v-1.25h-.32v-.31h.32V64h.63v1.88h.63v.31h-1.9Z" class="cls-6"/><path d="m48.05 68.05-1.32-.57-.02 1.44-1.12-.91-.41 1.39-.83-1.18-.77 1.22-.48-1.36-1.07.97-.1-1.44-1.29.65.29-1.41-1.41.27.66-1.28-1.44-.12.98-1.05-1.35-.5 1.23-.75-1.16-.85 1.38-.39-.89-1.13h1.44l-.56-1.33 1.39.38-.18-1.43 1.24.75.21-1.43.99 1.06.59-1.32.67 1.28.92-1.11.3 1.41 1.19-.81-.1 1.44 1.36-.47-.48 1.36 1.44-.08-.83 1.18 1.41.31-1.12.92 1.28.68-1.33.57 1.04 1-1.42.2.73 1.24-1.43-.19z" style="stroke-width:0;fill:#e4b523"/><path d="M43.54 66.31v-.98a1.8 1.8 0 0 0 1.26-.51c.16-.16.3-.36.39-.57s.14-.44.14-.67-.05-.46-.14-.67-.22-.41-.39-.57a1.77 1.77 0 0 0-1.26-.51v-.98c.72 0 1.42.29 1.93.8a2.724 2.724 0 0 1 0 3.86c-.51.51-1.2.8-1.93.8" class="cls-4"/><circle cx="43.54" cy="63.59" r="1.36" style="fill:#fff"/><path d="M43.54 64.95c.75 0 1.36-.61 1.36-1.36s-.61-1.36-1.36-1.36-1.36.61-1.36 1.36.61 1.36 1.36 1.36" class="cls-4" style="clip-path:url(#clippath)"/><path d="M46.35 62.17h-.1v-.06h.26v.06h-.1v.26h-.07v-.26m.56-.05v.32h-.06v-.2l-.09.19h-.04l-.09-.19v.2h-.06v-.32h.06l.11.23.1-.23z" class="cls-4"/><path d="M50.83 34.13 3.6 41.73V4.89h47.23z" style="fill:#fff;stroke:#000;stroke-miterlimit:10"/><path d="M24.83 9.22c.09 0 .18.01.26.03.53.14.87.7.91 1.38l-1.61.38 1.37.87c-.31.65-.85 1.08-1.4 1.08-.09 0-.18-.01-.26-.03-.73-.2-1.1-1.18-.82-2.19.24-.89.9-1.51 1.55-1.51m-1.27-.6c.18-.12.37-.22.57-.29-.34-.26-.75-.55-.99-.61-1.74-.41-1.77 2.15-3.07.96 1.05 1.91 2.21-.76 3.49-.06m3.38 7.22c-.4-.89-1.45-1.28-2.34-.88l1.46 3.22c.89-.4 1.29-1.45.88-2.34m-4.35 2.19-1.36-.42-3.81 1.94.45.88zm1.87-4.09h-.1a2.04 2.04 0 0 1-1.41-.58l-1.22 3.36 2.98.91-.67-1.47-.88-.16.61-.44-.5-1.09s1.1-.49 1.19-.52m-8.29 8.93c-4.05-2.89 2.62-6.08-2.94-6.62 3.7 1.66-3.09 2.8-.64 6.11.47.63 2.17 1.56 3.1 2.03.08-.53.24-1.05.48-1.52m8.3-3.96.14-.28-.64-.2-3.12 1.59 4.29 1.65-3.02 2.51 2.54 1.66-.41-1.5 2.84-3.06zm.86-5.12q.465 0 .9.15l2.61-1.33c-.73-.15-1.48-.22-2.23-.22-.35.69-.9 1.19-1.51 1.41.08 0 .15-.01.23-.01m11.37 7.77h-.26c-.34 0-.71-.01-1.11-.04l.79 1.12 1.56-.46s-.07-.28-.17-.7c-.27.05-.54.07-.82.08Zm-8.69-2.9c.86-1.43 2.92-4.17 6-4.17 1.05 0 2.22.32 3.5 1.12l-.69 1.24v1.37c-.01.2.23 1.31.46 2.31-.42.07-1.44.06-2.7-.06l-.35-.51c-1.01-.6-1.8-.98-1.8-.98s.06.49.08 1.2c-1.44-.26-2.93-.67-4.05-1.26-.15-.08-.3-.16-.44-.25m7.5-1.15c0 .29.35.44.56.23s.06-.56-.23-.56c-.18 0-.33.15-.33.33m-8.29-2.97c.24.23.44.5.59.81l13.95-7.71v-.59zm4.76 9.63c.35-.92.48-2.04.51-3-1.04-.18-2.06-.43-3.06-.77-.66-.22-1.29-.51-1.88-.86l.86 6.04-8.06 1.07-.65-5.44c-.27.11-.53.23-.78.35-3.68 1.79-1.84 6.01-1.84 6.01l-1.56 3.08 1.88 3.4v1.18h2.12l-.98-1.43-.91-3.29 3.05-2.9c1.74.08 6.4-.72 8.41-1.06l5.19.28 1.43 1.83-1.05.78 1.85.87.59-1.15-1.2-3.08-3.9-1.91Zm-3.2-8.19-.71.36c.01.15 0 .31 0 .46.22-.27.45-.55.71-.82m1.98 14.49-.31-2.84-1.31-.07c-.39.07-.82.14-1.28.21l1.34 2.98 1.1 3.41-.04 1.06h1.98l-.6-1.11-.89-3.64ZM22 31.72l2.3-3.36c-1.33.18-3.21.32-3.22.32l.18.48-1.19 2.62 2.94 2.75v.73h1.79l-.71-.81z" class="cls-6"/><path d="m4.7 46.29-.43.07v1.56l-.86.14v-4.27l1.37-.22c.43-.07.76 0 1 .18s.35.49.35.9c0 .57-.21 1-.62 1.29l.75 1.63v.04l-.93.15-.64-1.46Zm-.43-.65.49-.08a.6.6 0 0 0 .39-.23c.09-.13.13-.29.13-.48 0-.43-.17-.62-.5-.56l-.5.08v1.27Zm4.66-.3-1.34.21v1.13l1.59-.25v.71l-2.45.39v-4.27l2.44-.39v.72l-1.58.25v1.01l1.34-.21v.69Zm2.78.53-1.17.19-.23.91-.91.14 1.33-4.48.79-.12 1.34 4.05-.92.15zm-.99-.56.8-.13-.4-1.46-.4 1.58Zm3.4.34 1.51-.24v.71l-2.37.38v-4.27l.86-.14v3.55Zm3.46-1.32-1.43.23v-.69l1.43-.23zm3.49-2.62-1.05.17v3.55l-.86.14v-3.55l-1.04.16v-.72l2.96-.47v.72Zm1.39 3.33-.86.14v-4.27l.86-.14zm1.85-4.56.81 2.96.8-3.21 1.12-.18v4.27l-.86.14v-1.15l.08-1.79-.85 3.07-.59.09-.85-2.8.08 1.77v1.15l-.86.14v-4.27l1.12-.18Zm5.63 1.53-1.34.21v1.13l1.59-.25v.71l-2.45.39v-4.27l2.44-.39v.72l-1.58.25v1.01l1.34-.21V42ZM6.64 55.68c0-.29-.07-.5-.22-.62s-.42-.24-.81-.33c-.71-.16-1.23-.39-1.54-.71-.31-.31-.47-.72-.47-1.21 0-.6.21-1.11.64-1.54.42-.43.96-.7 1.62-.8q.66-.105 1.17.09c.34.13.6.35.79.65.18.31.28.67.28 1.1l-1.43.23c0-.33-.07-.57-.21-.73-.14-.15-.35-.21-.61-.16-.25.04-.45.15-.59.31q-.21.255-.21.63c0 .2.08.36.23.49s.43.25.83.36c.69.14 1.2.37 1.51.68s.47.75.47 1.32c0 .62-.2 1.13-.59 1.54s-.93.67-1.61.78c-.46.07-.88.04-1.25-.08-.38-.13-.67-.35-.89-.67-.21-.32-.32-.72-.32-1.19l1.44-.23c0 .41.08.7.24.86s.42.21.78.16c.5-.08.75-.38.75-.92Zm7-5.16-1.76.28v5.91l-1.44.23v-5.91l-1.73.27v-1.2l4.93-.78zm2.98 2.85-.71.11v2.6l-1.44.23V49.2l2.29-.36c.72-.11 1.27-.02 1.67.29.39.31.59.81.59 1.5 0 .94-.34 1.66-1.03 2.15l1.25 2.71v.07l-1.54.24-1.07-2.43Zm-.71-1.09.82-.13c.29-.04.5-.17.64-.39.14-.21.21-.48.21-.8 0-.71-.28-1.03-.83-.94l-.84.13v2.12Zm7.49 1.16-1.96.31-.38 1.52-1.52.24 2.22-7.46 1.31-.21 2.24 6.75-1.53.24zm-1.65-.94 1.33-.21-.66-2.43-.66 2.64Zm8.24-4.57-1.76.28v5.91l-1.44.23v-5.91l-1.73.27v-1.2l4.93-.78zm4.5 2.13-2.24.35v1.88l2.65-.42v1.19l-4.08.65V46.6l4.07-.64v1.2l-2.64.42v1.68l2.24-.35v1.16Zm6.07 1.31q-.42.51-1.02.84c-.4.21-.84.36-1.32.44-.82.13-1.45-.02-1.9-.46-.45-.43-.69-1.13-.7-2.1v-1.28c0-.98.21-1.77.64-2.37s1.05-.96 1.87-1.09c.77-.12 1.35-.02 1.75.29.39.32.62.88.68 1.68l-1.4.22c-.04-.45-.13-.74-.28-.88s-.38-.19-.7-.13c-.39.06-.67.25-.84.56-.18.31-.27.78-.27 1.4v1.29c0 .65.1 1.1.29 1.37.19.26.51.36.95.29.28-.04.51-.14.69-.28l.13-.11v-1.3l-1.01.16v-1.08l2.45-.39v2.93Zm3.16-3.61 1.07-3.36 1.56-.25-1.9 4.83v2.58l-1.46.23v-2.58l-1.91-4.23 1.56-.25 1.07 3.02Z" style="stroke-width:0;fill:#231f20"/></svg>