<svg xmlns="http://www.w3.org/2000/svg" id="SD36" viewBox="0 0 54.5 72.5"><defs><clipPath id="clippath"><circle cx="43.54" cy="63.59" r="1.36" class="cls-4"/></clipPath><style>.cls-4,.cls-9{fill:#fff;stroke-width:0}.cls-9{fill:#020202}</style></defs><path d="M0 0h54.5v72.5H0z" style="fill:#3a3c3f;stroke-width:0"/><path d="m48.05 68.05-1.32-.57-.02 1.44-1.12-.91-.41 1.39-.83-1.18-.77 1.22-.48-1.36-1.07.97-.1-1.44-1.29.65.29-1.41-1.41.27.66-1.28-1.44-.12.98-1.05-1.35-.5 1.23-.75-1.16-.85 1.38-.39-.89-1.13h1.44l-.56-1.33 1.39.38-.18-1.43 1.24.75.21-1.43.99 1.06.59-1.32.67 1.28.92-1.11.3 1.41 1.19-.81-.1 1.44 1.36-.47-.48 1.36 1.44-.08-.83 1.18 1.41.31-1.12.92 1.28.68-1.33.57 1.04 1-1.42.2.73 1.24-1.43-.19z" style="stroke-width:0;fill:#e4b523"/><path d="M43.54 66.31v-.98a1.8 1.8 0 0 0 1.26-.51c.16-.16.3-.36.39-.57s.14-.44.14-.67-.05-.46-.14-.67-.22-.41-.39-.57a1.77 1.77 0 0 0-1.26-.51v-.98c.72 0 1.42.29 1.93.8a2.724 2.724 0 0 1 0 3.86c-.51.51-1.2.8-1.93.8" class="cls-4"/><circle cx="43.54" cy="63.59" r="1.36" style="fill:#fff"/><path d="M43.54 64.95c.75 0 1.36-.61 1.36-1.36s-.61-1.36-1.36-1.36-1.36.61-1.36 1.36.61 1.36 1.36 1.36" class="cls-4" style="clip-path:url(#clippath)"/><path d="M46.35 62.17h-.1v-.06h.26v.06h-.1v.26h-.07v-.26m.56-.05v.32h-.06v-.2l-.09.19h-.04l-.09-.19v.2h-.06v-.32h.06l.11.23.1-.23z" class="cls-4"/><path d="m10.23 60.34-7.04 1.78v7.04h7.04z" style="stroke-miterlimit:10;fill:none;stroke:#fff;stroke-width:.25px"/><path d="M3.19 68.26h7.04v.9H3.19zm1.45-2.08v-.31h-.32v-.31h.63v.31h.95v-.62h-.95v-.31h.32v-.31h.32v-.31h-.95v-.31h1.9v.31h-.32v.31H5.9v.31h.32v.31h.32v.62h-.32v.31zm2.53 0v-.31h-.32v-1.25h.32v-.31h.32V64h1.27v.31h-.95v.31h-.32v.31h1.27v.31h.32v.62h-.32v.31H7.18Zm.31-.31h.95v-.62h-.95z" class="cls-4"/><path d="M50.83 33.99 3.6 41.59V4.75h47.23z" style="fill:#fff;stroke:#000;stroke-miterlimit:10"/><path d="m7.21 44.08-1.41.22v4.73l-1.15.18v-4.73l-1.38.22v-.96l3.94-.62zm3.59 1.7-1.79.28v1.51l2.12-.34v.95l-3.27.52v-5.69l3.26-.52v.96l-2.11.33v1.34l1.79-.28v.93Zm4.85-.2c-.03.65-.21 1.17-.55 1.56-.33.39-.81.63-1.42.72-.64.1-1.14-.03-1.48-.4s-.51-.95-.51-1.73v-.96c0-.78.18-1.41.53-1.89s.85-.77 1.48-.87q.93-.15 1.41.3c.32.3.5.76.55 1.41l-1.15.18c-.01-.4-.07-.67-.19-.8-.11-.13-.32-.18-.62-.13-.31.05-.52.19-.65.43-.13.23-.2.6-.2 1.09v1.07c0 .57.06.94.19 1.13s.34.26.65.21c.3-.05.51-.15.62-.32s.18-.44.2-.83l1.15-.18Zm4.69 1.15-1.14.18v-2.43l-1.7.27v2.43l-1.15.18v-5.69l1.15-.18v2.3l1.7-.27v-2.3l1.14-.18zm3.32-2.02c0-.23-.06-.4-.18-.5s-.33-.19-.65-.27c-.57-.12-.98-.31-1.23-.56s-.38-.57-.38-.97c0-.48.17-.89.51-1.24s.77-.56 1.29-.64c.35-.06.66-.03.93.07s.48.28.63.52.22.54.22.88l-1.14.18c0-.27-.06-.46-.17-.58s-.28-.17-.49-.13c-.2.03-.36.12-.47.25s-.17.3-.17.5c0 .16.06.29.19.39s.35.2.66.29c.55.11.96.29 1.21.55s.38.6.38 1.05c0 .5-.16.91-.47 1.24s-.74.54-1.29.62c-.37.06-.7.04-1-.07s-.54-.28-.71-.54-.26-.57-.26-.96l1.15-.18c0 .33.06.56.19.68.13.13.34.17.62.12.4-.06.6-.31.6-.73Zm5.92-1.84c0 .94-.25 1.66-.76 2.17l.79.58-.72.78-1.05-.79-.3.07c-.64.1-1.15-.04-1.51-.42s-.55-.95-.55-1.72v-.89q0-1.17.54-1.92c.36-.5.86-.79 1.51-.9.63-.1 1.12.03 1.49.4.36.36.55.93.57 1.69v.95Zm-1.15-.7c0-.52-.07-.89-.22-1.11s-.38-.31-.68-.26-.53.2-.68.47c-.15.26-.22.64-.23 1.13v.94c0 .52.07.89.22 1.12.15.22.38.31.69.26.3-.05.52-.21.67-.48s.22-.66.22-1.16v-.91Zm5.68-3.31v3.94c0 .59-.17 1.07-.49 1.44s-.78.59-1.38.69c-.61.1-1.08.01-1.4-.25s-.48-.7-.48-1.3v-3.91l1.16-.18v3.91c0 .32.05.55.16.67q.15.18.57.12c.27-.04.46-.14.56-.29s.15-.39.16-.7v-3.93l1.15-.18Zm2.07 5.36-1.15.18v-5.69l1.15-.18zm.97-.15v-5.69l1.5-.24c.66-.1 1.19.02 1.59.38s.6.91.6 1.64v.92c0 .75-.2 1.37-.59 1.85s-.94.79-1.63.9l-1.47.23Zm1.14-4.91v3.78l.34-.05c.38-.06.65-.2.81-.43s.24-.59.25-1.08v-.99c0-.53-.07-.89-.22-1.08s-.4-.26-.76-.21l-.42.07Zm7.06-1.12-1.41.22v4.73l-1.15.18v-4.73l-1.38.22v-.96l3.94-.62zm2.57 2.76.96-4.28 1.28-.2-1.64 5.95-1.2.19-1.63-5.43 1.27-.2.95 3.97Z" style="stroke-width:0;fill:#c1cedf"/><path d="M13.15 12.94v-.03s-.03-.09-.08-.16c.36-.68.23-1.43-.3-1.89-.19-.16-.39-.25-.61-.3.47-.28.96-.54 1.48-.81s1.04-.54 1.55-.85c.02.03.02.05.02.08l.05.19.16-.09c.2-.12.42-.2.62-.2.33 0 .59.17.75.48.31.61-.02 1.16-.48 1.44l-.14.09.11.12s.05.05.06.08c-.56.34-1.06.7-1.55 1.06-.47.33-.92.65-1.37.93l-.26-.14Z" class="cls-9"/><path d="M10.8 15.85c-.05-.65-.42-1.16-1.01-1.32a1.3 1.3 0 0 0-.34-.05c-.26 0-.51.09-.73.26l-.12-.47c.34-.47.71-.92 1.1-1.38.37-.45.78-.93 1.15-1.43l.05.05.11.16.11-.16c.23-.33.54-.51.84-.51a.8.8 0 0 1 .53.2c.5.42.39 1.09.06 1.54l-.09.14.16.08s.05.03.08.05c-.39.54-.73 1.09-1.06 1.62-.3.42-.54.82-.82 1.23Z" class="cls-9"/><path d="M9.76 20.23c-.26-.5-.68-.79-1.16-.79-.12 0-.26.02-.39.06-.23.06-.42.2-.59.37H7.6l-.3-.37c.14-.57.3-1.15.48-1.75.17-.59.36-1.2.5-1.82.02.02.05.02.06.03l.17.09.05-.19c.06-.28.19-.51.34-.68s.36-.25.56-.25c.08 0 .16.02.23.03.62.16.76.81.64 1.38l-.05.17h.25c-.14.67-.25 1.3-.36 1.94-.09.61-.19 1.16-.31 1.72l-.11.05Z" class="cls-9"/><path d="M8.35 25.17c-.16-.57-.26-1.16-.39-1.77s-.25-1.24-.4-1.86h.25l-.05-.17c-.16-.56-.03-1.21.59-1.4.09-.03.17-.05.26-.05.42 0 .76.34.92.89l.05.19.16-.09s.03-.02.06-.03c.17.65.39 1.26.57 1.85.19.57.37 1.12.53 1.68l-.12.17s-.06.02-.09.05c-.28-.25-.62-.39-.93-.39s-.61.12-.85.36c-.2.19-.34.4-.4.67l-.14-.08Z" class="cls-9"/><path d="M11.19 29.61c-.36-.45-.7-.93-1.04-1.43s-.71-1.01-1.1-1.51c.02-.02.05-.03.08-.05l.14-.08-.11-.12c-.36-.45-.5-1.09-.02-1.54.17-.16.36-.23.56-.23.3 0 .59.17.82.47l.12.16.11-.16s.03-.05.05-.06c.42.51.84.96 1.24 1.41.4.43.78.84 1.13 1.27l-.08.34c-.06-.02-.12-.02-.17-.02-.53 0-.98.3-1.2.82-.09.22-.14.45-.12.7l-.42.02Z" class="cls-9"/><path d="M15.76 32.49c-.5-.25-.98-.54-1.49-.84-.5-.3-1.02-.61-1.57-.89.02-.03.03-.05.05-.08l.09-.14-.16-.08c-.48-.25-.85-.78-.59-1.4.16-.36.43-.54.79-.54.17 0 .37.05.56.14l.17.08.03-.19s.02-.05.02-.08c.57.28 1.13.51 1.66.75.53.22 1.02.43 1.51.67l.06.4c-.68.19-1.1.76-1.07 1.49.02.19.06.39.14.56l-.2.14Z" class="cls-9"/><path d="M17.57 32.94s0-.06.02-.09l.03-.17-.17.02h-.09c-.28 0-.53-.08-.71-.23a.9.9 0 0 1-.31-.68c-.02-.3.08-.56.26-.76.19-.19.45-.3.75-.31l.17-.02-.05-.17s-.02-.06-.02-.09c.64-.05 1.23-.12 1.8-.2.56-.08 1.09-.16 1.62-.19l.03.03-.03.11s-.02.14.08.26c-.16.26-.22.56-.22.84 0 .42.17.79.48 1.07l.03.03v.09l-.23.42c-.4.03-.79.03-1.1.03h-1.16a8 8 0 0 0-1.16.02Zm23.47-19.87c-.47-.28-.9-.61-1.37-.93-.48-.34-.99-.71-1.55-1.06.02-.03.05-.05.06-.08l.11-.12-.14-.09c-.47-.3-.81-.84-.48-1.44.17-.31.42-.48.75-.48.2 0 .42.06.62.2l.16.09.05-.19s.02-.05.02-.08c.51.31 1.06.59 1.55.85.51.26.99.51 1.48.81-.22.05-.42.14-.61.3-.54.45-.65 1.21-.3 1.89-.05.06-.06.11-.08.16v.03l-.26.14Z" class="cls-9"/><path d="M43.67 15.85c-.28-.4-.53-.81-.81-1.24-.33-.53-.67-1.06-1.06-1.6.02-.02.05-.03.08-.05l.16-.08-.09-.14c-.34-.47-.45-1.12.06-1.54a.8.8 0 0 1 .53-.2c.3 0 .61.19.84.51l.11.16.11-.16.05-.05c.37.5.76.98 1.15 1.43.39.47.76.92 1.1 1.38l-.12.47c-.22-.17-.47-.26-.73-.26-.11 0-.23.02-.34.05-.61.16-.98.67-1.02 1.32Z" class="cls-9"/><path d="M44.6 20.19c-.12-.56-.22-1.13-.31-1.72-.09-.62-.2-1.27-.36-1.93h.25l-.03-.17c-.12-.57.02-1.21.64-1.38a1 1 0 0 1 .23-.03c.43 0 .78.36.92.93l.05.19.17-.09s.05-.02.06-.03c.14.62.33 1.23.5 1.82.17.61.34 1.18.48 1.75l-.3.37h-.02c-.16-.17-.36-.3-.59-.37a1 1 0 0 0-.39-.06c-.48 0-.9.3-1.16.79l-.14-.06Z" class="cls-9"/><path d="M46.01 25.22c-.06-.25-.2-.47-.4-.65-.25-.23-.54-.36-.85-.36-.33 0-.65.14-.93.39-.03-.02-.06-.03-.09-.05l-.12-.17c.16-.56.33-1.1.53-1.68.2-.59.4-1.2.57-1.85.02.02.05.02.06.03l.16.09.05-.19c.14-.54.5-.89.92-.89.08 0 .17.02.26.05.61.19.73.84.59 1.4l-.05.17h.25c-.16.62-.28 1.26-.4 1.86-.12.62-.23 1.2-.39 1.77l-.14.06Z" class="cls-9"/><path d="M42.86 29.57c.02-.23-.03-.48-.12-.7-.23-.51-.67-.81-1.2-.81-.06 0-.12 0-.17.02l-.08-.34c.36-.43.73-.84 1.13-1.27.4-.45.84-.9 1.24-1.41.02.02.03.05.05.06l.11.16.12-.16c.23-.3.54-.47.82-.47.2 0 .39.08.56.23.48.45.34 1.1-.02 1.54l-.11.12.16.08s.05.03.08.05c-.39.5-.75 1.01-1.1 1.51-.36.5-.68.98-1.04 1.43l-.43-.03Z" class="cls-9"/><path d="M38.45 32.33c.08-.17.12-.37.14-.56.05-.71-.39-1.29-1.07-1.49l.06-.39c.48-.25.98-.45 1.51-.67.54-.23 1.1-.47 1.66-.75 0 .03.02.05.02.08l.03.19.17-.08c.19-.09.39-.14.56-.14.36 0 .64.2.79.54.12.28.12.56.02.81-.11.25-.33.45-.59.59l-.16.08.09.14s.03.05.05.08c-.54.28-1.06.59-1.57.89-.51.31-.99.59-1.48.84z" class="cls-9"/><path d="M36.89 32.94c-.43-.03-.85-.03-1.16-.03h-1.16c-.31 0-.7 0-1.1-.03l-.23-.42v-.09l.03-.03c.31-.28.48-.65.48-1.07 0-.28-.08-.56-.22-.84.09-.12.08-.23.08-.26l-.02-.11.03-.03c.53.03 1.06.11 1.62.19.57.08 1.18.16 1.8.2 0 .03-.02.06-.02.09l-.05.17.17.02c.3.02.57.12.75.31.19.19.28.45.26.76-.02.28-.12.53-.31.68s-.43.23-.71.23h-.09l-.17-.02.03.17s-.02.08 0 .11Zm-10.03-8.5c-.87 0-1.57.7-1.57 1.57s.7 1.57 1.57 1.57a.87.87 0 0 1 1.34-.73c.47-.73.23-1.71-.5-2.16-.25-.16-.54-.25-.84-.25" class="cls-9"/><path d="M33.1 30.38s.2-.09.19-.17c-.09-.98-.16-1.69-.25-2.27.19-.61.28-1.23.28-1.86 0-1.75-1.62-6.17-3.2-10.09l1.63 3.8s1.52-1.02 1.57-1.57c.28-2.83-6.29-9.44-6.29-9.44s-6.57 6.62-6.29 9.44c.06.56 1.57 1.57 1.57 1.57l1.63-3.8c-1.58 3.93-3.2 8.34-3.2 10.09 0 .9.2 1.8.57 2.62-.05.42-.09.92-.16 1.51 0 .06.19.17.19.17-.42.56-.47 1.27.05 1.74.51.45 1.16.26 1.58-.3 0 0 .12.17.19.17.47-.02.99-.02 1.51-.06 1.54.62 3.26.61 4.78-.03.61.08 1.26.06 1.82.09.06 0 .19-.17.19-.17.42.56 1.06.76 1.58.3.54-.47.5-1.18.06-1.74m-6.24-1.22c-.39 0-.78-.08-1.15-.22-.82-.33-1.48-.99-1.79-1.82-.12-.36-.2-.71-.2-1.09a3.139 3.139 0 1 1 6.28 0c0 1.73-1.4 3.12-3.14 3.12Z" class="cls-9"/></svg>