<svg xmlns="http://www.w3.org/2000/svg" id="SD8" viewBox="0 0 54.5 72.5"><defs><clipPath id="clippath"><circle cx="43.54" cy="63.59" r="1.36" class="cls-4"/></clipPath><style>.cls-4,.cls-8{fill:#fff;stroke-width:0}.cls-8{fill:#231f20}</style></defs><path d="M0 0h54.5v72.5H0z" style="stroke-width:0;fill:#f8c680"/><path d="M45.38 55.18h-.36l-.38 1.18h-.51l.38-1.18H44l.09-.49h.58l.26-.81h-.52l.09-.5h.59l.38-1.19h.51l-.39 1.19h.36l.38-1.19h.51l-.38 1.19h.5l-.09.5h-.57l-.26.81h.51l-.09.49h-.58l-.38 1.18h-.51l.38-1.18Zm-.21-.49h.36l.26-.81h-.36zm4.21 1.67h-2.42l.1-.61 1.31-1.41c.36-.39.55-.73.58-1v-.15c0-.12-.02-.22-.06-.29-.05-.07-.11-.11-.2-.11-.26 0-.43.21-.5.64v.07h-.81c.02-.25.09-.49.21-.7s.29-.38.49-.5.43-.18.67-.18c.34 0 .61.12.79.33s.26.49.23.84c-.02.2-.08.4-.17.59-.1.19-.24.4-.43.61l-.4.43-.65.77h1.38l-.11.67Z" class="cls-8"/><path d="m10.27 60.34-7.05 1.78v7.04h7.05z" style="stroke-miterlimit:10;fill:none;stroke:#fff;stroke-width:.25px"/><path d="M3.22 68.26h7.04v.9H3.22zm2.15-1.59v-.5h-.51v-1h.51v-.5h-.51v-1h.51v-.5h2.02v.5h.51v1h-.51v.5H8.4v1h-.51v.5H5.36Zm0-.5h2.02v-.5H6.38v-.5H5.37zm1.01-1.5h1.01v-1H5.87v.5h.51z" class="cls-4"/><path d="M50.72 33.84 3.49 41.45V4.6h47.23z" style="fill:#fff;stroke:#000;stroke-miterlimit:10"/><path d="M27.24 5.92c-.9 5.61-1.66 8.95-3.73 11.03s-5.41 2.83-11.03 3.73c5.61.9 8.95 1.66 11.03 3.74 2.07 2.08 2.83 5.41 3.73 11.03.9-5.62 1.66-8.96 3.73-11.04 2.08-2.08 5.42-2.83 11.04-3.73-5.62-.9-8.96-1.66-11.03-3.73-2.08-2.07-2.84-5.41-3.74-11.03m10.45 4.32c-2.86 2.07-5.06 3.56-7.02 4.39.32.59.69 1.09 1.11 1.51s.92.79 1.52 1.12c.84-1.96 2.33-4.16 4.39-7.02m-20.87.01c2.07 2.86 3.55 5.05 4.38 7.01.59-.32 1.09-.69 1.51-1.11s.79-.93 1.11-1.51c-1.96-.83-4.15-2.31-7.01-4.38m16.48 13.83c-.59.33-1.09.69-1.52 1.12s-.79.92-1.12 1.52c1.97.83 4.17 2.32 7.03 4.39-2.08-2.86-3.56-5.06-4.39-7.03m-12.09 0c-.83 1.96-2.32 4.16-4.39 7.02 2.86-2.07 5.06-3.56 7.02-4.39-.32-.59-.69-1.09-1.12-1.52-.43-.42-.93-.79-1.51-1.11" style="stroke-width:0"/><path d="m6.58 43.86-1.23.19v4.14l-1.01.16v-4.14l-1.21.19v-.84l3.45-.55v.84Zm3.99 1.47c0 .67-.16 1.21-.47 1.63-.32.42-.75.67-1.31.76s-1-.02-1.32-.34c-.32-.31-.48-.8-.49-1.46v-.85c0-.68.16-1.24.47-1.68.32-.43.76-.7 1.32-.79.55-.09.99.03 1.31.36s.48.83.49 1.51v.85Zm-1.01-.68c0-.45-.06-.77-.19-.97s-.33-.28-.59-.23c-.27.04-.46.18-.59.41s-.19.56-.2.99v.88c0 .44.06.75.19.93s.33.26.6.21c.26-.04.46-.17.58-.39.13-.22.19-.54.19-.97v-.87Zm2.73.7v1.75l-1 .16v-4.98l1.7-.27c.49-.08.88.01 1.18.27s.44.63.44 1.12-.14.9-.43 1.22c-.29.33-.69.53-1.2.61l-.67.11Zm0-.84.69-.11c.19-.03.34-.12.44-.26.11-.14.16-.33.16-.57s-.05-.44-.16-.57a.46.46 0 0 0-.43-.16l-.7.11v1.55Zm8.08 1.31-1 .16v-2.13l-1.48.23v2.13l-1 .16v-4.98l1-.16v2.01l1.48-.23V41l1-.16zm1.86-.3-1 .16V40.7l1-.16zm4.07-4.78-1.23.19v4.14l-1.01.16v-4.14l-1.21.19v-.84l3.45-.55v.84Zm2.62 2.42c0-.2-.05-.35-.16-.44s-.29-.16-.57-.23c-.5-.11-.86-.28-1.08-.5s-.33-.5-.33-.85q0-.63.45-1.08c.3-.3.67-.49 1.13-.56.3-.05.58-.03.82.06s.42.24.55.46c.13.21.19.47.19.77l-1 .16q0-.345-.15-.51c-.1-.11-.24-.14-.43-.11-.17.03-.31.1-.41.22a.67.67 0 0 0-.15.44c0 .14.06.25.16.34.11.09.3.18.58.25.49.1.84.26 1.06.48s.33.53.33.92c0 .43-.14.79-.41 1.08-.28.29-.65.47-1.12.54-.32.05-.61.03-.88-.06s-.47-.25-.62-.47-.22-.5-.22-.84l1.01-.16c0 .29.06.49.17.6s.29.15.55.11c.35-.06.53-.27.53-.64ZM7.81 53.68c-.03.73-.24 1.32-.62 1.75-.38.44-.91.71-1.6.82-.72.11-1.28-.04-1.66-.45-.38-.42-.58-1.06-.58-1.95v-1.08q0-1.32.6-2.13c.4-.54.95-.86 1.66-.98q1.05-.165 1.59.33c.36.33.57.86.62 1.58l-1.3.21q-.015-.675-.21-.9c-.13-.15-.36-.2-.7-.15-.35.05-.59.21-.73.48s-.22.67-.23 1.23v1.21c0 .64.07 1.06.21 1.28.14.21.39.29.73.24s.58-.17.7-.36c.13-.19.2-.5.22-.93l1.29-.2Zm5.3-1.34c0 .86-.2 1.56-.61 2.1s-.97.87-1.69.98-1.28-.03-1.69-.44-.62-1.03-.62-1.88v-1.09c0-.88.2-1.6.61-2.16s.97-.89 1.7-1.01c.71-.11 1.27.04 1.68.46s.62 1.07.62 1.94v1.09Zm-1.3-.86c0-.58-.08-.99-.25-1.25-.16-.25-.42-.36-.76-.3-.34.05-.6.23-.76.53s-.25.72-.26 1.28v1.14c0 .56.08.96.25 1.2s.42.33.77.28q.51-.075.75-.51c.16-.28.25-.7.25-1.25v-1.11Zm3.52 2.06 2.27-.36v1.07l-3.56.56v-6.4l1.29-.21v5.33Zm4.3-.68 2.27-.36v1.07l-3.56.56v-6.4l1.29-.2zm6.32-2.7-2.01.32v1.7l2.38-.38v1.07l-3.67.58v-6.4l3.67-.58v1.08l-2.37.38v1.51l2.01-.32v1.04Zm5.45-.22c-.03.73-.24 1.32-.62 1.75s-.91.71-1.6.82c-.72.11-1.28-.04-1.66-.45-.39-.42-.58-1.06-.58-1.95v-1.08q0-1.32.6-2.13c.4-.54.95-.87 1.66-.98q1.05-.165 1.59.33c.36.33.57.86.62 1.58l-1.3.21q-.015-.675-.21-.9c-.13-.15-.36-.2-.7-.15-.35.06-.59.21-.73.48-.14.26-.22.67-.23 1.23v1.21c0 .64.07 1.06.21 1.28.14.21.39.29.73.24s.57-.17.7-.36.2-.5.22-.93l1.29-.2Zm4.82-3.95-1.58.25v5.32l-1.3.21v-5.32l-1.55.25v-1.08l4.43-.7V46Zm2.09 4.99-1.29.21v-6.4l1.29-.21zm5.59-3.51c0 .86-.2 1.56-.61 2.1s-.97.87-1.69.98-1.28-.03-1.69-.44-.62-1.03-.62-1.88v-1.09c0-.88.2-1.6.61-2.16s.97-.89 1.7-1.01c.71-.11 1.27.04 1.68.46s.62 1.07.62 1.94v1.09Zm-1.3-.87c0-.58-.08-.99-.25-1.25s-.42-.36-.77-.3c-.34.05-.6.23-.76.53s-.25.72-.25 1.28V48c0 .56.08.96.25 1.2s.42.33.77.28q.51-.075.75-.51c.16-.28.25-.7.25-1.25v-1.11Zm6.7 2.64-1.29.2-1.89-3.9v4.2l-1.29.2v-6.4l1.29-.2 1.89 3.9v-4.2l1.29-.2z" class="cls-8"/><path d="m48.05 68.05-1.32-.57-.02 1.44-1.12-.91-.41 1.39-.83-1.18-.77 1.22-.48-1.36-1.07.97-.1-1.44-1.29.65.29-1.41-1.41.27.66-1.28-1.44-.12.98-1.05-1.35-.5 1.23-.75-1.16-.85 1.38-.39-.89-1.13h1.44l-.56-1.33 1.39.38-.18-1.43 1.24.75.21-1.43.99 1.06.59-1.32.67 1.28.92-1.11.3 1.41 1.19-.81-.1 1.44 1.36-.47-.48 1.36 1.44-.08-.83 1.18 1.41.31-1.12.92 1.28.68-1.33.57 1.04 1-1.42.2.73 1.24-1.43-.19z" style="stroke-width:0;fill:#e4b523"/><path d="M43.54 66.31v-.98a1.8 1.8 0 0 0 1.26-.51c.16-.16.3-.36.39-.57s.14-.44.14-.67-.05-.46-.14-.67-.22-.41-.39-.57a1.77 1.77 0 0 0-1.26-.51v-.98c.72 0 1.42.29 1.93.8a2.724 2.724 0 0 1 0 3.86c-.51.51-1.2.8-1.93.8" class="cls-4"/><circle cx="43.54" cy="63.59" r="1.36" style="fill:#fff"/><path d="M43.54 64.95c.75 0 1.36-.61 1.36-1.36s-.61-1.36-1.36-1.36-1.36.61-1.36 1.36.61 1.36 1.36 1.36" class="cls-4" style="clip-path:url(#clippath)"/><path d="M46.35 62.17h-.1v-.06h.26v.06h-.1v.26h-.07v-.26m.56-.05v.32h-.06v-.2l-.09.19h-.04l-.09-.19v.2h-.06v-.32h.06l.11.23.1-.23z" class="cls-4"/></svg>