<svg xmlns="http://www.w3.org/2000/svg" id="SD14" viewBox="0 0 54.5 72.5"><defs><clipPath id="clippath"><circle cx="43.54" cy="63.59" r="1.36" class="cls-4"/></clipPath><style>.cls-4{fill:#fff}.cls-4,.cls-6{stroke-width:0}</style></defs><path d="M-.04 0h54.5v72.5H-.04z" style="stroke-width:0;fill:#abd69b"/><path d="m48.05 68.05-1.32-.57-.02 1.44-1.12-.91-.41 1.39-.83-1.18-.77 1.22-.48-1.36-1.07.97-.1-1.44-1.29.65.29-1.41-1.41.27.66-1.28-1.44-.12.98-1.05-1.35-.5 1.23-.75-1.16-.85 1.38-.39-.89-1.13h1.44l-.56-1.33 1.39.38-.18-1.43 1.24.75.21-1.43.99 1.06.59-1.32.67 1.28.92-1.11.3 1.41 1.19-.81-.1 1.44 1.36-.47-.48 1.36 1.44-.08-.83 1.18 1.41.31-1.12.92 1.28.68-1.33.57 1.04 1-1.42.2.73 1.24-1.43-.19z" style="stroke-width:0;fill:#e4b523"/><path d="M43.54 66.31v-.98a1.8 1.8 0 0 0 1.26-.51c.16-.16.3-.36.39-.57s.14-.44.14-.67-.05-.46-.14-.67-.22-.41-.39-.57a1.77 1.77 0 0 0-1.26-.51v-.98c.72 0 1.42.29 1.93.8a2.724 2.724 0 0 1 0 3.86c-.51.51-1.2.8-1.93.8" class="cls-4"/><circle cx="43.54" cy="63.59" r="1.36" style="fill:#fff"/><path d="M43.54 64.95c.75 0 1.36-.61 1.36-1.36s-.61-1.36-1.36-1.36-1.36.61-1.36 1.36.61 1.36 1.36 1.36" class="cls-4" style="clip-path:url(#clippath)"/><path d="M46.35 62.17h-.1v-.06h.26v.06h-.1v.26h-.07v-.26m.56-.05v.32h-.06v-.2l-.09.19h-.04l-.09-.19v.2h-.06v-.32h.06l.11.23.1-.23z" class="cls-4"/><path d="m10.27 60.34-7.05 1.78v7.04h7.05z" style="stroke:#000;stroke-miterlimit:10;fill:none;stroke-width:.25px"/><path d="M3.22 68.26h7.04v.9H3.22zm1.45-2.08v-.31h.63v-1.25h-.32v-.31h.32V64h.63v1.88h.63v.31h-1.9Zm3.48 0v-.62H6.88v-.62h.32v-.31h.32v-.31h.32v-.31h.95v1.25h.32v.31h-.32v.62h-.63Zm-.63-.93h.63v-.62h-.32v.31h-.32v.31Z" class="cls-6"/><path d="M50.83 34.13 3.6 41.73V4.89h47.23z" style="fill:#fff;stroke:#000;stroke-miterlimit:10"/><path d="M25.97 7.46h-.74c-1.2 0-2.41.04-3.64.08l.35 1.56c1.28-.14 2.68-.25 4.08-.31.76-.03 1.51-.04 2.24-.04 2.19.01 4.18.2 5.49.7l.56.22-.25.54c-1.82 3.97-2.24 7.8-1.95 11.55.14-4.46 1.99-8.42 4.43-13.5-3.31-.55-6.85-.79-10.56-.8Zm1.75 2.43c-.55 0-1.1.01-1.66.03-2.6.1-5.2.41-6.89.76 1.89 3.5 3.42 7.02 4.41 10.44h.37c.25.01.5.05.74.1-1-3.21-2.15-6.18-3.57-9.13l-.32-.67.73-.13c1.83-.32 3.73-.45 5.53-.45h.36c1.15.01 2.25.07 3.27.16l.69.06-.2.66c-1.17 3.85-1.4 7.98-.74 11.91l.03.03c.24-.08.46-.17.67-.26-.52-4.21-.29-8.56 1.64-13.08-1.08-.27-2.71-.42-4.51-.44h-.54Zm9.06.46c-1.93 4.1-3.31 7.38-3.53 10.93 1.25-4.18 3.67-7.92 6.43-10.32-.96-.24-1.92-.44-2.9-.6m-18.43 1.15c-1.17.24-2.32.55-3.43.97.54.47 1.51 1.34 2.7 2.49.54-.56 1.1-1.11 1.68-1.62-.31-.62-.62-1.24-.95-1.85m8.87.47c-.85 0-1.72.02-2.6.08-.09.86-.6 1.66-1.2 2.44.96 2.28 1.8 4.61 2.55 7.07 1.15.34 2.28.74 3.21 1.22-.34-2.65-.3-5.37.15-8.03-.81-.83-1.22-1.76-1.26-2.77-.28 0-.56-.01-.84-.01m11.37 1.69c-1.55 1.83-2.91 4.12-3.84 6.62 1.7-2.42 3.8-4.31 6.03-5.65-.73-.33-1.46-.66-2.19-.97m-18.8.75c-.91.82-1.81 1.81-2.75 2.76 2.02 1.2 3.74 2.62 5.14 4.23.09-.03.18-.06.26-.09-.66-2.26-1.56-4.56-2.65-6.9m14.59 7.8c-1.02 1.24-1.99 1.89-3.32 2.41.15.58-.07 1.24-.58 1.74-.3.3-.68.64-1.23.86.08.05.16.09.24.13.77.39 2.14.26 3.41-.32 1.26-.58 2.39-1.57 2.81-2.57.21-.57.06-.86-.31-1.29-.26-.31-.64-.62-1.02-.96m-10.63.03c-.67 0-1.35.19-1.91.61-.8.6-1.42 1.67-1.42 3.5v.03c-.18 3.84.1 5.61.66 6.57.49.85 1.32 1.25 2.52 2 .06-.15.12-.34.17-.57.14-.59.26-1.41.33-2.31.15-1.8.13-3.97-.12-5.53l-.13-.82.81.19c1.98.45 3.11.51 3.76.39.66-.12.88-.35 1.26-.73.36-.36.36-.49.28-.69s-.38-.53-.91-.85c-1.04-.64-2.82-1.23-4.48-1.67-.27-.07-.55-.11-.83-.11m11.83 4.33c-.63.61-1.4 1.11-2.2 1.48-1.31.6-2.75.87-3.95.47-.42.16-.67.34-.79.49-.17.21-.18.36-.12.57.06.22.23.47.44.66.21.18.46.28.56.29 2.92.14 4.19-.7 5.77-1.67.46-.28.64-.86.59-1.43-.02-.29-.11-.56-.2-.73a.5.5 0 0 0-.09-.12m-10.4.56c.17 1.57.17 3.39.04 5-.08.94-.2 1.8-.36 2.48-.07.3-.15.56-.24.79l9.17-.4c-.1-.38-.21-.77-.31-1.16-.35.12-.71.21-1.08.28v.05l-.52.03c-.32.04-.65.06-1 .06l-5.24.33.16-.73c.5-2.31.54-4.35.24-6.58l-.85-.15Zm2 .29c.25 2 .22 3.9-.15 5.95l1.2-.07c-.19-.28-.32-.59-.38-.92-.08-.43-.04-.91.25-1.3.01-.02.03-.03.04-.05-.33-.3-.6-.69-.73-1.16-.13-.5-.05-1.1.34-1.58.13-.16.29-.3.47-.43-.16-.13-.31-.27-.43-.41-.19 0-.4 0-.62-.02m8.3 2.6c-1.47.89-3.11 1.74-6.03 1.6-.1 0-.19-.02-.28-.04-.08.03-.12.08-.15.12-.06.08-.1.24-.06.44.08.41.47.87.84.91 2.59.3 4.37-.55 5.46-1.53.5-.45.5-.74.43-1.06-.04-.16-.12-.31-.21-.45m-.42 3.08c-.17.11-.35.21-.53.3.1.38.21.76.31 1.13l1.25-.22c-.32-.27-.57-.56-.77-.84-.09-.13-.17-.25-.25-.37" class="cls-6"/><path d="m9.28 44.53-2.11.33v7.1l-1.73.27v-7.1l-2.07.33v-1.44l5.91-.94v1.44Zm3.65 1.82 1.28-4.04 1.88-.3-2.29 5.8v3.09l-1.75.28v-3.09l-2.29-5.07 1.88-.3zm9.72.32c-.04.98-.32 1.76-.82 2.34s-1.21.94-2.13 1.09q-1.44.225-2.22-.6c-.51-.55-.77-1.42-.77-2.59v-1.44c0-1.17.27-2.12.8-2.84s1.27-1.15 2.21-1.3c.93-.15 1.64 0 2.12.44s.76 1.15.82 2.11l-1.73.27c-.02-.6-.11-1-.28-1.2s-.48-.27-.93-.19c-.46.07-.79.29-.98.64s-.29.9-.3 1.64v1.61c0 .85.09 1.41.28 1.7s.51.39.98.32c.45-.07.77-.23.94-.48s.27-.66.29-1.24l1.72-.27Zm7.07-1.78c0 1.14-.27 2.08-.81 2.79-.54.72-1.29 1.15-2.25 1.31-.96.15-1.71-.04-2.26-.58s-.82-1.37-.83-2.5v-1.46c0-1.17.27-2.13.81-2.87s1.3-1.19 2.26-1.35c.95-.15 1.7.05 2.24.61s.82 1.42.83 2.59v1.46Zm-1.73-1.16c0-.77-.11-1.32-.33-1.67s-.56-.47-1.02-.4-.79.31-1.01.7-.33.96-.34 1.7v1.52c0 .75.11 1.28.33 1.6s.57.44 1.03.37c.45-.07.78-.3 1-.68s.33-.93.33-1.66v-1.48Zm8.97.01c0 1.14-.27 2.08-.81 2.79-.54.72-1.29 1.15-2.25 1.31-.96.15-1.71-.04-2.26-.58s-.82-1.37-.83-2.5V43.3c0-1.17.27-2.13.82-2.87.54-.74 1.3-1.19 2.26-1.35.95-.15 1.7.05 2.24.61.55.56.82 1.42.83 2.59zm-1.73-1.15c0-.77-.11-1.32-.33-1.67s-.56-.47-1.02-.4-.79.31-1.01.7-.33.96-.34 1.7v1.52c0 .75.11 1.28.33 1.6s.57.44 1.03.37c.45-.07.78-.3 1-.68s.33-.93.33-1.66v-1.48Zm8.93 3.51-1.72.27-2.52-5.2v5.6l-1.72.27v-8.53l1.72-.27 2.53 5.2v-5.6l1.72-.27v8.53Z" style="stroke-width:0;fill:#204286"/></svg>