<svg xmlns="http://www.w3.org/2000/svg" id="SD29" viewBox="0 0 54.5 72.5"><defs><clipPath id="clippath"><circle cx="43.58" cy="63.59" r="1.36" class="cls-4"/></clipPath><style>.cls-4{fill:#fff;stroke-width:0}</style></defs><path d="M0 0h54.5v72.5H0z" style="stroke-width:0;fill:#567ab0"/><path d="m10.3 60.34-7.04 1.78v7.04h7.04z" style="stroke-miterlimit:10;fill:none;stroke:#fff;stroke-width:.25px"/><path d="M3.26 68.26h7.04v.9H3.26zm1.13-2.08v-.62h.32v-.31h.32v-.31h.63v-.31h.32v-.31h-.95v.31H4.4v-.31h.32v-.31H6.3v.31h.32v.62H6.3v.31h-.32v.31h-.63v.31h1.27v.31H4.41Zm2.85 0v-.31h.95v-.31h.32v-.31H7.24v-.31h-.32v-.62h.32v-.31h1.58v.31h.32v1.25h-.32v.31H8.5v.31H7.23Zm.31-1.25h.95v-.62h-.95z" class="cls-4"/><path d="m48.09 68.05-1.33-.57-.02 1.44-1.12-.91-.4 1.39-.84-1.18-.76 1.22-.49-1.36-1.06.97-.1-1.44-1.29.65.29-1.41-1.42.27.66-1.28-1.43-.12.98-1.05-1.35-.5 1.23-.75-1.17-.85 1.39-.39-.9-1.13h1.44l-.55-1.33 1.39.38-.18-1.43 1.23.75.22-1.43.98 1.06.6-1.32.66 1.28.93-1.11.29 1.41 1.19-.81-.09 1.44 1.36-.47-.48 1.36 1.44-.08-.83 1.18 1.41.31-1.12.92 1.27.68-1.32.57 1.04 1-1.43.2.73 1.24-1.42-.19z" style="stroke-width:0;fill:#e4b523"/><path d="M43.58 66.31v-.98a1.8 1.8 0 0 0 1.26-.51c.16-.16.3-.36.39-.57s.14-.44.14-.67-.05-.46-.14-.67-.22-.41-.39-.57a1.77 1.77 0 0 0-1.26-.51v-.98c.72 0 1.42.29 1.93.8a2.724 2.724 0 0 1 0 3.86c-.51.51-1.2.8-1.93.8" class="cls-4"/><circle cx="43.58" cy="63.59" r="1.36" style="fill:#fff"/><path d="M43.58 64.95c.75 0 1.36-.61 1.36-1.36s-.61-1.36-1.36-1.36-1.36.61-1.36 1.36.61 1.36 1.36 1.36" class="cls-4" style="clip-path:url(#clippath)"/><path d="M46.39 62.17h-.1v-.06h.26v.06h-.1v.26h-.07v-.26m.56-.05v.32h-.06v-.2l-.09.19h-.04l-.09-.19v.2h-.06v-.32h.06l.11.23.1-.23z" class="cls-4"/><path d="m50.87 34.13-47.24 7.6V4.89h47.24z" style="fill:#fff;stroke:#000;stroke-miterlimit:10"/><path d="m5.7 48.19 1.08-4.81 1.44-.23-1.85 6.69-1.34.21-1.83-6.11 1.43-.23 1.07 4.47Zm4.47 1.05-1.29.21v-6.4l1.29-.21zm3.02-2.82-.64.1v2.34l-1.29.21v-6.4l2.06-.33q.975-.15 1.5.27c.35.28.53.73.53 1.35 0 .85-.31 1.49-.93 1.93l1.12 2.44v.06l-1.39.22zm-.64-.97.73-.12c.26-.04.45-.16.58-.35s.19-.43.19-.72q0-.96-.75-.84l-.76.12v1.91Zm7.61-3.11-1.58.25v5.32l-1.3.21V42.8l-1.56.25v-1.08l4.43-.7v1.08Zm4.9-1.86v4.43c0 .67-.19 1.2-.55 1.61s-.88.67-1.55.78c-.69.11-1.21.01-1.57-.29q-.54-.45-.54-1.47v-4.4l1.3-.21v4.4q0 .54.18.75c.18.21.33.18.64.13q.465-.075.63-.33c.165-.255.17-.43.18-.79v-4.43l1.29-.21ZM29 44.95l-1.76.28-.34 1.36-1.37.22 2-6.72 1.18-.19 2.01 6.08-1.38.22zm-1.48-.84 1.2-.19-.6-2.19zm5.09.5 2.27-.36v1.07l-3.56.56v-6.4l1.29-.2zM5.55 55.63l-.64.1v2.34l-1.29.2v-6.4l2.06-.33q.975-.15 1.5.27c.525.42.53.73.53 1.35 0 .85-.31 1.49-.93 1.93l1.12 2.44v.06l-1.39.22-.96-2.19Zm-.64-.97.73-.12c.26-.04.45-.16.58-.35s.19-.43.19-.72q0-.96-.75-.84l-.76.12v1.91Zm6.99-.46-2.01.32v1.7l2.38-.38v1.07l-3.67.58v-6.4l3.67-.58v1.08l-2.37.38v1.51l2.01-.32v1.04Zm4.17.8-1.76.28-.34 1.36-1.37.22 2-6.71 1.18-.19 2.01 6.08-1.38.22-.34-1.25Zm-1.48-.85 1.2-.19-.6-2.19zm5.09.51 2.27-.36v1.07l-3.56.56v-6.4l1.29-.21v5.33Zm4.36.38-1.29.21v-6.4l1.29-.21zm5.23-6.15-1.58.25v5.32l-1.3.21v-5.32l-1.56.25v-1.08l4.43-.7v1.08Zm2.75 1.37.96-3.03 1.41-.22-1.71 4.35v2.32l-1.31.21v-2.32l-1.72-3.81 1.41-.22.97 2.72Z" style="stroke-width:0;fill:#f1f2f2"/><path d="M26.96 6.24c-.45 0-.91.06-1.2.16a.9.9 0 0 0-.24.12v8.61c.48 0 .96-.01 1.44-.01s.96 0 1.44.01V6.51s-.11-.07-.24-.12c-.29-.1-.75-.16-1.2-.16M24.4 7.41c-1.82.61-3.46 1.87-4.77 3.6-.98 1.29-1.78 2.86-2.32 4.61 2.53-.24 4.83-.4 7.09-.47zm5.12 0v7.74c2.26.07 4.56.23 7.09.47-.54-1.74-1.34-3.31-2.32-4.61-1.31-1.73-2.95-2.99-4.77-3.6m-2.56 8.83c-3.73 0-7.45.25-11.94.74h-.06c-.04 0-.09 0-.21.16s-.26.46-.38.84c-.23.76-.35 1.85-.35 2.93s.13 2.17.35 2.93c.11.38.25.68.38.84.12.16.17.16.21.16 6.94 0 8.88-1 12-1s5.06 1 12 1c.04 0 .09 0 .21-.16s.27-.46.38-.84c.23-.76.35-1.85.35-2.93s-.12-2.17-.35-2.93c-.11-.38-.26-.68-.38-.84s-.17-.16-.21-.16h-.06c-4.49-.5-8.21-.75-11.94-.75m-10.5 2.13c.58 0 1.06.48 1.06 1.06s-.48 1.06-1.06 1.06-1.06-.48-1.06-1.06.48-1.06 1.06-1.06m10.5 6.63c-2.54 0-4.46.78-9.74.96.54 1.86 1.37 3.52 2.41 4.89 1.91 2.51 4.49 4.03 7.33 4.03s5.42-1.51 7.33-4.02c1.04-1.37 1.86-3.03 2.41-4.89-5.28-.18-7.19-.96-9.74-.96m12.91.6c-.24.23-.55.39-.91.39h-.16c.06.25.12.52.19.8.27 1.23.5 2.72.41 3.58-.08.74-.56 1.74-1.02 2.74-.47 1.01-.91 1.79-.91 1.79l.98.55s.46-.82.95-1.87 1.01-2.05 1.12-3.09c.13-1.16-.14-2.67-.42-3.94-.08-.34-.15-.66-.23-.94m-14.91.75h4v1.12h-4zm-2 3.5h8v1.12h-8z" style="stroke-width:0"/></svg>